<svg width="585" height="258" xmlns="http://www.w3.org/2000/svg" xmlns:xlink="http://www.w3.org/1999/xlink" xml:space="preserve" overflow="hidden"><defs><clipPath id="clip0"><rect x="348" y="188" width="585" height="258"/></clipPath><clipPath id="clip1"><rect x="348" y="188" width="585" height="258"/></clipPath><clipPath id="clip2"><rect x="349" y="189" width="584" height="257"/></clipPath><clipPath id="clip3"><rect x="349" y="188" width="584" height="258"/></clipPath></defs><g clip-path="url(#clip0)" transform="translate(-348 -188)"><g clip-path="url(#clip1)"><g clip-path="url(#clip2)"><g clip-path="url(#clip3)"><path d="M1153.34 562.143C1153.34 549.485 1163.6 539.224 1176.26 539.224L1361.09 539.224C1373.74 539.224 1384.01 549.485 1384.01 562.143L1384.01 723.007C1384.01 735.665 1373.74 745.926 1361.09 745.926L1176.26 745.926C1163.6 745.926 1153.34 735.665 1153.34 723.007Z" stroke="#386851" stroke-width="17.9741" stroke-linecap="butt" stroke-linejoin="miter" stroke-miterlimit="8" stroke-opacity="1" fill="none" fill-rule="evenodd" transform="matrix(1 0 0 1.00371 -787.997 -315.614)"/><text fill="#386851" fill-opacity="1" font-family="Aptos,Aptos_MSFontService,sans-serif" font-style="normal" font-variant="normal" font-weight="400" font-stretch="normal" font-size="210" text-anchor="start" direction="ltr" writing-mode="lr-tb" unicode-bidi="normal" text-decoration="none" transform="matrix(0.998562 0 0 1.00227 427.433 396)">?</text><path d="M0 0 0.000157254 10.834" stroke="#386851" stroke-width="23.9655" stroke-linecap="round" stroke-linejoin="miter" stroke-miterlimit="8" stroke-opacity="1" fill="none" fill-rule="evenodd" transform="matrix(1 0 0 -1.00371 413.274 218.444)"/><path d="M0 0 0.000157254 10.0352" stroke="#386851" stroke-width="23.9655" stroke-linecap="round" stroke-linejoin="miter" stroke-miterlimit="8" stroke-opacity="1" fill="none" fill-rule="evenodd" transform="matrix(1 0 0 -1.00371 551.075 217.642)"/><text fill="#000000" fill-opacity="1" font-family="Helvetica,Helvetica_MSFontService,sans-serif" font-style="normal" font-variant="normal" font-weight="700" font-stretch="normal" font-size="80" text-anchor="start" direction="ltr" writing-mode="lr-tb" unicode-bidi="normal" text-decoration="none" transform="matrix(0.998562 0 0 1.00227 628.364 307)">Quando</text><text fill="#000000" fill-opacity="1" font-family="Helvetica,Helvetica_MSFontService,sans-serif" font-style="normal" font-variant="normal" font-weight="700" font-stretch="normal" font-size="80" text-anchor="start" direction="ltr" writing-mode="lr-tb" unicode-bidi="normal" text-decoration="none" transform="matrix(0.998562 0 0 1.00227 628.364 403)">Pode</text><text fill="#000000" fill-opacity="1" font-family="Helvetica,Helvetica_MSFontService,sans-serif" font-style="normal" font-variant="normal" font-weight="700" font-stretch="normal" font-size="80" text-anchor="start" direction="ltr" writing-mode="lr-tb" unicode-bidi="normal" text-decoration="none" transform="matrix(0.998562 0 0 1.00227 823.333 403)">?</text></g></g></g></g></svg>