<svg xmlns="http://www.w3.org/2000/svg" xmlns:xlink="http://www.w3.org/1999/xlink" width="374" zoomAndPan="magnify" viewBox="0 0 280.5 134.249994" height="179" preserveAspectRatio="xMidYMid meet" version="1.2"><defs><clipPath id="aff568bb75"><path d="M 0.53125 43.6875 L 90.039062 43.6875 L 90.039062 120.539062 L 0.53125 120.539062 Z M 0.53125 43.6875 "/></clipPath><clipPath id="1551f5e4c3"><path d="M 18 37.007812 L 25 37.007812 L 25 55 L 18 55 Z M 18 37.007812 "/></clipPath><clipPath id="b0b3f56f8d"><path d="M 65 37.007812 L 72 37.007812 L 72 54 L 65 54 Z M 65 37.007812 "/></clipPath></defs><g id="b4da7dfbcf"><g style="fill:#023047;fill-opacity:1;"><g transform="translate(108.439103, 71.251882)"><path style="stroke:none" d="M 14.234375 -25.75 C 16.910156 -25.75 19.195312 -25.191406 21.09375 -24.078125 C 22.988281 -22.972656 24.441406 -21.441406 25.453125 -19.484375 C 26.472656 -17.523438 26.984375 -15.269531 26.984375 -12.71875 C 26.984375 -10.519531 26.609375 -8.546875 25.859375 -6.796875 C 25.109375 -5.046875 24.035156 -3.585938 22.640625 -2.421875 L 24.625 0.1875 C 24.96875 0.59375 25.140625 1.070312 25.140625 1.625 C 25.140625 2.28125 24.914062 2.835938 24.46875 3.296875 C 24.019531 3.753906 23.46875 3.984375 22.8125 3.984375 C 22.019531 3.984375 21.394531 3.679688 20.9375 3.078125 L 18.4375 -0.21875 C 17.175781 0.144531 15.773438 0.328125 14.234375 0.328125 C 11.554688 0.328125 9.269531 -0.222656 7.375 -1.328125 C 5.476562 -2.441406 4.019531 -3.976562 3 -5.9375 C 1.988281 -7.894531 1.484375 -10.15625 1.484375 -12.71875 C 1.484375 -15.269531 1.988281 -17.523438 3 -19.484375 C 4.019531 -21.441406 5.476562 -22.972656 7.375 -24.078125 C 9.269531 -25.191406 11.554688 -25.75 14.234375 -25.75 Z M 14.234375 -21.046875 C 11.867188 -21.046875 10.039062 -20.296875 8.75 -18.796875 C 7.457031 -17.296875 6.8125 -15.269531 6.8125 -12.71875 C 6.8125 -10.15625 7.457031 -8.117188 8.75 -6.609375 C 10.039062 -5.097656 11.867188 -4.34375 14.234375 -4.34375 C 16.597656 -4.34375 18.4375 -5.097656 19.75 -6.609375 C 21.070312 -8.117188 21.734375 -10.15625 21.734375 -12.71875 C 21.734375 -15.269531 21.070312 -17.296875 19.75 -18.796875 C 18.4375 -20.296875 16.597656 -21.046875 14.234375 -21.046875 Z M 14.234375 -21.046875 "/></g></g><g style="fill:#023047;fill-opacity:1;"><g transform="translate(136.829926, 71.251882)"><path style="stroke:none" d="M 4.5625 -18.46875 C 5.363281 -18.46875 5.972656 -18.234375 6.390625 -17.765625 C 6.816406 -17.296875 7.03125 -16.6875 7.03125 -15.9375 L 7.03125 -7.421875 C 7.03125 -6.316406 7.320312 -5.441406 7.90625 -4.796875 C 8.5 -4.160156 9.316406 -3.84375 10.359375 -3.84375 C 11.421875 -3.84375 12.25 -4.160156 12.84375 -4.796875 C 13.4375 -5.441406 13.734375 -6.316406 13.734375 -7.421875 L 13.734375 -15.9375 C 13.734375 -16.707031 13.929688 -17.320312 14.328125 -17.78125 C 14.722656 -18.238281 15.320312 -18.46875 16.125 -18.46875 C 16.914062 -18.46875 17.515625 -18.238281 17.921875 -17.78125 C 18.335938 -17.320312 18.546875 -16.707031 18.546875 -15.9375 L 18.546875 -1.84375 C 18.546875 -1.164062 18.363281 -0.628906 18 -0.234375 C 17.632812 0.160156 17.101562 0.359375 16.40625 0.359375 C 15.726562 0.359375 15.203125 0.160156 14.828125 -0.234375 C 14.453125 -0.628906 14.265625 -1.164062 14.265625 -1.84375 L 14.265625 -3.1875 C 13.765625 -2.070312 13.035156 -1.203125 12.078125 -0.578125 C 11.117188 0.046875 9.941406 0.359375 8.546875 0.359375 C 6.515625 0.359375 4.945312 -0.21875 3.84375 -1.375 C 2.75 -2.53125 2.203125 -4.171875 2.203125 -6.296875 L 2.203125 -15.9375 C 2.203125 -16.6875 2.394531 -17.296875 2.78125 -17.765625 C 3.175781 -18.234375 3.769531 -18.46875 4.5625 -18.46875 Z M 4.5625 -18.46875 "/></g></g><g style="fill:#023047;fill-opacity:1;"><g transform="translate(157.39879, 71.251882)"><path style="stroke:none" d="M 9.8125 -18.46875 C 12.46875 -18.46875 14.460938 -17.84375 15.796875 -16.59375 C 17.140625 -15.351562 17.8125 -13.566406 17.8125 -11.234375 L 17.8125 -1.8125 C 17.8125 -1.15625 17.644531 -0.628906 17.3125 -0.234375 C 16.976562 0.160156 16.457031 0.359375 15.75 0.359375 C 15.070312 0.359375 14.550781 0.160156 14.1875 -0.234375 C 13.832031 -0.628906 13.65625 -1.15625 13.65625 -1.8125 L 13.65625 -3.84375 C 13.125 -2.539062 12.289062 -1.515625 11.15625 -0.765625 C 10.019531 -0.015625 8.617188 0.359375 6.953125 0.359375 C 5.378906 0.359375 4.078125 -0.09375 3.046875 -1 C 2.023438 -1.90625 1.515625 -3.238281 1.515625 -5 C 1.515625 -6.613281 1.984375 -7.894531 2.921875 -8.84375 C 3.867188 -9.800781 5.207031 -10.5 6.9375 -10.9375 C 8.664062 -11.375 10.722656 -11.613281 13.109375 -11.65625 C 13.085938 -12.625 12.722656 -13.347656 12.015625 -13.828125 C 11.316406 -14.316406 10.398438 -14.5625 9.265625 -14.5625 C 8.472656 -14.5625 7.71875 -14.4375 7 -14.1875 C 6.289062 -13.945312 5.660156 -13.660156 5.109375 -13.328125 C 5.015625 -13.253906 4.882812 -13.210938 4.71875 -13.203125 C 4.5625 -13.191406 4.414062 -13.1875 4.28125 -13.1875 C 3.695312 -13.1875 3.222656 -13.382812 2.859375 -13.78125 C 2.492188 -14.175781 2.3125 -14.628906 2.3125 -15.140625 C 2.3125 -15.429688 2.398438 -15.703125 2.578125 -15.953125 C 2.765625 -16.203125 2.941406 -16.414062 3.109375 -16.59375 C 3.765625 -17.144531 4.660156 -17.59375 5.796875 -17.9375 C 6.929688 -18.289062 8.269531 -18.46875 9.8125 -18.46875 Z M 13.109375 -7.96875 L 13.109375 -8.40625 C 10.578125 -8.375 8.816406 -8.125 7.828125 -7.65625 C 6.835938 -7.1875 6.34375 -6.492188 6.34375 -5.578125 C 6.34375 -4.898438 6.582031 -4.390625 7.0625 -4.046875 C 7.539062 -3.710938 8.109375 -3.546875 8.765625 -3.546875 C 9.972656 -3.546875 11 -3.945312 11.84375 -4.75 C 12.6875 -5.5625 13.109375 -6.632812 13.109375 -7.96875 Z M 13.109375 -7.96875 "/></g></g><g style="fill:#023047;fill-opacity:1;"><g transform="translate(177.315822, 71.251882)"><path style="stroke:none" d="M 4.3125 -18.46875 C 5.007812 -18.46875 5.539062 -18.269531 5.90625 -17.875 C 6.269531 -17.476562 6.453125 -16.941406 6.453125 -16.265625 L 6.453125 -14.921875 C 6.953125 -16.035156 7.675781 -16.90625 8.625 -17.53125 C 9.582031 -18.15625 10.765625 -18.46875 12.171875 -18.46875 C 14.203125 -18.46875 15.769531 -17.894531 16.875 -16.75 C 17.988281 -15.601562 18.546875 -13.957031 18.546875 -11.8125 L 18.546875 -2.171875 C 18.546875 -1.421875 18.335938 -0.8125 17.921875 -0.34375 C 17.515625 0.125 16.914062 0.359375 16.125 0.359375 C 15.320312 0.359375 14.722656 0.125 14.328125 -0.34375 C 13.929688 -0.8125 13.734375 -1.421875 13.734375 -2.171875 L 13.734375 -10.6875 C 13.734375 -11.820312 13.4375 -12.703125 12.84375 -13.328125 C 12.25 -13.953125 11.421875 -14.265625 10.359375 -14.265625 C 9.316406 -14.265625 8.5 -13.953125 7.90625 -13.328125 C 7.320312 -12.703125 7.03125 -11.820312 7.03125 -10.6875 L 7.03125 -2.171875 C 7.03125 -1.421875 6.816406 -0.8125 6.390625 -0.34375 C 5.972656 0.125 5.363281 0.359375 4.5625 0.359375 C 3.769531 0.359375 3.175781 0.125 2.78125 -0.34375 C 2.394531 -0.8125 2.203125 -1.421875 2.203125 -2.171875 L 2.203125 -16.265625 C 2.203125 -16.941406 2.382812 -17.476562 2.75 -17.875 C 3.113281 -18.269531 3.632812 -18.46875 4.3125 -18.46875 Z M 4.3125 -18.46875 "/></g></g><g style="fill:#023047;fill-opacity:1;"><g transform="translate(197.884687, 71.251882)"><path style="stroke:none" d="M 1.515625 -9.046875 C 1.515625 -12.023438 2.132812 -14.335938 3.375 -15.984375 C 4.625 -17.640625 6.394531 -18.46875 8.6875 -18.46875 C 10.9375 -18.46875 12.6875 -17.671875 13.9375 -16.078125 L 13.9375 -23.1875 C 13.9375 -23.957031 14.140625 -24.570312 14.546875 -25.03125 C 14.960938 -25.488281 15.570312 -25.71875 16.375 -25.71875 C 17.164062 -25.71875 17.757812 -25.488281 18.15625 -25.03125 C 18.5625 -24.570312 18.765625 -23.957031 18.765625 -23.1875 L 18.765625 -1.84375 C 18.765625 -1.164062 18.585938 -0.628906 18.234375 -0.234375 C 17.878906 0.160156 17.351562 0.359375 16.65625 0.359375 C 15.976562 0.359375 15.457031 0.160156 15.09375 -0.234375 C 14.738281 -0.628906 14.5625 -1.164062 14.5625 -1.84375 L 14.5625 -2.9375 C 13.332031 -0.738281 11.375 0.359375 8.6875 0.359375 C 6.394531 0.359375 4.625 -0.460938 3.375 -2.109375 C 2.132812 -3.765625 1.515625 -6.078125 1.515625 -9.046875 Z M 6.34375 -9.046875 C 6.34375 -7.359375 6.664062 -6.066406 7.3125 -5.171875 C 7.96875 -4.285156 8.910156 -3.84375 10.140625 -3.84375 C 11.367188 -3.84375 12.304688 -4.285156 12.953125 -5.171875 C 13.609375 -6.066406 13.9375 -7.359375 13.9375 -9.046875 C 13.9375 -10.765625 13.609375 -12.0625 12.953125 -12.9375 C 12.304688 -13.820312 11.367188 -14.265625 10.140625 -14.265625 C 8.910156 -14.265625 7.96875 -13.820312 7.3125 -12.9375 C 6.664062 -12.0625 6.34375 -10.765625 6.34375 -9.046875 Z M 6.34375 -9.046875 "/></g></g><g style="fill:#023047;fill-opacity:1;"><g transform="translate(218.815672, 71.251882)"><path style="stroke:none" d="M 10.578125 -14.265625 C 9.222656 -14.265625 8.171875 -13.804688 7.421875 -12.890625 C 6.671875 -11.972656 6.296875 -10.691406 6.296875 -9.046875 C 6.296875 -7.410156 6.671875 -6.132812 7.421875 -5.21875 C 8.171875 -4.300781 9.222656 -3.84375 10.578125 -3.84375 C 11.929688 -3.84375 12.988281 -4.300781 13.75 -5.21875 C 14.507812 -6.132812 14.890625 -7.410156 14.890625 -9.046875 C 14.890625 -10.691406 14.507812 -11.972656 13.75 -12.890625 C 12.988281 -13.804688 11.929688 -14.265625 10.578125 -14.265625 Z M 10.578125 -18.46875 C 12.503906 -18.46875 14.144531 -18.078125 15.5 -17.296875 C 16.851562 -16.515625 17.890625 -15.414062 18.609375 -14 C 19.335938 -12.582031 19.703125 -10.929688 19.703125 -9.046875 C 19.703125 -7.191406 19.335938 -5.550781 18.609375 -4.125 C 17.890625 -2.695312 16.851562 -1.59375 15.5 -0.8125 C 14.144531 -0.03125 12.503906 0.359375 10.578125 0.359375 C 8.671875 0.359375 7.035156 -0.03125 5.671875 -0.8125 C 4.304688 -1.59375 3.265625 -2.695312 2.546875 -4.125 C 1.835938 -5.550781 1.484375 -7.191406 1.484375 -9.046875 C 1.484375 -10.929688 1.835938 -12.582031 2.546875 -14 C 3.265625 -15.414062 4.304688 -16.515625 5.671875 -17.296875 C 7.035156 -18.078125 8.671875 -18.46875 10.578125 -18.46875 Z M 10.578125 -18.46875 "/></g></g><g style="fill:#4caf50;fill-opacity:1;"><g transform="translate(114.284214, 114.87138)"><path style="stroke:none" d="M 11.484375 -9.53125 C 10.804688 -9.53125 10.3125 -9.539062 10 -9.5625 C 9.03125 -5.164062 8.546875 -2.21875 8.546875 -0.71875 C 7.191406 -0.09375 5.414062 0.21875 3.21875 0.21875 C 2.613281 0.21875 2.035156 0.179688 1.484375 0.109375 C 1.484375 -1.410156 2.144531 -4.941406 3.46875 -10.484375 C 4.800781 -16.023438 5.46875 -19.460938 5.46875 -20.796875 C 5.46875 -21.203125 5.328125 -21.671875 5.046875 -22.203125 C 4.773438 -22.734375 4.492188 -23.15625 4.203125 -23.46875 L 3.796875 -23.984375 L 3.953125 -24.84375 C 4.867188 -25.007812 6.414062 -25.195312 8.59375 -25.40625 C 10.78125 -25.613281 12.789062 -25.71875 14.625 -25.71875 C 17.332031 -25.71875 19.335938 -25.160156 20.640625 -24.046875 C 21.941406 -22.941406 22.59375 -21.445312 22.59375 -19.5625 C 22.59375 -16.632812 21.65625 -14.226562 19.78125 -12.34375 C 17.914062 -10.46875 15.148438 -9.53125 11.484375 -9.53125 Z M 11.40625 -12.640625 C 12.757812 -12.640625 13.800781 -13.410156 14.53125 -14.953125 C 15.269531 -16.503906 15.640625 -18.363281 15.640625 -20.53125 C 15.640625 -22.300781 15.0625 -23.1875 13.90625 -23.1875 L 12.75 -23.03125 C 12.75 -22.09375 12.070312 -18.628906 10.71875 -12.640625 Z M 11.40625 -12.640625 "/></g></g><g style="fill:#4caf50;fill-opacity:1;"><g transform="translate(135.397148, 114.87138)"><path style="stroke:none" d="M 6.8125 0.4375 C 4.925781 0.4375 3.4375 -0.160156 2.34375 -1.359375 C 1.257812 -2.554688 0.71875 -4.238281 0.71875 -6.40625 C 0.71875 -9.0625 1.503906 -11.3125 3.078125 -13.15625 C 4.648438 -15.007812 6.710938 -15.9375 9.265625 -15.9375 L 10.90625 -15.796875 C 11.476562 -15.960938 12.019531 -16.046875 12.53125 -16.046875 C 13.738281 -16.046875 14.601562 -15.632812 15.125 -14.8125 C 15.644531 -13.988281 15.941406 -12.816406 16.015625 -11.296875 C 17.023438 -11.347656 17.988281 -11.503906 18.90625 -11.765625 L 19.40625 -11.921875 C 19.582031 -11.742188 19.707031 -11.234375 19.78125 -10.390625 L 19.8125 -10 C 18.726562 -9.4375 17.398438 -9 15.828125 -8.6875 C 15.296875 -6.132812 14.242188 -3.972656 12.671875 -2.203125 C 11.109375 -0.441406 9.15625 0.4375 6.8125 0.4375 Z M 7.53125 -6.5625 C 7.53125 -4.3125 8.097656 -3.1875 9.234375 -3.1875 C 10.035156 -3.1875 10.851562 -3.691406 11.6875 -4.703125 C 12.519531 -5.722656 13.09375 -6.957031 13.40625 -8.40625 C 10.9375 -8.40625 9.703125 -9.585938 9.703125 -11.953125 C 9.703125 -12.359375 9.738281 -12.78125 9.8125 -13.21875 C 9.570312 -13.21875 9.390625 -13.179688 9.265625 -13.109375 C 8.859375 -12.671875 8.46875 -11.796875 8.09375 -10.484375 C 7.71875 -9.171875 7.53125 -7.863281 7.53125 -6.5625 Z M 7.53125 -6.5625 "/></g></g><g style="fill:#4caf50;fill-opacity:1;"><g transform="translate(151.548717, 114.87138)"><path style="stroke:none" d="M 13.65625 0.4375 C 12.15625 0.4375 11.1875 -0.140625 10.75 -1.296875 C 8.914062 -0.140625 7.28125 0.4375 5.84375 0.4375 C 4.40625 0.4375 3.242188 -0.0507812 2.359375 -1.03125 C 1.484375 -2.007812 1.046875 -3.597656 1.046875 -5.796875 C 1.046875 -8.671875 1.773438 -11.097656 3.234375 -13.078125 C 4.703125 -15.054688 6.59375 -16.046875 8.90625 -16.046875 C 10.039062 -16.046875 11.175781 -15.78125 12.3125 -15.25 C 13.207031 -19.332031 13.65625 -22.265625 13.65625 -24.046875 C 13.65625 -24.578125 13.617188 -25.109375 13.546875 -25.640625 C 15.796875 -26.265625 17.957031 -26.578125 20.03125 -26.578125 C 20.21875 -26.265625 20.3125 -25.519531 20.3125 -24.34375 C 20.3125 -23.175781 19.757812 -20.035156 18.65625 -14.921875 C 17.5625 -9.804688 17.015625 -6.378906 17.015625 -4.640625 C 17.015625 -3.722656 17.175781 -3.265625 17.5 -3.265625 L 19.046875 -3.765625 L 19.703125 -1.921875 C 17.578125 -0.347656 15.5625 0.4375 13.65625 0.4375 Z M 8.90625 -3.21875 C 9.34375 -3.21875 9.828125 -3.363281 10.359375 -3.65625 L 10.359375 -3.6875 C 10.453125 -5.644531 10.921875 -8.726562 11.765625 -12.9375 C 11.285156 -13.070312 10.9375 -13.140625 10.71875 -13.140625 C 10.207031 -13.140625 9.757812 -12.882812 9.375 -12.375 C 8.988281 -11.875 8.6875 -11.226562 8.46875 -10.4375 C 8.0625 -8.789062 7.859375 -7.175781 7.859375 -5.59375 C 7.859375 -4.007812 8.207031 -3.21875 8.90625 -3.21875 Z M 8.90625 -3.21875 "/></g></g><g style="fill:#4caf50;fill-opacity:1;"><g transform="translate(171.176858, 114.87138)"><path style="stroke:none" d="M 0.71875 -6.5625 C 0.71875 -9.550781 1.628906 -11.878906 3.453125 -13.546875 C 5.273438 -15.210938 7.53125 -16.046875 10.21875 -16.046875 C 12.070312 -16.046875 13.5625 -15.640625 14.6875 -14.828125 C 15.8125 -14.023438 16.375 -12.945312 16.375 -11.59375 C 16.375 -10.601562 16.070312 -9.71875 15.46875 -8.9375 C 14.863281 -8.164062 14.125 -7.578125 13.25 -7.171875 C 11.414062 -6.347656 9.820312 -5.851562 8.46875 -5.6875 L 7.5625 -5.578125 C 7.832031 -3.984375 8.628906 -3.1875 9.953125 -3.1875 C 10.535156 -3.1875 11.175781 -3.3125 11.875 -3.5625 C 12.582031 -3.820312 13.140625 -4.082031 13.546875 -4.34375 L 14.15625 -4.703125 L 15.328125 -3.15625 C 15.328125 -3.15625 15.191406 -3.019531 14.921875 -2.75 C 14.773438 -2.601562 14.429688 -2.316406 13.890625 -1.890625 C 13.347656 -1.472656 12.78125 -1.109375 12.1875 -0.796875 C 11.59375 -0.484375 10.835938 -0.203125 9.921875 0.046875 C 9.003906 0.304688 8.085938 0.4375 7.171875 0.4375 C 5.117188 0.4375 3.53125 -0.160156 2.40625 -1.359375 C 1.28125 -2.554688 0.71875 -4.289062 0.71875 -6.5625 Z M 7.421875 -7.96875 C 8.117188 -8.0625 8.816406 -8.632812 9.515625 -9.6875 C 10.222656 -10.738281 10.578125 -11.617188 10.578125 -12.328125 C 10.578125 -13.046875 10.367188 -13.40625 9.953125 -13.40625 C 9.347656 -13.40625 8.789062 -12.929688 8.28125 -11.984375 C 7.78125 -11.046875 7.492188 -9.707031 7.421875 -7.96875 Z M 7.421875 -7.96875 "/></g></g><g style="fill:#4caf50;fill-opacity:1;"><g transform="translate(186.966285, 114.87138)"><path style="stroke:none" d="M 9.5625 -10.25 C 9.5625 -10.007812 9.816406 -9.804688 10.328125 -9.640625 C 10.398438 -9.609375 10.523438 -9.554688 10.703125 -9.484375 C 10.878906 -9.410156 11.035156 -9.351562 11.171875 -9.3125 C 11.304688 -9.28125 11.410156 -9.253906 11.484375 -9.234375 C 11.316406 -8.484375 11.035156 -7.84375 10.640625 -7.3125 C 8.546875 -7.3125 6.863281 -7.679688 5.59375 -8.421875 C 4.320312 -9.160156 3.6875 -10.226562 3.6875 -11.625 C 3.6875 -12.519531 4.148438 -13.582031 5.078125 -14.8125 C 5.410156 -15.25 5.890625 -15.851562 6.515625 -16.625 C 8.953125 -19.613281 10.171875 -21.535156 10.171875 -22.390625 C 10.171875 -22.816406 9.785156 -23.03125 9.015625 -23.03125 C 8.023438 -21.289062 7.082031 -20 6.1875 -19.15625 C 5.34375 -19.28125 4.394531 -19.769531 3.34375 -20.625 C 2.300781 -21.476562 1.78125 -22.148438 1.78125 -22.640625 C 1.78125 -23.140625 2.332031 -23.773438 3.4375 -24.546875 C 4.550781 -25.328125 5.867188 -25.71875 7.390625 -25.71875 C 9.679688 -25.71875 11.492188 -25.128906 12.828125 -23.953125 C 14.171875 -22.785156 14.84375 -21.296875 14.84375 -19.484375 C 14.84375 -18.765625 14.644531 -17.972656 14.25 -17.109375 C 13.851562 -16.253906 13.488281 -15.597656 13.15625 -15.140625 C 12.832031 -14.679688 12.347656 -14.066406 11.703125 -13.296875 C 10.273438 -11.722656 9.5625 -10.707031 9.5625 -10.25 Z M 5.9375 0.4375 C 4.875 0.4375 4.046875 0.171875 3.453125 -0.359375 C 2.867188 -0.890625 2.578125 -1.585938 2.578125 -2.453125 C 2.578125 -3.328125 2.96875 -4.078125 3.75 -4.703125 C 4.53125 -5.335938 5.457031 -5.65625 6.53125 -5.65625 C 7.613281 -5.65625 8.40625 -5.390625 8.90625 -4.859375 C 9.414062 -4.328125 9.671875 -3.648438 9.671875 -2.828125 C 9.671875 -2.003906 9.3125 -1.253906 8.59375 -0.578125 C 7.882812 0.0976562 7 0.4375 5.9375 0.4375 Z M 5.9375 0.4375 "/></g></g><path style=" stroke:none;fill-rule:nonzero;fill:#023047;fill-opacity:1;" d="M 26.738281 46.75 L 63.292969 46.75 C 63.632812 46.75 63.90625 46.476562 63.90625 46.140625 L 63.90625 44.304688 C 63.90625 43.96875 63.632812 43.695312 63.292969 43.695312 L 26.738281 43.695312 C 26.402344 43.695312 26.128906 43.96875 26.128906 44.304688 L 26.128906 46.140625 C 26.128906 46.476562 26.402344 46.75 26.738281 46.75 "/><g clip-rule="nonzero" clip-path="url(#aff568bb75)"><path style=" stroke:none;fill-rule:nonzero;fill:#023047;fill-opacity:1;" d="M 80.523438 117.484375 L 10.050781 117.484375 C 6.480469 117.484375 3.589844 114.59375 3.589844 111.023438 L 3.589844 68.011719 L 86.984375 68.011719 L 86.984375 111.023438 C 86.984375 114.59375 84.089844 117.484375 80.523438 117.484375 Z M 80.523438 43.695312 L 73.6875 43.695312 C 73.347656 43.695312 73.074219 43.96875 73.074219 44.304688 L 73.074219 46.140625 C 73.074219 46.476562 73.347656 46.75 73.6875 46.75 L 80.523438 46.75 C 84.085938 46.75 86.984375 49.648438 86.984375 53.21875 L 86.984375 64.957031 L 3.589844 64.957031 L 3.589844 53.21875 C 3.589844 49.648438 6.488281 46.75 10.050781 46.75 L 16.347656 46.75 C 16.683594 46.75 16.957031 46.476562 16.957031 46.140625 L 16.957031 44.304688 C 16.957031 43.96875 16.683594 43.695312 16.347656 43.695312 L 10.050781 43.695312 C 4.804688 43.695312 0.53125 47.96875 0.53125 53.21875 L 0.53125 111.023438 C 0.53125 116.257812 4.816406 120.542969 10.050781 120.542969 L 80.523438 120.542969 C 85.757812 120.542969 90.039062 116.257812 90.039062 111.023438 L 90.039062 53.21875 C 90.039062 47.96875 85.765625 43.695312 80.523438 43.695312 "/></g><g clip-rule="nonzero" clip-path="url(#1551f5e4c3)"><path style=" stroke:none;fill-rule:nonzero;fill:#023047;fill-opacity:1;" d="M 21.542969 54.191406 C 23.058594 54.191406 24.292969 52.960938 24.292969 51.441406 L 24.292969 40.515625 C 24.292969 38.992188 23.058594 37.765625 21.542969 37.765625 C 20.019531 37.765625 18.792969 38.992188 18.792969 40.515625 L 18.792969 51.441406 C 18.792969 52.960938 20.019531 54.191406 21.542969 54.191406 "/></g><g clip-rule="nonzero" clip-path="url(#b0b3f56f8d)"><path style=" stroke:none;fill-rule:nonzero;fill:#023047;fill-opacity:1;" d="M 68.492188 53.4375 C 70.007812 53.4375 71.242188 52.203125 71.242188 50.6875 L 71.242188 39.757812 C 71.242188 38.242188 70.007812 37.007812 68.492188 37.007812 C 66.96875 37.007812 65.742188 38.242188 65.742188 39.757812 L 65.742188 50.6875 C 65.742188 52.203125 66.96875 53.4375 68.492188 53.4375 "/></g><g style="fill:#023047;fill-opacity:1;"><g transform="translate(18.558351, 78.720967)"><path style="stroke:none" d="M 1.09375 0.1875 C 0.914062 0.1875 0.769531 0.140625 0.65625 0.046875 C 0.539062 -0.046875 0.472656 -0.191406 0.453125 -0.390625 C 0.429688 -0.585938 0.476562 -0.835938 0.59375 -1.140625 C 0.71875 -1.460938 0.894531 -1.816406 1.125 -2.203125 C 1.351562 -2.597656 1.632812 -3.003906 1.96875 -3.421875 C 2.300781 -3.835938 2.671875 -4.242188 3.078125 -4.640625 C 3.492188 -5.035156 3.929688 -5.390625 4.390625 -5.703125 C 4.566406 -5.828125 4.726562 -5.921875 4.875 -5.984375 C 5.019531 -6.054688 5.15625 -6.109375 5.28125 -6.140625 C 5.414062 -6.179688 5.535156 -6.203125 5.640625 -6.203125 C 5.867188 -6.203125 6.0625 -6.125 6.21875 -5.96875 C 6.375 -5.8125 6.453125 -5.59375 6.453125 -5.3125 C 6.453125 -5.125 6.398438 -4.960938 6.296875 -4.828125 C 6.203125 -4.703125 6.082031 -4.59375 5.9375 -4.5 C 5.40625 -4.1875 4.910156 -3.816406 4.453125 -3.390625 C 4.003906 -2.972656 3.585938 -2.515625 3.203125 -2.015625 C 2.816406 -1.523438 2.453125 -1.019531 2.109375 -0.5 C 1.953125 -0.25 1.789062 -0.0703125 1.625 0.03125 C 1.457031 0.132812 1.28125 0.1875 1.09375 0.1875 Z M 5.734375 0.171875 C 5.535156 0.171875 5.347656 0.125 5.171875 0.03125 C 5.003906 -0.0625 4.828125 -0.242188 4.640625 -0.515625 C 4.429688 -0.828125 4.179688 -1.15625 3.890625 -1.5 C 3.597656 -1.851562 3.285156 -2.203125 2.953125 -2.546875 C 2.628906 -2.890625 2.304688 -3.21875 1.984375 -3.53125 C 1.660156 -3.84375 1.351562 -4.109375 1.0625 -4.328125 C 0.875 -4.492188 0.71875 -4.644531 0.59375 -4.78125 C 0.476562 -4.925781 0.421875 -5.113281 0.421875 -5.34375 C 0.421875 -5.582031 0.484375 -5.785156 0.609375 -5.953125 C 0.734375 -6.117188 0.914062 -6.203125 1.15625 -6.203125 C 1.3125 -6.203125 1.460938 -6.164062 1.609375 -6.09375 C 1.753906 -6.019531 1.945312 -5.890625 2.1875 -5.703125 C 2.34375 -5.578125 2.550781 -5.390625 2.8125 -5.140625 C 3.070312 -4.890625 3.347656 -4.609375 3.640625 -4.296875 C 3.941406 -3.992188 4.238281 -3.675781 4.53125 -3.34375 C 4.832031 -3.019531 5.109375 -2.710938 5.359375 -2.421875 C 5.609375 -2.128906 5.800781 -1.875 5.9375 -1.65625 C 6.1875 -1.3125 6.34375 -1.050781 6.40625 -0.875 C 6.476562 -0.695312 6.515625 -0.550781 6.515625 -0.4375 C 6.515625 -0.238281 6.441406 -0.0859375 6.296875 0.015625 C 6.160156 0.117188 5.972656 0.171875 5.734375 0.171875 Z M 5.734375 0.171875 "/></g></g><g style="fill:#023047;fill-opacity:1;"><g transform="translate(18.558351, 95.129299)"><path style="stroke:none" d="M 1.09375 0.1875 C 0.914062 0.1875 0.769531 0.140625 0.65625 0.046875 C 0.539062 -0.046875 0.472656 -0.191406 0.453125 -0.390625 C 0.429688 -0.585938 0.476562 -0.835938 0.59375 -1.140625 C 0.71875 -1.460938 0.894531 -1.816406 1.125 -2.203125 C 1.351562 -2.597656 1.632812 -3.003906 1.96875 -3.421875 C 2.300781 -3.835938 2.671875 -4.242188 3.078125 -4.640625 C 3.492188 -5.035156 3.929688 -5.390625 4.390625 -5.703125 C 4.566406 -5.828125 4.726562 -5.921875 4.875 -5.984375 C 5.019531 -6.054688 5.15625 -6.109375 5.28125 -6.140625 C 5.414062 -6.179688 5.535156 -6.203125 5.640625 -6.203125 C 5.867188 -6.203125 6.0625 -6.125 6.21875 -5.96875 C 6.375 -5.8125 6.453125 -5.59375 6.453125 -5.3125 C 6.453125 -5.125 6.398438 -4.960938 6.296875 -4.828125 C 6.203125 -4.703125 6.082031 -4.59375 5.9375 -4.5 C 5.40625 -4.1875 4.910156 -3.816406 4.453125 -3.390625 C 4.003906 -2.972656 3.585938 -2.515625 3.203125 -2.015625 C 2.816406 -1.523438 2.453125 -1.019531 2.109375 -0.5 C 1.953125 -0.25 1.789062 -0.0703125 1.625 0.03125 C 1.457031 0.132812 1.28125 0.1875 1.09375 0.1875 Z M 5.734375 0.171875 C 5.535156 0.171875 5.347656 0.125 5.171875 0.03125 C 5.003906 -0.0625 4.828125 -0.242188 4.640625 -0.515625 C 4.429688 -0.828125 4.179688 -1.15625 3.890625 -1.5 C 3.597656 -1.851562 3.285156 -2.203125 2.953125 -2.546875 C 2.628906 -2.890625 2.304688 -3.21875 1.984375 -3.53125 C 1.660156 -3.84375 1.351562 -4.109375 1.0625 -4.328125 C 0.875 -4.492188 0.71875 -4.644531 0.59375 -4.78125 C 0.476562 -4.925781 0.421875 -5.113281 0.421875 -5.34375 C 0.421875 -5.582031 0.484375 -5.785156 0.609375 -5.953125 C 0.734375 -6.117188 0.914062 -6.203125 1.15625 -6.203125 C 1.3125 -6.203125 1.460938 -6.164062 1.609375 -6.09375 C 1.753906 -6.019531 1.945312 -5.890625 2.1875 -5.703125 C 2.34375 -5.578125 2.550781 -5.390625 2.8125 -5.140625 C 3.070312 -4.890625 3.347656 -4.609375 3.640625 -4.296875 C 3.941406 -3.992188 4.238281 -3.675781 4.53125 -3.34375 C 4.832031 -3.019531 5.109375 -2.710938 5.359375 -2.421875 C 5.609375 -2.128906 5.800781 -1.875 5.9375 -1.65625 C 6.1875 -1.3125 6.34375 -1.050781 6.40625 -0.875 C 6.476562 -0.695312 6.515625 -0.550781 6.515625 -0.4375 C 6.515625 -0.238281 6.441406 -0.0859375 6.296875 0.015625 C 6.160156 0.117188 5.972656 0.171875 5.734375 0.171875 Z M 5.734375 0.171875 "/></g></g><g style="fill:#023047;fill-opacity:1;"><g transform="translate(18.558351, 111.537631)"><path style="stroke:none" d="M 1.09375 0.1875 C 0.914062 0.1875 0.769531 0.140625 0.65625 0.046875 C 0.539062 -0.046875 0.472656 -0.191406 0.453125 -0.390625 C 0.429688 -0.585938 0.476562 -0.835938 0.59375 -1.140625 C 0.71875 -1.460938 0.894531 -1.816406 1.125 -2.203125 C 1.351562 -2.597656 1.632812 -3.003906 1.96875 -3.421875 C 2.300781 -3.835938 2.671875 -4.242188 3.078125 -4.640625 C 3.492188 -5.035156 3.929688 -5.390625 4.390625 -5.703125 C 4.566406 -5.828125 4.726562 -5.921875 4.875 -5.984375 C 5.019531 -6.054688 5.15625 -6.109375 5.28125 -6.140625 C 5.414062 -6.179688 5.535156 -6.203125 5.640625 -6.203125 C 5.867188 -6.203125 6.0625 -6.125 6.21875 -5.96875 C 6.375 -5.8125 6.453125 -5.59375 6.453125 -5.3125 C 6.453125 -5.125 6.398438 -4.960938 6.296875 -4.828125 C 6.203125 -4.703125 6.082031 -4.59375 5.9375 -4.5 C 5.40625 -4.1875 4.910156 -3.816406 4.453125 -3.390625 C 4.003906 -2.972656 3.585938 -2.515625 3.203125 -2.015625 C 2.816406 -1.523438 2.453125 -1.019531 2.109375 -0.5 C 1.953125 -0.25 1.789062 -0.0703125 1.625 0.03125 C 1.457031 0.132812 1.28125 0.1875 1.09375 0.1875 Z M 5.734375 0.171875 C 5.535156 0.171875 5.347656 0.125 5.171875 0.03125 C 5.003906 -0.0625 4.828125 -0.242188 4.640625 -0.515625 C 4.429688 -0.828125 4.179688 -1.15625 3.890625 -1.5 C 3.597656 -1.851562 3.285156 -2.203125 2.953125 -2.546875 C 2.628906 -2.890625 2.304688 -3.21875 1.984375 -3.53125 C 1.660156 -3.84375 1.351562 -4.109375 1.0625 -4.328125 C 0.875 -4.492188 0.71875 -4.644531 0.59375 -4.78125 C 0.476562 -4.925781 0.421875 -5.113281 0.421875 -5.34375 C 0.421875 -5.582031 0.484375 -5.785156 0.609375 -5.953125 C 0.734375 -6.117188 0.914062 -6.203125 1.15625 -6.203125 C 1.3125 -6.203125 1.460938 -6.164062 1.609375 -6.09375 C 1.753906 -6.019531 1.945312 -5.890625 2.1875 -5.703125 C 2.34375 -5.578125 2.550781 -5.390625 2.8125 -5.140625 C 3.070312 -4.890625 3.347656 -4.609375 3.640625 -4.296875 C 3.941406 -3.992188 4.238281 -3.675781 4.53125 -3.34375 C 4.832031 -3.019531 5.109375 -2.710938 5.359375 -2.421875 C 5.609375 -2.128906 5.800781 -1.875 5.9375 -1.65625 C 6.1875 -1.3125 6.34375 -1.050781 6.40625 -0.875 C 6.476562 -0.695312 6.515625 -0.550781 6.515625 -0.4375 C 6.515625 -0.238281 6.441406 -0.0859375 6.296875 0.015625 C 6.160156 0.117188 5.972656 0.171875 5.734375 0.171875 Z M 5.734375 0.171875 "/></g></g><g style="fill:#023047;fill-opacity:1;"><g transform="translate(34.917995, 78.720967)"><path style="stroke:none" d="M 1.09375 0.1875 C 0.914062 0.1875 0.769531 0.140625 0.65625 0.046875 C 0.539062 -0.046875 0.472656 -0.191406 0.453125 -0.390625 C 0.429688 -0.585938 0.476562 -0.835938 0.59375 -1.140625 C 0.71875 -1.460938 0.894531 -1.816406 1.125 -2.203125 C 1.351562 -2.597656 1.632812 -3.003906 1.96875 -3.421875 C 2.300781 -3.835938 2.671875 -4.242188 3.078125 -4.640625 C 3.492188 -5.035156 3.929688 -5.390625 4.390625 -5.703125 C 4.566406 -5.828125 4.726562 -5.921875 4.875 -5.984375 C 5.019531 -6.054688 5.15625 -6.109375 5.28125 -6.140625 C 5.414062 -6.179688 5.535156 -6.203125 5.640625 -6.203125 C 5.867188 -6.203125 6.0625 -6.125 6.21875 -5.96875 C 6.375 -5.8125 6.453125 -5.59375 6.453125 -5.3125 C 6.453125 -5.125 6.398438 -4.960938 6.296875 -4.828125 C 6.203125 -4.703125 6.082031 -4.59375 5.9375 -4.5 C 5.40625 -4.1875 4.910156 -3.816406 4.453125 -3.390625 C 4.003906 -2.972656 3.585938 -2.515625 3.203125 -2.015625 C 2.816406 -1.523438 2.453125 -1.019531 2.109375 -0.5 C 1.953125 -0.25 1.789062 -0.0703125 1.625 0.03125 C 1.457031 0.132812 1.28125 0.1875 1.09375 0.1875 Z M 5.734375 0.171875 C 5.535156 0.171875 5.347656 0.125 5.171875 0.03125 C 5.003906 -0.0625 4.828125 -0.242188 4.640625 -0.515625 C 4.429688 -0.828125 4.179688 -1.15625 3.890625 -1.5 C 3.597656 -1.851562 3.285156 -2.203125 2.953125 -2.546875 C 2.628906 -2.890625 2.304688 -3.21875 1.984375 -3.53125 C 1.660156 -3.84375 1.351562 -4.109375 1.0625 -4.328125 C 0.875 -4.492188 0.71875 -4.644531 0.59375 -4.78125 C 0.476562 -4.925781 0.421875 -5.113281 0.421875 -5.34375 C 0.421875 -5.582031 0.484375 -5.785156 0.609375 -5.953125 C 0.734375 -6.117188 0.914062 -6.203125 1.15625 -6.203125 C 1.3125 -6.203125 1.460938 -6.164062 1.609375 -6.09375 C 1.753906 -6.019531 1.945312 -5.890625 2.1875 -5.703125 C 2.34375 -5.578125 2.550781 -5.390625 2.8125 -5.140625 C 3.070312 -4.890625 3.347656 -4.609375 3.640625 -4.296875 C 3.941406 -3.992188 4.238281 -3.675781 4.53125 -3.34375 C 4.832031 -3.019531 5.109375 -2.710938 5.359375 -2.421875 C 5.609375 -2.128906 5.800781 -1.875 5.9375 -1.65625 C 6.1875 -1.3125 6.34375 -1.050781 6.40625 -0.875 C 6.476562 -0.695312 6.515625 -0.550781 6.515625 -0.4375 C 6.515625 -0.238281 6.441406 -0.0859375 6.296875 0.015625 C 6.160156 0.117188 5.972656 0.171875 5.734375 0.171875 Z M 5.734375 0.171875 "/></g></g><g style="fill:#023047;fill-opacity:1;"><g transform="translate(34.917995, 95.129299)"><path style="stroke:none" d="M 1.09375 0.1875 C 0.914062 0.1875 0.769531 0.140625 0.65625 0.046875 C 0.539062 -0.046875 0.472656 -0.191406 0.453125 -0.390625 C 0.429688 -0.585938 0.476562 -0.835938 0.59375 -1.140625 C 0.71875 -1.460938 0.894531 -1.816406 1.125 -2.203125 C 1.351562 -2.597656 1.632812 -3.003906 1.96875 -3.421875 C 2.300781 -3.835938 2.671875 -4.242188 3.078125 -4.640625 C 3.492188 -5.035156 3.929688 -5.390625 4.390625 -5.703125 C 4.566406 -5.828125 4.726562 -5.921875 4.875 -5.984375 C 5.019531 -6.054688 5.15625 -6.109375 5.28125 -6.140625 C 5.414062 -6.179688 5.535156 -6.203125 5.640625 -6.203125 C 5.867188 -6.203125 6.0625 -6.125 6.21875 -5.96875 C 6.375 -5.8125 6.453125 -5.59375 6.453125 -5.3125 C 6.453125 -5.125 6.398438 -4.960938 6.296875 -4.828125 C 6.203125 -4.703125 6.082031 -4.59375 5.9375 -4.5 C 5.40625 -4.1875 4.910156 -3.816406 4.453125 -3.390625 C 4.003906 -2.972656 3.585938 -2.515625 3.203125 -2.015625 C 2.816406 -1.523438 2.453125 -1.019531 2.109375 -0.5 C 1.953125 -0.25 1.789062 -0.0703125 1.625 0.03125 C 1.457031 0.132812 1.28125 0.1875 1.09375 0.1875 Z M 5.734375 0.171875 C 5.535156 0.171875 5.347656 0.125 5.171875 0.03125 C 5.003906 -0.0625 4.828125 -0.242188 4.640625 -0.515625 C 4.429688 -0.828125 4.179688 -1.15625 3.890625 -1.5 C 3.597656 -1.851562 3.285156 -2.203125 2.953125 -2.546875 C 2.628906 -2.890625 2.304688 -3.21875 1.984375 -3.53125 C 1.660156 -3.84375 1.351562 -4.109375 1.0625 -4.328125 C 0.875 -4.492188 0.71875 -4.644531 0.59375 -4.78125 C 0.476562 -4.925781 0.421875 -5.113281 0.421875 -5.34375 C 0.421875 -5.582031 0.484375 -5.785156 0.609375 -5.953125 C 0.734375 -6.117188 0.914062 -6.203125 1.15625 -6.203125 C 1.3125 -6.203125 1.460938 -6.164062 1.609375 -6.09375 C 1.753906 -6.019531 1.945312 -5.890625 2.1875 -5.703125 C 2.34375 -5.578125 2.550781 -5.390625 2.8125 -5.140625 C 3.070312 -4.890625 3.347656 -4.609375 3.640625 -4.296875 C 3.941406 -3.992188 4.238281 -3.675781 4.53125 -3.34375 C 4.832031 -3.019531 5.109375 -2.710938 5.359375 -2.421875 C 5.609375 -2.128906 5.800781 -1.875 5.9375 -1.65625 C 6.1875 -1.3125 6.34375 -1.050781 6.40625 -0.875 C 6.476562 -0.695312 6.515625 -0.550781 6.515625 -0.4375 C 6.515625 -0.238281 6.441406 -0.0859375 6.296875 0.015625 C 6.160156 0.117188 5.972656 0.171875 5.734375 0.171875 Z M 5.734375 0.171875 "/></g></g><g style="fill:#023047;fill-opacity:1;"><g transform="translate(34.917995, 111.537631)"><path style="stroke:none" d="M 1.09375 0.1875 C 0.914062 0.1875 0.769531 0.140625 0.65625 0.046875 C 0.539062 -0.046875 0.472656 -0.191406 0.453125 -0.390625 C 0.429688 -0.585938 0.476562 -0.835938 0.59375 -1.140625 C 0.71875 -1.460938 0.894531 -1.816406 1.125 -2.203125 C 1.351562 -2.597656 1.632812 -3.003906 1.96875 -3.421875 C 2.300781 -3.835938 2.671875 -4.242188 3.078125 -4.640625 C 3.492188 -5.035156 3.929688 -5.390625 4.390625 -5.703125 C 4.566406 -5.828125 4.726562 -5.921875 4.875 -5.984375 C 5.019531 -6.054688 5.15625 -6.109375 5.28125 -6.140625 C 5.414062 -6.179688 5.535156 -6.203125 5.640625 -6.203125 C 5.867188 -6.203125 6.0625 -6.125 6.21875 -5.96875 C 6.375 -5.8125 6.453125 -5.59375 6.453125 -5.3125 C 6.453125 -5.125 6.398438 -4.960938 6.296875 -4.828125 C 6.203125 -4.703125 6.082031 -4.59375 5.9375 -4.5 C 5.40625 -4.1875 4.910156 -3.816406 4.453125 -3.390625 C 4.003906 -2.972656 3.585938 -2.515625 3.203125 -2.015625 C 2.816406 -1.523438 2.453125 -1.019531 2.109375 -0.5 C 1.953125 -0.25 1.789062 -0.0703125 1.625 0.03125 C 1.457031 0.132812 1.28125 0.1875 1.09375 0.1875 Z M 5.734375 0.171875 C 5.535156 0.171875 5.347656 0.125 5.171875 0.03125 C 5.003906 -0.0625 4.828125 -0.242188 4.640625 -0.515625 C 4.429688 -0.828125 4.179688 -1.15625 3.890625 -1.5 C 3.597656 -1.851562 3.285156 -2.203125 2.953125 -2.546875 C 2.628906 -2.890625 2.304688 -3.21875 1.984375 -3.53125 C 1.660156 -3.84375 1.351562 -4.109375 1.0625 -4.328125 C 0.875 -4.492188 0.71875 -4.644531 0.59375 -4.78125 C 0.476562 -4.925781 0.421875 -5.113281 0.421875 -5.34375 C 0.421875 -5.582031 0.484375 -5.785156 0.609375 -5.953125 C 0.734375 -6.117188 0.914062 -6.203125 1.15625 -6.203125 C 1.3125 -6.203125 1.460938 -6.164062 1.609375 -6.09375 C 1.753906 -6.019531 1.945312 -5.890625 2.1875 -5.703125 C 2.34375 -5.578125 2.550781 -5.390625 2.8125 -5.140625 C 3.070312 -4.890625 3.347656 -4.609375 3.640625 -4.296875 C 3.941406 -3.992188 4.238281 -3.675781 4.53125 -3.34375 C 4.832031 -3.019531 5.109375 -2.710938 5.359375 -2.421875 C 5.609375 -2.128906 5.800781 -1.875 5.9375 -1.65625 C 6.1875 -1.3125 6.34375 -1.050781 6.40625 -0.875 C 6.476562 -0.695312 6.515625 -0.550781 6.515625 -0.4375 C 6.515625 -0.238281 6.441406 -0.0859375 6.296875 0.015625 C 6.160156 0.117188 5.972656 0.171875 5.734375 0.171875 Z M 5.734375 0.171875 "/></g></g><g style="fill:#023047;fill-opacity:1;"><g transform="translate(50.021114, 78.720967)"><path style="stroke:none" d="M 1.09375 0.1875 C 0.914062 0.1875 0.769531 0.140625 0.65625 0.046875 C 0.539062 -0.046875 0.472656 -0.191406 0.453125 -0.390625 C 0.429688 -0.585938 0.476562 -0.835938 0.59375 -1.140625 C 0.71875 -1.460938 0.894531 -1.816406 1.125 -2.203125 C 1.351562 -2.597656 1.632812 -3.003906 1.96875 -3.421875 C 2.300781 -3.835938 2.671875 -4.242188 3.078125 -4.640625 C 3.492188 -5.035156 3.929688 -5.390625 4.390625 -5.703125 C 4.566406 -5.828125 4.726562 -5.921875 4.875 -5.984375 C 5.019531 -6.054688 5.15625 -6.109375 5.28125 -6.140625 C 5.414062 -6.179688 5.535156 -6.203125 5.640625 -6.203125 C 5.867188 -6.203125 6.0625 -6.125 6.21875 -5.96875 C 6.375 -5.8125 6.453125 -5.59375 6.453125 -5.3125 C 6.453125 -5.125 6.398438 -4.960938 6.296875 -4.828125 C 6.203125 -4.703125 6.082031 -4.59375 5.9375 -4.5 C 5.40625 -4.1875 4.910156 -3.816406 4.453125 -3.390625 C 4.003906 -2.972656 3.585938 -2.515625 3.203125 -2.015625 C 2.816406 -1.523438 2.453125 -1.019531 2.109375 -0.5 C 1.953125 -0.25 1.789062 -0.0703125 1.625 0.03125 C 1.457031 0.132812 1.28125 0.1875 1.09375 0.1875 Z M 5.734375 0.171875 C 5.535156 0.171875 5.347656 0.125 5.171875 0.03125 C 5.003906 -0.0625 4.828125 -0.242188 4.640625 -0.515625 C 4.429688 -0.828125 4.179688 -1.15625 3.890625 -1.5 C 3.597656 -1.851562 3.285156 -2.203125 2.953125 -2.546875 C 2.628906 -2.890625 2.304688 -3.21875 1.984375 -3.53125 C 1.660156 -3.84375 1.351562 -4.109375 1.0625 -4.328125 C 0.875 -4.492188 0.71875 -4.644531 0.59375 -4.78125 C 0.476562 -4.925781 0.421875 -5.113281 0.421875 -5.34375 C 0.421875 -5.582031 0.484375 -5.785156 0.609375 -5.953125 C 0.734375 -6.117188 0.914062 -6.203125 1.15625 -6.203125 C 1.3125 -6.203125 1.460938 -6.164062 1.609375 -6.09375 C 1.753906 -6.019531 1.945312 -5.890625 2.1875 -5.703125 C 2.34375 -5.578125 2.550781 -5.390625 2.8125 -5.140625 C 3.070312 -4.890625 3.347656 -4.609375 3.640625 -4.296875 C 3.941406 -3.992188 4.238281 -3.675781 4.53125 -3.34375 C 4.832031 -3.019531 5.109375 -2.710938 5.359375 -2.421875 C 5.609375 -2.128906 5.800781 -1.875 5.9375 -1.65625 C 6.1875 -1.3125 6.34375 -1.050781 6.40625 -0.875 C 6.476562 -0.695312 6.515625 -0.550781 6.515625 -0.4375 C 6.515625 -0.238281 6.441406 -0.0859375 6.296875 0.015625 C 6.160156 0.117188 5.972656 0.171875 5.734375 0.171875 Z M 5.734375 0.171875 "/></g></g><g style="fill:#023047;fill-opacity:1;"><g transform="translate(67.489928, 78.720967)"><path style="stroke:none" d="M 1.09375 0.1875 C 0.914062 0.1875 0.769531 0.140625 0.65625 0.046875 C 0.539062 -0.046875 0.472656 -0.191406 0.453125 -0.390625 C 0.429688 -0.585938 0.476562 -0.835938 0.59375 -1.140625 C 0.71875 -1.460938 0.894531 -1.816406 1.125 -2.203125 C 1.351562 -2.597656 1.632812 -3.003906 1.96875 -3.421875 C 2.300781 -3.835938 2.671875 -4.242188 3.078125 -4.640625 C 3.492188 -5.035156 3.929688 -5.390625 4.390625 -5.703125 C 4.566406 -5.828125 4.726562 -5.921875 4.875 -5.984375 C 5.019531 -6.054688 5.15625 -6.109375 5.28125 -6.140625 C 5.414062 -6.179688 5.535156 -6.203125 5.640625 -6.203125 C 5.867188 -6.203125 6.0625 -6.125 6.21875 -5.96875 C 6.375 -5.8125 6.453125 -5.59375 6.453125 -5.3125 C 6.453125 -5.125 6.398438 -4.960938 6.296875 -4.828125 C 6.203125 -4.703125 6.082031 -4.59375 5.9375 -4.5 C 5.40625 -4.1875 4.910156 -3.816406 4.453125 -3.390625 C 4.003906 -2.972656 3.585938 -2.515625 3.203125 -2.015625 C 2.816406 -1.523438 2.453125 -1.019531 2.109375 -0.5 C 1.953125 -0.25 1.789062 -0.0703125 1.625 0.03125 C 1.457031 0.132812 1.28125 0.1875 1.09375 0.1875 Z M 5.734375 0.171875 C 5.535156 0.171875 5.347656 0.125 5.171875 0.03125 C 5.003906 -0.0625 4.828125 -0.242188 4.640625 -0.515625 C 4.429688 -0.828125 4.179688 -1.15625 3.890625 -1.5 C 3.597656 -1.851562 3.285156 -2.203125 2.953125 -2.546875 C 2.628906 -2.890625 2.304688 -3.21875 1.984375 -3.53125 C 1.660156 -3.84375 1.351562 -4.109375 1.0625 -4.328125 C 0.875 -4.492188 0.71875 -4.644531 0.59375 -4.78125 C 0.476562 -4.925781 0.421875 -5.113281 0.421875 -5.34375 C 0.421875 -5.582031 0.484375 -5.785156 0.609375 -5.953125 C 0.734375 -6.117188 0.914062 -6.203125 1.15625 -6.203125 C 1.3125 -6.203125 1.460938 -6.164062 1.609375 -6.09375 C 1.753906 -6.019531 1.945312 -5.890625 2.1875 -5.703125 C 2.34375 -5.578125 2.550781 -5.390625 2.8125 -5.140625 C 3.070312 -4.890625 3.347656 -4.609375 3.640625 -4.296875 C 3.941406 -3.992188 4.238281 -3.675781 4.53125 -3.34375 C 4.832031 -3.019531 5.109375 -2.710938 5.359375 -2.421875 C 5.609375 -2.128906 5.800781 -1.875 5.9375 -1.65625 C 6.1875 -1.3125 6.34375 -1.050781 6.40625 -0.875 C 6.476562 -0.695312 6.515625 -0.550781 6.515625 -0.4375 C 6.515625 -0.238281 6.441406 -0.0859375 6.296875 0.015625 C 6.160156 0.117188 5.972656 0.171875 5.734375 0.171875 Z M 5.734375 0.171875 "/></g></g><g style="fill:#023047;fill-opacity:1;"><g transform="translate(67.489928, 95.129299)"><path style="stroke:none" d="M 1.09375 0.1875 C 0.914062 0.1875 0.769531 0.140625 0.65625 0.046875 C 0.539062 -0.046875 0.472656 -0.191406 0.453125 -0.390625 C 0.429688 -0.585938 0.476562 -0.835938 0.59375 -1.140625 C 0.71875 -1.460938 0.894531 -1.816406 1.125 -2.203125 C 1.351562 -2.597656 1.632812 -3.003906 1.96875 -3.421875 C 2.300781 -3.835938 2.671875 -4.242188 3.078125 -4.640625 C 3.492188 -5.035156 3.929688 -5.390625 4.390625 -5.703125 C 4.566406 -5.828125 4.726562 -5.921875 4.875 -5.984375 C 5.019531 -6.054688 5.15625 -6.109375 5.28125 -6.140625 C 5.414062 -6.179688 5.535156 -6.203125 5.640625 -6.203125 C 5.867188 -6.203125 6.0625 -6.125 6.21875 -5.96875 C 6.375 -5.8125 6.453125 -5.59375 6.453125 -5.3125 C 6.453125 -5.125 6.398438 -4.960938 6.296875 -4.828125 C 6.203125 -4.703125 6.082031 -4.59375 5.9375 -4.5 C 5.40625 -4.1875 4.910156 -3.816406 4.453125 -3.390625 C 4.003906 -2.972656 3.585938 -2.515625 3.203125 -2.015625 C 2.816406 -1.523438 2.453125 -1.019531 2.109375 -0.5 C 1.953125 -0.25 1.789062 -0.0703125 1.625 0.03125 C 1.457031 0.132812 1.28125 0.1875 1.09375 0.1875 Z M 5.734375 0.171875 C 5.535156 0.171875 5.347656 0.125 5.171875 0.03125 C 5.003906 -0.0625 4.828125 -0.242188 4.640625 -0.515625 C 4.429688 -0.828125 4.179688 -1.15625 3.890625 -1.5 C 3.597656 -1.851562 3.285156 -2.203125 2.953125 -2.546875 C 2.628906 -2.890625 2.304688 -3.21875 1.984375 -3.53125 C 1.660156 -3.84375 1.351562 -4.109375 1.0625 -4.328125 C 0.875 -4.492188 0.71875 -4.644531 0.59375 -4.78125 C 0.476562 -4.925781 0.421875 -5.113281 0.421875 -5.34375 C 0.421875 -5.582031 0.484375 -5.785156 0.609375 -5.953125 C 0.734375 -6.117188 0.914062 -6.203125 1.15625 -6.203125 C 1.3125 -6.203125 1.460938 -6.164062 1.609375 -6.09375 C 1.753906 -6.019531 1.945312 -5.890625 2.1875 -5.703125 C 2.34375 -5.578125 2.550781 -5.390625 2.8125 -5.140625 C 3.070312 -4.890625 3.347656 -4.609375 3.640625 -4.296875 C 3.941406 -3.992188 4.238281 -3.675781 4.53125 -3.34375 C 4.832031 -3.019531 5.109375 -2.710938 5.359375 -2.421875 C 5.609375 -2.128906 5.800781 -1.875 5.9375 -1.65625 C 6.1875 -1.3125 6.34375 -1.050781 6.40625 -0.875 C 6.476562 -0.695312 6.515625 -0.550781 6.515625 -0.4375 C 6.515625 -0.238281 6.441406 -0.0859375 6.296875 0.015625 C 6.160156 0.117188 5.972656 0.171875 5.734375 0.171875 Z M 5.734375 0.171875 "/></g></g><g style="fill:#023047;fill-opacity:1;"><g transform="translate(67.489928, 111.537631)"><path style="stroke:none" d="M 1.09375 0.1875 C 0.914062 0.1875 0.769531 0.140625 0.65625 0.046875 C 0.539062 -0.046875 0.472656 -0.191406 0.453125 -0.390625 C 0.429688 -0.585938 0.476562 -0.835938 0.59375 -1.140625 C 0.71875 -1.460938 0.894531 -1.816406 1.125 -2.203125 C 1.351562 -2.597656 1.632812 -3.003906 1.96875 -3.421875 C 2.300781 -3.835938 2.671875 -4.242188 3.078125 -4.640625 C 3.492188 -5.035156 3.929688 -5.390625 4.390625 -5.703125 C 4.566406 -5.828125 4.726562 -5.921875 4.875 -5.984375 C 5.019531 -6.054688 5.15625 -6.109375 5.28125 -6.140625 C 5.414062 -6.179688 5.535156 -6.203125 5.640625 -6.203125 C 5.867188 -6.203125 6.0625 -6.125 6.21875 -5.96875 C 6.375 -5.8125 6.453125 -5.59375 6.453125 -5.3125 C 6.453125 -5.125 6.398438 -4.960938 6.296875 -4.828125 C 6.203125 -4.703125 6.082031 -4.59375 5.9375 -4.5 C 5.40625 -4.1875 4.910156 -3.816406 4.453125 -3.390625 C 4.003906 -2.972656 3.585938 -2.515625 3.203125 -2.015625 C 2.816406 -1.523438 2.453125 -1.019531 2.109375 -0.5 C 1.953125 -0.25 1.789062 -0.0703125 1.625 0.03125 C 1.457031 0.132812 1.28125 0.1875 1.09375 0.1875 Z M 5.734375 0.171875 C 5.535156 0.171875 5.347656 0.125 5.171875 0.03125 C 5.003906 -0.0625 4.828125 -0.242188 4.640625 -0.515625 C 4.429688 -0.828125 4.179688 -1.15625 3.890625 -1.5 C 3.597656 -1.851562 3.285156 -2.203125 2.953125 -2.546875 C 2.628906 -2.890625 2.304688 -3.21875 1.984375 -3.53125 C 1.660156 -3.84375 1.351562 -4.109375 1.0625 -4.328125 C 0.875 -4.492188 0.71875 -4.644531 0.59375 -4.78125 C 0.476562 -4.925781 0.421875 -5.113281 0.421875 -5.34375 C 0.421875 -5.582031 0.484375 -5.785156 0.609375 -5.953125 C 0.734375 -6.117188 0.914062 -6.203125 1.15625 -6.203125 C 1.3125 -6.203125 1.460938 -6.164062 1.609375 -6.09375 C 1.753906 -6.019531 1.945312 -5.890625 2.1875 -5.703125 C 2.34375 -5.578125 2.550781 -5.390625 2.8125 -5.140625 C 3.070312 -4.890625 3.347656 -4.609375 3.640625 -4.296875 C 3.941406 -3.992188 4.238281 -3.675781 4.53125 -3.34375 C 4.832031 -3.019531 5.109375 -2.710938 5.359375 -2.421875 C 5.609375 -2.128906 5.800781 -1.875 5.9375 -1.65625 C 6.1875 -1.3125 6.34375 -1.050781 6.40625 -0.875 C 6.476562 -0.695312 6.515625 -0.550781 6.515625 -0.4375 C 6.515625 -0.238281 6.441406 -0.0859375 6.296875 0.015625 C 6.160156 0.117188 5.972656 0.171875 5.734375 0.171875 Z M 5.734375 0.171875 "/></g></g><g style="fill:#023047;fill-opacity:1;"><g transform="translate(51.442859, 111.537624)"><path style="stroke:none" d="M 1.09375 0.1875 C 0.914062 0.1875 0.769531 0.140625 0.65625 0.046875 C 0.539062 -0.046875 0.472656 -0.191406 0.453125 -0.390625 C 0.429688 -0.585938 0.476562 -0.835938 0.59375 -1.140625 C 0.71875 -1.460938 0.894531 -1.816406 1.125 -2.203125 C 1.351562 -2.597656 1.632812 -3.003906 1.96875 -3.421875 C 2.300781 -3.835938 2.671875 -4.242188 3.078125 -4.640625 C 3.492188 -5.035156 3.929688 -5.390625 4.390625 -5.703125 C 4.566406 -5.828125 4.726562 -5.921875 4.875 -5.984375 C 5.019531 -6.054688 5.15625 -6.109375 5.28125 -6.140625 C 5.414062 -6.179688 5.535156 -6.203125 5.640625 -6.203125 C 5.867188 -6.203125 6.0625 -6.125 6.21875 -5.96875 C 6.375 -5.8125 6.453125 -5.59375 6.453125 -5.3125 C 6.453125 -5.125 6.398438 -4.960938 6.296875 -4.828125 C 6.203125 -4.703125 6.082031 -4.59375 5.9375 -4.5 C 5.40625 -4.1875 4.910156 -3.816406 4.453125 -3.390625 C 4.003906 -2.972656 3.585938 -2.515625 3.203125 -2.015625 C 2.816406 -1.523438 2.453125 -1.019531 2.109375 -0.5 C 1.953125 -0.25 1.789062 -0.0703125 1.625 0.03125 C 1.457031 0.132812 1.28125 0.1875 1.09375 0.1875 Z M 5.734375 0.171875 C 5.535156 0.171875 5.347656 0.125 5.171875 0.03125 C 5.003906 -0.0625 4.828125 -0.242188 4.640625 -0.515625 C 4.429688 -0.828125 4.179688 -1.15625 3.890625 -1.5 C 3.597656 -1.851562 3.285156 -2.203125 2.953125 -2.546875 C 2.628906 -2.890625 2.304688 -3.21875 1.984375 -3.53125 C 1.660156 -3.84375 1.351562 -4.109375 1.0625 -4.328125 C 0.875 -4.492188 0.71875 -4.644531 0.59375 -4.78125 C 0.476562 -4.925781 0.421875 -5.113281 0.421875 -5.34375 C 0.421875 -5.582031 0.484375 -5.785156 0.609375 -5.953125 C 0.734375 -6.117188 0.914062 -6.203125 1.15625 -6.203125 C 1.3125 -6.203125 1.460938 -6.164062 1.609375 -6.09375 C 1.753906 -6.019531 1.945312 -5.890625 2.1875 -5.703125 C 2.34375 -5.578125 2.550781 -5.390625 2.8125 -5.140625 C 3.070312 -4.890625 3.347656 -4.609375 3.640625 -4.296875 C 3.941406 -3.992188 4.238281 -3.675781 4.53125 -3.34375 C 4.832031 -3.019531 5.109375 -2.710938 5.359375 -2.421875 C 5.609375 -2.128906 5.800781 -1.875 5.9375 -1.65625 C 6.1875 -1.3125 6.34375 -1.050781 6.40625 -0.875 C 6.476562 -0.695312 6.515625 -0.550781 6.515625 -0.4375 C 6.515625 -0.238281 6.441406 -0.0859375 6.296875 0.015625 C 6.160156 0.117188 5.972656 0.171875 5.734375 0.171875 Z M 5.734375 0.171875 "/></g></g><g style="fill:#4caf50;fill-opacity:1;"><g transform="translate(49.275281, 97.739708)"><path style="stroke:none" d="M 5.234375 0.171875 C 4.867188 0.171875 4.554688 0.078125 4.296875 -0.109375 C 4.035156 -0.304688 3.765625 -0.625 3.484375 -1.0625 C 3.316406 -1.320312 3.132812 -1.660156 2.9375 -2.078125 C 2.738281 -2.492188 2.546875 -2.929688 2.359375 -3.390625 C 2.171875 -3.847656 2.003906 -4.265625 1.859375 -4.640625 C 1.640625 -5.191406 1.441406 -5.648438 1.265625 -6.015625 C 1.085938 -6.378906 0.9375 -6.691406 0.8125 -6.953125 C 0.695312 -7.222656 0.609375 -7.460938 0.546875 -7.671875 C 0.484375 -7.878906 0.453125 -8.109375 0.453125 -8.359375 C 0.453125 -8.617188 0.535156 -8.832031 0.703125 -9 C 0.878906 -9.175781 1.164062 -9.265625 1.5625 -9.265625 C 1.9375 -9.265625 2.257812 -9.175781 2.53125 -9 C 2.800781 -8.832031 3.039062 -8.59375 3.25 -8.28125 C 3.457031 -7.96875 3.640625 -7.59375 3.796875 -7.15625 C 3.960938 -6.71875 4.132812 -6.253906 4.3125 -5.765625 C 4.488281 -5.285156 4.671875 -4.804688 4.859375 -4.328125 C 5.054688 -3.847656 5.25 -3.390625 5.4375 -2.953125 L 4.734375 -3.09375 C 5.023438 -3.65625 5.296875 -4.179688 5.546875 -4.671875 C 5.796875 -5.160156 6.046875 -5.628906 6.296875 -6.078125 C 6.554688 -6.535156 6.832031 -6.976562 7.125 -7.40625 C 7.414062 -7.832031 7.75 -8.269531 8.125 -8.71875 C 8.289062 -8.914062 8.472656 -9.0625 8.671875 -9.15625 C 8.867188 -9.25 9.085938 -9.296875 9.328125 -9.296875 C 9.546875 -9.296875 9.738281 -9.226562 9.90625 -9.09375 C 10.070312 -8.96875 10.203125 -8.804688 10.296875 -8.609375 C 10.390625 -8.410156 10.4375 -8.203125 10.4375 -7.984375 C 10.4375 -7.742188 10.40625 -7.507812 10.34375 -7.28125 C 10.28125 -7.050781 10.191406 -6.847656 10.078125 -6.671875 C 9.691406 -6.140625 9.34375 -5.644531 9.03125 -5.1875 C 8.71875 -4.738281 8.421875 -4.289062 8.140625 -3.84375 C 7.867188 -3.40625 7.585938 -2.925781 7.296875 -2.40625 C 7.015625 -1.894531 6.722656 -1.304688 6.421875 -0.640625 C 6.265625 -0.347656 6.097656 -0.140625 5.921875 -0.015625 C 5.753906 0.109375 5.523438 0.171875 5.234375 0.171875 Z M 5.234375 0.171875 "/></g></g><g style="fill:#023047;fill-opacity:1;"><g transform="translate(37.056438, 60.976481)"><path style="stroke:none" d="M 3.4375 -7.0625 C 3.59375 -7.050781 3.738281 -7 3.875 -6.90625 C 4.007812 -6.820312 4.109375 -6.707031 4.171875 -6.5625 L 6.59375 -1.109375 C 6.625 -1.054688 6.644531 -0.992188 6.65625 -0.921875 C 6.664062 -0.859375 6.671875 -0.800781 6.671875 -0.75 C 6.671875 -0.519531 6.585938 -0.320312 6.421875 -0.15625 C 6.265625 0.0078125 6.070312 0.09375 5.84375 0.09375 C 5.664062 0.09375 5.503906 0.0507812 5.359375 -0.03125 C 5.222656 -0.113281 5.125 -0.234375 5.0625 -0.390625 L 4.65625 -1.546875 L 2.1875 -1.546875 L 1.765625 -0.390625 C 1.703125 -0.234375 1.601562 -0.113281 1.46875 -0.03125 C 1.332031 0.0507812 1.175781 0.09375 1 0.09375 C 0.769531 0.09375 0.570312 0.0078125 0.40625 -0.15625 C 0.238281 -0.320312 0.15625 -0.519531 0.15625 -0.75 C 0.15625 -0.875 0.179688 -0.992188 0.234375 -1.109375 L 2.65625 -6.5625 C 2.71875 -6.707031 2.816406 -6.828125 2.953125 -6.921875 C 3.085938 -7.015625 3.238281 -7.0625 3.40625 -7.0625 C 3.414062 -7.0625 3.425781 -7.0625 3.4375 -7.0625 Z M 4.1875 -2.859375 L 3.421875 -4.96875 L 2.65625 -2.859375 Z M 4.1875 -2.859375 "/></g></g><g style="fill:#023047;fill-opacity:1;"><g transform="translate(43.875642, 60.976481)"><path style="stroke:none" d="M 4.859375 -5.515625 C 5.085938 -5.378906 5.203125 -5.179688 5.203125 -4.921875 C 5.203125 -4.816406 5.171875 -4.707031 5.109375 -4.59375 L 4.921875 -4.265625 C 5.316406 -3.804688 5.515625 -3.210938 5.515625 -2.484375 C 5.515625 -1.722656 5.296875 -1.109375 4.859375 -0.640625 C 5.117188 -0.390625 5.25 -0.046875 5.25 0.390625 C 5.25 0.898438 5.066406 1.3125 4.703125 1.625 C 4.335938 1.9375 3.734375 2.09375 2.890625 2.09375 C 2.367188 2.09375 1.90625 2.015625 1.5 1.859375 C 1.09375 1.703125 0.816406 1.484375 0.671875 1.203125 C 0.660156 1.179688 0.644531 1.144531 0.625 1.09375 C 0.613281 1.050781 0.609375 1.007812 0.609375 0.96875 C 0.609375 0.800781 0.664062 0.65625 0.78125 0.53125 C 0.90625 0.40625 1.0625 0.34375 1.25 0.34375 C 1.351562 0.34375 1.457031 0.375 1.5625 0.4375 C 1.78125 0.582031 1.992188 0.691406 2.203125 0.765625 C 2.410156 0.835938 2.628906 0.875 2.859375 0.875 C 3.160156 0.875 3.378906 0.820312 3.515625 0.71875 C 3.648438 0.625 3.71875 0.492188 3.71875 0.328125 C 3.71875 0.203125 3.6875 0.101562 3.625 0.03125 C 3.507812 0.0507812 3.394531 0.0664062 3.28125 0.078125 C 3.175781 0.0859375 3.0625 0.09375 2.9375 0.09375 C 2.382812 0.09375 1.914062 -0.015625 1.53125 -0.234375 C 1.15625 -0.453125 0.863281 -0.753906 0.65625 -1.140625 C 0.457031 -1.523438 0.359375 -1.972656 0.359375 -2.484375 C 0.359375 -2.992188 0.457031 -3.441406 0.65625 -3.828125 C 0.863281 -4.210938 1.15625 -4.515625 1.53125 -4.734375 C 1.914062 -4.953125 2.382812 -5.0625 2.9375 -5.0625 C 3.082031 -5.0625 3.222656 -5.050781 3.359375 -5.03125 C 3.492188 -5.019531 3.625 -5 3.75 -4.96875 L 3.9375 -5.28125 C 4.070312 -5.5 4.265625 -5.609375 4.515625 -5.609375 C 4.628906 -5.609375 4.742188 -5.578125 4.859375 -5.515625 Z M 2.9375 -3.75 C 2.601562 -3.75 2.34375 -3.632812 2.15625 -3.40625 C 1.976562 -3.1875 1.890625 -2.878906 1.890625 -2.484375 C 1.890625 -2.085938 1.976562 -1.773438 2.15625 -1.546875 C 2.34375 -1.328125 2.601562 -1.21875 2.9375 -1.21875 C 3.257812 -1.21875 3.507812 -1.328125 3.6875 -1.546875 C 3.875 -1.773438 3.96875 -2.085938 3.96875 -2.484375 C 3.96875 -2.878906 3.875 -3.1875 3.6875 -3.40625 C 3.507812 -3.632812 3.257812 -3.75 2.9375 -3.75 Z M 2.9375 -3.75 "/></g></g><g style="fill:#023047;fill-opacity:1;"><g transform="translate(49.839952, 60.976481)"><path style="stroke:none" d="M 2.9375 -3.71875 C 2.601562 -3.71875 2.34375 -3.609375 2.15625 -3.390625 C 1.976562 -3.179688 1.890625 -2.878906 1.890625 -2.484375 C 1.890625 -2.097656 1.976562 -1.796875 2.15625 -1.578125 C 2.34375 -1.359375 2.601562 -1.25 2.9375 -1.25 C 3.257812 -1.25 3.507812 -1.359375 3.6875 -1.578125 C 3.875 -1.796875 3.96875 -2.097656 3.96875 -2.484375 C 3.96875 -2.878906 3.875 -3.179688 3.6875 -3.390625 C 3.507812 -3.609375 3.257812 -3.71875 2.9375 -3.71875 Z M 2.9375 -5.0625 C 3.476562 -5.0625 3.941406 -4.953125 4.328125 -4.734375 C 4.710938 -4.515625 5.003906 -4.210938 5.203125 -3.828125 C 5.398438 -3.441406 5.5 -2.992188 5.5 -2.484375 C 5.5 -1.972656 5.398438 -1.523438 5.203125 -1.140625 C 5.003906 -0.753906 4.710938 -0.453125 4.328125 -0.234375 C 3.941406 -0.015625 3.476562 0.09375 2.9375 0.09375 C 2.382812 0.09375 1.914062 -0.015625 1.53125 -0.234375 C 1.15625 -0.453125 0.863281 -0.753906 0.65625 -1.140625 C 0.457031 -1.523438 0.359375 -1.972656 0.359375 -2.484375 C 0.359375 -2.992188 0.457031 -3.441406 0.65625 -3.828125 C 0.863281 -4.210938 1.15625 -4.515625 1.53125 -4.734375 C 1.914062 -4.953125 2.382812 -5.0625 2.9375 -5.0625 Z M 2.9375 -5.0625 "/></g></g></g></svg>