<svg width="1559" height="1018" xmlns="http://www.w3.org/2000/svg" xmlns:xlink="http://www.w3.org/1999/xlink" xml:space="preserve" overflow="hidden"><g transform="translate(-2497 -1035)"><g><path d="M2647.5 1291.06C2647.5 1262.03 2671.03 1238.5 2700.06 1238.5L3123.94 1238.5C3152.97 1238.5 3176.5 1262.03 3176.5 1291.06L3176.5 1659.93C3176.5 1688.95 3152.97 1712.48 3123.94 1712.48L2700.06 1712.48C2671.03 1712.48 2647.5 1688.95 2647.5 1659.93Z" stroke="#386851" stroke-width="41.25" stroke-linecap="butt" stroke-linejoin="miter" stroke-miterlimit="8" stroke-opacity="1" fill="none" fill-rule="evenodd"/><text fill="#386851" fill-opacity="1" font-family="Aptos,Aptos_MSFontService,sans-serif" font-style="normal" font-variant="normal" font-weight="400" font-stretch="normal" font-size="481" text-anchor="start" direction="ltr" writing-mode="lr-tb" unicode-bidi="normal" text-decoration="none" transform="matrix(1 0 0 1 2789.37 1627)">?</text><path d="M0 0 0.000360892 24.8637" stroke="#386851" stroke-width="55" stroke-linecap="round" stroke-linejoin="miter" stroke-miterlimit="8" stroke-opacity="1" fill="none" fill-rule="evenodd" transform="matrix(1 0 0 -1 2756.5 1222.36)"/><path d="M0 0 0.000360892 23.0303" stroke="#386851" stroke-width="55" stroke-linecap="round" stroke-linejoin="miter" stroke-miterlimit="8" stroke-opacity="1" fill="none" fill-rule="evenodd" transform="matrix(1 0 0 -1 3073.5 1220.53)"/><text fill="#000000" fill-opacity="1" font-family="Helvetica,Helvetica_MSFontService,sans-serif" font-style="normal" font-variant="normal" font-weight="700" font-stretch="normal" font-size="183" text-anchor="start" direction="ltr" writing-mode="lr-tb" unicode-bidi="normal" text-decoration="none" transform="matrix(1 0 0 1 3250.5 1423)">Quando</text><text fill="#000000" fill-opacity="1" font-family="Helvetica,Helvetica_MSFontService,sans-serif" font-style="normal" font-variant="normal" font-weight="700" font-stretch="normal" font-size="183" text-anchor="start" direction="ltr" writing-mode="lr-tb" unicode-bidi="normal" text-decoration="none" transform="matrix(1 0 0 1 3250.5 1643)">Pode?</text></g></g></svg>