<svg xmlns="http://www.w3.org/2000/svg" version="1.1" xmlns:xlink="http://www.w3.org/1999/xlink" width="1000" height="1000"><g clip-path="url(#SvgjsClipPath1076)"><rect width="1000" height="1000" fill="#ffffff"></rect><g transform="matrix(7.43801652892562,0,0,7.43801652892562,50,79.75206611570246)"><svg xmlns="http://www.w3.org/2000/svg" version="1.1" xmlns:xlink="http://www.w3.org/1999/xlink" width="121" height="113"><svg xmlns="http://www.w3.org/2000/svg" xmlns:xlink="http://www.w3.org/1999/xlink" width="121" zoomAndPan="magnify" viewBox="0 0 90.75 84.749999" height="113" preserveAspectRatio="xMidYMid meet" version="1.2"><defs><clipPath id="1e4a16ca9a"><path d="M 0.0117188 6.699219 L 89.753906 6.699219 L 89.753906 83.753906 L 0.0117188 83.753906 Z M 0.0117188 6.699219 "></path></clipPath><clipPath id="SvgjsClipPath1076"><rect width="1000" height="1000" x="0" y="0" rx="100" ry="100"></rect></clipPath></defs><g id="5f652fbcdc"><path style=" stroke:none;fill-rule:nonzero;fill:#023047;fill-opacity:1;" d="M 26.285156 9.769531 L 62.9375 9.769531 C 63.277344 9.769531 63.550781 9.496094 63.550781 9.15625 L 63.550781 7.320312 C 63.550781 6.980469 63.277344 6.707031 62.9375 6.707031 L 26.285156 6.707031 C 25.949219 6.707031 25.671875 6.980469 25.671875 7.320312 L 25.671875 9.15625 C 25.671875 9.496094 25.949219 9.769531 26.285156 9.769531 "></path><g clip-rule="nonzero" clip-path="url(#1e4a16ca9a)"><path style=" stroke:none;fill-rule:nonzero;fill:#023047;fill-opacity:1;" d="M 80.210938 80.691406 L 9.554688 80.691406 C 5.976562 80.691406 3.074219 77.789062 3.074219 74.210938 L 3.074219 31.085938 L 86.6875 31.085938 L 86.6875 74.210938 C 86.6875 77.789062 83.789062 80.691406 80.210938 80.691406 Z M 80.210938 6.703125 L 73.359375 6.703125 C 73.019531 6.703125 72.746094 6.980469 72.746094 7.316406 L 72.746094 9.15625 C 72.746094 9.496094 73.019531 9.769531 73.359375 9.769531 L 80.210938 9.769531 C 83.785156 9.769531 86.6875 12.675781 86.6875 16.253906 L 86.6875 28.023438 L 3.074219 28.023438 L 3.074219 16.253906 C 3.074219 12.675781 5.980469 9.769531 9.554688 9.769531 L 15.867188 9.769531 C 16.207031 9.769531 16.480469 9.496094 16.480469 9.15625 L 16.480469 7.316406 C 16.480469 6.980469 16.207031 6.703125 15.867188 6.703125 L 9.554688 6.703125 C 4.296875 6.703125 0.0117188 10.988281 0.0117188 16.253906 L 0.0117188 74.210938 C 0.0117188 79.460938 4.304688 83.753906 9.554688 83.753906 L 80.210938 83.753906 C 85.460938 83.753906 89.753906 79.460938 89.753906 74.210938 L 89.753906 16.253906 C 89.753906 10.988281 85.46875 6.703125 80.210938 6.703125 "></path></g><path style=" stroke:none;fill-rule:nonzero;fill:#023047;fill-opacity:1;" d="M 21.078125 17.230469 C 22.597656 17.230469 23.835938 15.996094 23.835938 14.472656 L 23.835938 3.519531 C 23.835938 1.992188 22.597656 0.761719 21.078125 0.761719 C 19.550781 0.761719 18.320312 1.992188 18.320312 3.519531 L 18.320312 14.472656 C 18.320312 15.996094 19.550781 17.230469 21.078125 17.230469 "></path><path style=" stroke:none;fill-rule:nonzero;fill:#023047;fill-opacity:1;" d="M 68.148438 16.476562 C 69.667969 16.476562 70.90625 15.238281 70.90625 13.714844 L 70.90625 2.757812 C 70.90625 1.238281 69.667969 0 68.148438 0 C 66.621094 0 65.390625 1.238281 65.390625 2.757812 L 65.390625 13.714844 C 65.390625 15.238281 66.621094 16.476562 68.148438 16.476562 "></path><g style="fill:#023047;fill-opacity:1;"><g transform="translate(18.084009, 41.823966)"><path style="stroke:none" d="M 1.09375 0.1875 C 0.914062 0.1875 0.769531 0.140625 0.65625 0.046875 C 0.539062 -0.046875 0.472656 -0.191406 0.453125 -0.390625 C 0.429688 -0.585938 0.476562 -0.84375 0.59375 -1.15625 C 0.71875 -1.46875 0.894531 -1.816406 1.125 -2.203125 C 1.351562 -2.597656 1.632812 -3.003906 1.96875 -3.421875 C 2.3125 -3.847656 2.6875 -4.257812 3.09375 -4.65625 C 3.5 -5.050781 3.9375 -5.40625 4.40625 -5.71875 C 4.582031 -5.84375 4.742188 -5.9375 4.890625 -6 C 5.035156 -6.070312 5.171875 -6.125 5.296875 -6.15625 C 5.429688 -6.195312 5.550781 -6.21875 5.65625 -6.21875 C 5.882812 -6.21875 6.078125 -6.140625 6.234375 -5.984375 C 6.390625 -5.828125 6.46875 -5.609375 6.46875 -5.328125 C 6.46875 -5.128906 6.414062 -4.96875 6.3125 -4.84375 C 6.21875 -4.71875 6.097656 -4.609375 5.953125 -4.515625 C 5.421875 -4.203125 4.925781 -3.832031 4.46875 -3.40625 C 4.019531 -2.988281 3.601562 -2.53125 3.21875 -2.03125 C 2.832031 -1.53125 2.46875 -1.019531 2.125 -0.5 C 1.957031 -0.25 1.789062 -0.0703125 1.625 0.03125 C 1.457031 0.132812 1.28125 0.1875 1.09375 0.1875 Z M 5.75 0.171875 C 5.550781 0.171875 5.363281 0.125 5.1875 0.03125 C 5.019531 -0.0625 4.84375 -0.242188 4.65625 -0.515625 C 4.4375 -0.828125 4.179688 -1.15625 3.890625 -1.5 C 3.597656 -1.851562 3.289062 -2.203125 2.96875 -2.546875 C 2.644531 -2.898438 2.316406 -3.234375 1.984375 -3.546875 C 1.660156 -3.859375 1.351562 -4.125 1.0625 -4.34375 C 0.875 -4.5 0.71875 -4.648438 0.59375 -4.796875 C 0.476562 -4.941406 0.421875 -5.125 0.421875 -5.34375 C 0.421875 -5.59375 0.484375 -5.800781 0.609375 -5.96875 C 0.734375 -6.132812 0.914062 -6.21875 1.15625 -6.21875 C 1.320312 -6.21875 1.472656 -6.179688 1.609375 -6.109375 C 1.753906 -6.035156 1.945312 -5.90625 2.1875 -5.71875 C 2.34375 -5.59375 2.550781 -5.40625 2.8125 -5.15625 C 3.070312 -4.90625 3.351562 -4.625 3.65625 -4.3125 C 3.957031 -4.007812 4.253906 -3.691406 4.546875 -3.359375 C 4.835938 -3.023438 5.109375 -2.710938 5.359375 -2.421875 C 5.617188 -2.128906 5.816406 -1.875 5.953125 -1.65625 C 6.203125 -1.320312 6.359375 -1.0625 6.421875 -0.875 C 6.492188 -0.695312 6.53125 -0.550781 6.53125 -0.4375 C 6.53125 -0.238281 6.457031 -0.0859375 6.3125 0.015625 C 6.175781 0.117188 5.988281 0.171875 5.75 0.171875 Z M 5.75 0.171875 "></path></g></g><g style="fill:#023047;fill-opacity:1;"><g transform="translate(18.084009, 58.275436)"><path style="stroke:none" d="M 1.09375 0.1875 C 0.914062 0.1875 0.769531 0.140625 0.65625 0.046875 C 0.539062 -0.046875 0.472656 -0.191406 0.453125 -0.390625 C 0.429688 -0.585938 0.476562 -0.84375 0.59375 -1.15625 C 0.71875 -1.46875 0.894531 -1.816406 1.125 -2.203125 C 1.351562 -2.597656 1.632812 -3.003906 1.96875 -3.421875 C 2.3125 -3.847656 2.6875 -4.257812 3.09375 -4.65625 C 3.5 -5.050781 3.9375 -5.40625 4.40625 -5.71875 C 4.582031 -5.84375 4.742188 -5.9375 4.890625 -6 C 5.035156 -6.070312 5.171875 -6.125 5.296875 -6.15625 C 5.429688 -6.195312 5.550781 -6.21875 5.65625 -6.21875 C 5.882812 -6.21875 6.078125 -6.140625 6.234375 -5.984375 C 6.390625 -5.828125 6.46875 -5.609375 6.46875 -5.328125 C 6.46875 -5.128906 6.414062 -4.96875 6.3125 -4.84375 C 6.21875 -4.71875 6.097656 -4.609375 5.953125 -4.515625 C 5.421875 -4.203125 4.925781 -3.832031 4.46875 -3.40625 C 4.019531 -2.988281 3.601562 -2.53125 3.21875 -2.03125 C 2.832031 -1.53125 2.46875 -1.019531 2.125 -0.5 C 1.957031 -0.25 1.789062 -0.0703125 1.625 0.03125 C 1.457031 0.132812 1.28125 0.1875 1.09375 0.1875 Z M 5.75 0.171875 C 5.550781 0.171875 5.363281 0.125 5.1875 0.03125 C 5.019531 -0.0625 4.84375 -0.242188 4.65625 -0.515625 C 4.4375 -0.828125 4.179688 -1.15625 3.890625 -1.5 C 3.597656 -1.851562 3.289062 -2.203125 2.96875 -2.546875 C 2.644531 -2.898438 2.316406 -3.234375 1.984375 -3.546875 C 1.660156 -3.859375 1.351562 -4.125 1.0625 -4.34375 C 0.875 -4.5 0.71875 -4.648438 0.59375 -4.796875 C 0.476562 -4.941406 0.421875 -5.125 0.421875 -5.34375 C 0.421875 -5.59375 0.484375 -5.800781 0.609375 -5.96875 C 0.734375 -6.132812 0.914062 -6.21875 1.15625 -6.21875 C 1.320312 -6.21875 1.472656 -6.179688 1.609375 -6.109375 C 1.753906 -6.035156 1.945312 -5.90625 2.1875 -5.71875 C 2.34375 -5.59375 2.550781 -5.40625 2.8125 -5.15625 C 3.070312 -4.90625 3.351562 -4.625 3.65625 -4.3125 C 3.957031 -4.007812 4.253906 -3.691406 4.546875 -3.359375 C 4.835938 -3.023438 5.109375 -2.710938 5.359375 -2.421875 C 5.617188 -2.128906 5.816406 -1.875 5.953125 -1.65625 C 6.203125 -1.320312 6.359375 -1.0625 6.421875 -0.875 C 6.492188 -0.695312 6.53125 -0.550781 6.53125 -0.4375 C 6.53125 -0.238281 6.457031 -0.0859375 6.3125 0.015625 C 6.175781 0.117188 5.988281 0.171875 5.75 0.171875 Z M 5.75 0.171875 "></path></g></g><g style="fill:#023047;fill-opacity:1;"><g transform="translate(18.084009, 74.726906)"><path style="stroke:none" d="M 1.09375 0.1875 C 0.914062 0.1875 0.769531 0.140625 0.65625 0.046875 C 0.539062 -0.046875 0.472656 -0.191406 0.453125 -0.390625 C 0.429688 -0.585938 0.476562 -0.84375 0.59375 -1.15625 C 0.71875 -1.46875 0.894531 -1.816406 1.125 -2.203125 C 1.351562 -2.597656 1.632812 -3.003906 1.96875 -3.421875 C 2.3125 -3.847656 2.6875 -4.257812 3.09375 -4.65625 C 3.5 -5.050781 3.9375 -5.40625 4.40625 -5.71875 C 4.582031 -5.84375 4.742188 -5.9375 4.890625 -6 C 5.035156 -6.070312 5.171875 -6.125 5.296875 -6.15625 C 5.429688 -6.195312 5.550781 -6.21875 5.65625 -6.21875 C 5.882812 -6.21875 6.078125 -6.140625 6.234375 -5.984375 C 6.390625 -5.828125 6.46875 -5.609375 6.46875 -5.328125 C 6.46875 -5.128906 6.414062 -4.96875 6.3125 -4.84375 C 6.21875 -4.71875 6.097656 -4.609375 5.953125 -4.515625 C 5.421875 -4.203125 4.925781 -3.832031 4.46875 -3.40625 C 4.019531 -2.988281 3.601562 -2.53125 3.21875 -2.03125 C 2.832031 -1.53125 2.46875 -1.019531 2.125 -0.5 C 1.957031 -0.25 1.789062 -0.0703125 1.625 0.03125 C 1.457031 0.132812 1.28125 0.1875 1.09375 0.1875 Z M 5.75 0.171875 C 5.550781 0.171875 5.363281 0.125 5.1875 0.03125 C 5.019531 -0.0625 4.84375 -0.242188 4.65625 -0.515625 C 4.4375 -0.828125 4.179688 -1.15625 3.890625 -1.5 C 3.597656 -1.851562 3.289062 -2.203125 2.96875 -2.546875 C 2.644531 -2.898438 2.316406 -3.234375 1.984375 -3.546875 C 1.660156 -3.859375 1.351562 -4.125 1.0625 -4.34375 C 0.875 -4.5 0.71875 -4.648438 0.59375 -4.796875 C 0.476562 -4.941406 0.421875 -5.125 0.421875 -5.34375 C 0.421875 -5.59375 0.484375 -5.800781 0.609375 -5.96875 C 0.734375 -6.132812 0.914062 -6.21875 1.15625 -6.21875 C 1.320312 -6.21875 1.472656 -6.179688 1.609375 -6.109375 C 1.753906 -6.035156 1.945312 -5.90625 2.1875 -5.71875 C 2.34375 -5.59375 2.550781 -5.40625 2.8125 -5.15625 C 3.070312 -4.90625 3.351562 -4.625 3.65625 -4.3125 C 3.957031 -4.007812 4.253906 -3.691406 4.546875 -3.359375 C 4.835938 -3.023438 5.109375 -2.710938 5.359375 -2.421875 C 5.617188 -2.128906 5.816406 -1.875 5.953125 -1.65625 C 6.203125 -1.320312 6.359375 -1.0625 6.421875 -0.875 C 6.492188 -0.695312 6.53125 -0.550781 6.53125 -0.4375 C 6.53125 -0.238281 6.457031 -0.0859375 6.3125 0.015625 C 6.175781 0.117188 5.988281 0.171875 5.75 0.171875 Z M 5.75 0.171875 "></path></g></g><g style="fill:#023047;fill-opacity:1;"><g transform="translate(34.486662, 41.823966)"><path style="stroke:none" d="M 1.09375 0.1875 C 0.914062 0.1875 0.769531 0.140625 0.65625 0.046875 C 0.539062 -0.046875 0.472656 -0.191406 0.453125 -0.390625 C 0.429688 -0.585938 0.476562 -0.84375 0.59375 -1.15625 C 0.71875 -1.46875 0.894531 -1.816406 1.125 -2.203125 C 1.351562 -2.597656 1.632812 -3.003906 1.96875 -3.421875 C 2.3125 -3.847656 2.6875 -4.257812 3.09375 -4.65625 C 3.5 -5.050781 3.9375 -5.40625 4.40625 -5.71875 C 4.582031 -5.84375 4.742188 -5.9375 4.890625 -6 C 5.035156 -6.070312 5.171875 -6.125 5.296875 -6.15625 C 5.429688 -6.195312 5.550781 -6.21875 5.65625 -6.21875 C 5.882812 -6.21875 6.078125 -6.140625 6.234375 -5.984375 C 6.390625 -5.828125 6.46875 -5.609375 6.46875 -5.328125 C 6.46875 -5.128906 6.414062 -4.96875 6.3125 -4.84375 C 6.21875 -4.71875 6.097656 -4.609375 5.953125 -4.515625 C 5.421875 -4.203125 4.925781 -3.832031 4.46875 -3.40625 C 4.019531 -2.988281 3.601562 -2.53125 3.21875 -2.03125 C 2.832031 -1.53125 2.46875 -1.019531 2.125 -0.5 C 1.957031 -0.25 1.789062 -0.0703125 1.625 0.03125 C 1.457031 0.132812 1.28125 0.1875 1.09375 0.1875 Z M 5.75 0.171875 C 5.550781 0.171875 5.363281 0.125 5.1875 0.03125 C 5.019531 -0.0625 4.84375 -0.242188 4.65625 -0.515625 C 4.4375 -0.828125 4.179688 -1.15625 3.890625 -1.5 C 3.597656 -1.851562 3.289062 -2.203125 2.96875 -2.546875 C 2.644531 -2.898438 2.316406 -3.234375 1.984375 -3.546875 C 1.660156 -3.859375 1.351562 -4.125 1.0625 -4.34375 C 0.875 -4.5 0.71875 -4.648438 0.59375 -4.796875 C 0.476562 -4.941406 0.421875 -5.125 0.421875 -5.34375 C 0.421875 -5.59375 0.484375 -5.800781 0.609375 -5.96875 C 0.734375 -6.132812 0.914062 -6.21875 1.15625 -6.21875 C 1.320312 -6.21875 1.472656 -6.179688 1.609375 -6.109375 C 1.753906 -6.035156 1.945312 -5.90625 2.1875 -5.71875 C 2.34375 -5.59375 2.550781 -5.40625 2.8125 -5.15625 C 3.070312 -4.90625 3.351562 -4.625 3.65625 -4.3125 C 3.957031 -4.007812 4.253906 -3.691406 4.546875 -3.359375 C 4.835938 -3.023438 5.109375 -2.710938 5.359375 -2.421875 C 5.617188 -2.128906 5.816406 -1.875 5.953125 -1.65625 C 6.203125 -1.320312 6.359375 -1.0625 6.421875 -0.875 C 6.492188 -0.695312 6.53125 -0.550781 6.53125 -0.4375 C 6.53125 -0.238281 6.457031 -0.0859375 6.3125 0.015625 C 6.175781 0.117188 5.988281 0.171875 5.75 0.171875 Z M 5.75 0.171875 "></path></g></g><g style="fill:#023047;fill-opacity:1;"><g transform="translate(34.486662, 58.275436)"><path style="stroke:none" d="M 1.09375 0.1875 C 0.914062 0.1875 0.769531 0.140625 0.65625 0.046875 C 0.539062 -0.046875 0.472656 -0.191406 0.453125 -0.390625 C 0.429688 -0.585938 0.476562 -0.84375 0.59375 -1.15625 C 0.71875 -1.46875 0.894531 -1.816406 1.125 -2.203125 C 1.351562 -2.597656 1.632812 -3.003906 1.96875 -3.421875 C 2.3125 -3.847656 2.6875 -4.257812 3.09375 -4.65625 C 3.5 -5.050781 3.9375 -5.40625 4.40625 -5.71875 C 4.582031 -5.84375 4.742188 -5.9375 4.890625 -6 C 5.035156 -6.070312 5.171875 -6.125 5.296875 -6.15625 C 5.429688 -6.195312 5.550781 -6.21875 5.65625 -6.21875 C 5.882812 -6.21875 6.078125 -6.140625 6.234375 -5.984375 C 6.390625 -5.828125 6.46875 -5.609375 6.46875 -5.328125 C 6.46875 -5.128906 6.414062 -4.96875 6.3125 -4.84375 C 6.21875 -4.71875 6.097656 -4.609375 5.953125 -4.515625 C 5.421875 -4.203125 4.925781 -3.832031 4.46875 -3.40625 C 4.019531 -2.988281 3.601562 -2.53125 3.21875 -2.03125 C 2.832031 -1.53125 2.46875 -1.019531 2.125 -0.5 C 1.957031 -0.25 1.789062 -0.0703125 1.625 0.03125 C 1.457031 0.132812 1.28125 0.1875 1.09375 0.1875 Z M 5.75 0.171875 C 5.550781 0.171875 5.363281 0.125 5.1875 0.03125 C 5.019531 -0.0625 4.84375 -0.242188 4.65625 -0.515625 C 4.4375 -0.828125 4.179688 -1.15625 3.890625 -1.5 C 3.597656 -1.851562 3.289062 -2.203125 2.96875 -2.546875 C 2.644531 -2.898438 2.316406 -3.234375 1.984375 -3.546875 C 1.660156 -3.859375 1.351562 -4.125 1.0625 -4.34375 C 0.875 -4.5 0.71875 -4.648438 0.59375 -4.796875 C 0.476562 -4.941406 0.421875 -5.125 0.421875 -5.34375 C 0.421875 -5.59375 0.484375 -5.800781 0.609375 -5.96875 C 0.734375 -6.132812 0.914062 -6.21875 1.15625 -6.21875 C 1.320312 -6.21875 1.472656 -6.179688 1.609375 -6.109375 C 1.753906 -6.035156 1.945312 -5.90625 2.1875 -5.71875 C 2.34375 -5.59375 2.550781 -5.40625 2.8125 -5.15625 C 3.070312 -4.90625 3.351562 -4.625 3.65625 -4.3125 C 3.957031 -4.007812 4.253906 -3.691406 4.546875 -3.359375 C 4.835938 -3.023438 5.109375 -2.710938 5.359375 -2.421875 C 5.617188 -2.128906 5.816406 -1.875 5.953125 -1.65625 C 6.203125 -1.320312 6.359375 -1.0625 6.421875 -0.875 C 6.492188 -0.695312 6.53125 -0.550781 6.53125 -0.4375 C 6.53125 -0.238281 6.457031 -0.0859375 6.3125 0.015625 C 6.175781 0.117188 5.988281 0.171875 5.75 0.171875 Z M 5.75 0.171875 "></path></g></g><g style="fill:#023047;fill-opacity:1;"><g transform="translate(34.486662, 74.726906)"><path style="stroke:none" d="M 1.09375 0.1875 C 0.914062 0.1875 0.769531 0.140625 0.65625 0.046875 C 0.539062 -0.046875 0.472656 -0.191406 0.453125 -0.390625 C 0.429688 -0.585938 0.476562 -0.84375 0.59375 -1.15625 C 0.71875 -1.46875 0.894531 -1.816406 1.125 -2.203125 C 1.351562 -2.597656 1.632812 -3.003906 1.96875 -3.421875 C 2.3125 -3.847656 2.6875 -4.257812 3.09375 -4.65625 C 3.5 -5.050781 3.9375 -5.40625 4.40625 -5.71875 C 4.582031 -5.84375 4.742188 -5.9375 4.890625 -6 C 5.035156 -6.070312 5.171875 -6.125 5.296875 -6.15625 C 5.429688 -6.195312 5.550781 -6.21875 5.65625 -6.21875 C 5.882812 -6.21875 6.078125 -6.140625 6.234375 -5.984375 C 6.390625 -5.828125 6.46875 -5.609375 6.46875 -5.328125 C 6.46875 -5.128906 6.414062 -4.96875 6.3125 -4.84375 C 6.21875 -4.71875 6.097656 -4.609375 5.953125 -4.515625 C 5.421875 -4.203125 4.925781 -3.832031 4.46875 -3.40625 C 4.019531 -2.988281 3.601562 -2.53125 3.21875 -2.03125 C 2.832031 -1.53125 2.46875 -1.019531 2.125 -0.5 C 1.957031 -0.25 1.789062 -0.0703125 1.625 0.03125 C 1.457031 0.132812 1.28125 0.1875 1.09375 0.1875 Z M 5.75 0.171875 C 5.550781 0.171875 5.363281 0.125 5.1875 0.03125 C 5.019531 -0.0625 4.84375 -0.242188 4.65625 -0.515625 C 4.4375 -0.828125 4.179688 -1.15625 3.890625 -1.5 C 3.597656 -1.851562 3.289062 -2.203125 2.96875 -2.546875 C 2.644531 -2.898438 2.316406 -3.234375 1.984375 -3.546875 C 1.660156 -3.859375 1.351562 -4.125 1.0625 -4.34375 C 0.875 -4.5 0.71875 -4.648438 0.59375 -4.796875 C 0.476562 -4.941406 0.421875 -5.125 0.421875 -5.34375 C 0.421875 -5.59375 0.484375 -5.800781 0.609375 -5.96875 C 0.734375 -6.132812 0.914062 -6.21875 1.15625 -6.21875 C 1.320312 -6.21875 1.472656 -6.179688 1.609375 -6.109375 C 1.753906 -6.035156 1.945312 -5.90625 2.1875 -5.71875 C 2.34375 -5.59375 2.550781 -5.40625 2.8125 -5.15625 C 3.070312 -4.90625 3.351562 -4.625 3.65625 -4.3125 C 3.957031 -4.007812 4.253906 -3.691406 4.546875 -3.359375 C 4.835938 -3.023438 5.109375 -2.710938 5.359375 -2.421875 C 5.617188 -2.128906 5.816406 -1.875 5.953125 -1.65625 C 6.203125 -1.320312 6.359375 -1.0625 6.421875 -0.875 C 6.492188 -0.695312 6.53125 -0.550781 6.53125 -0.4375 C 6.53125 -0.238281 6.457031 -0.0859375 6.3125 0.015625 C 6.175781 0.117188 5.988281 0.171875 5.75 0.171875 Z M 5.75 0.171875 "></path></g></g><g style="fill:#023047;fill-opacity:1;"><g transform="translate(49.629489, 41.823966)"><path style="stroke:none" d="M 1.09375 0.1875 C 0.914062 0.1875 0.769531 0.140625 0.65625 0.046875 C 0.539062 -0.046875 0.472656 -0.191406 0.453125 -0.390625 C 0.429688 -0.585938 0.476562 -0.84375 0.59375 -1.15625 C 0.71875 -1.46875 0.894531 -1.816406 1.125 -2.203125 C 1.351562 -2.597656 1.632812 -3.003906 1.96875 -3.421875 C 2.3125 -3.847656 2.6875 -4.257812 3.09375 -4.65625 C 3.5 -5.050781 3.9375 -5.40625 4.40625 -5.71875 C 4.582031 -5.84375 4.742188 -5.9375 4.890625 -6 C 5.035156 -6.070312 5.171875 -6.125 5.296875 -6.15625 C 5.429688 -6.195312 5.550781 -6.21875 5.65625 -6.21875 C 5.882812 -6.21875 6.078125 -6.140625 6.234375 -5.984375 C 6.390625 -5.828125 6.46875 -5.609375 6.46875 -5.328125 C 6.46875 -5.128906 6.414062 -4.96875 6.3125 -4.84375 C 6.21875 -4.71875 6.097656 -4.609375 5.953125 -4.515625 C 5.421875 -4.203125 4.925781 -3.832031 4.46875 -3.40625 C 4.019531 -2.988281 3.601562 -2.53125 3.21875 -2.03125 C 2.832031 -1.53125 2.46875 -1.019531 2.125 -0.5 C 1.957031 -0.25 1.789062 -0.0703125 1.625 0.03125 C 1.457031 0.132812 1.28125 0.1875 1.09375 0.1875 Z M 5.75 0.171875 C 5.550781 0.171875 5.363281 0.125 5.1875 0.03125 C 5.019531 -0.0625 4.84375 -0.242188 4.65625 -0.515625 C 4.4375 -0.828125 4.179688 -1.15625 3.890625 -1.5 C 3.597656 -1.851562 3.289062 -2.203125 2.96875 -2.546875 C 2.644531 -2.898438 2.316406 -3.234375 1.984375 -3.546875 C 1.660156 -3.859375 1.351562 -4.125 1.0625 -4.34375 C 0.875 -4.5 0.71875 -4.648438 0.59375 -4.796875 C 0.476562 -4.941406 0.421875 -5.125 0.421875 -5.34375 C 0.421875 -5.59375 0.484375 -5.800781 0.609375 -5.96875 C 0.734375 -6.132812 0.914062 -6.21875 1.15625 -6.21875 C 1.320312 -6.21875 1.472656 -6.179688 1.609375 -6.109375 C 1.753906 -6.035156 1.945312 -5.90625 2.1875 -5.71875 C 2.34375 -5.59375 2.550781 -5.40625 2.8125 -5.15625 C 3.070312 -4.90625 3.351562 -4.625 3.65625 -4.3125 C 3.957031 -4.007812 4.253906 -3.691406 4.546875 -3.359375 C 4.835938 -3.023438 5.109375 -2.710938 5.359375 -2.421875 C 5.617188 -2.128906 5.816406 -1.875 5.953125 -1.65625 C 6.203125 -1.320312 6.359375 -1.0625 6.421875 -0.875 C 6.492188 -0.695312 6.53125 -0.550781 6.53125 -0.4375 C 6.53125 -0.238281 6.457031 -0.0859375 6.3125 0.015625 C 6.175781 0.117188 5.988281 0.171875 5.75 0.171875 Z M 5.75 0.171875 "></path></g></g><g style="fill:#023047;fill-opacity:1;"><g transform="translate(67.144228, 41.823966)"><path style="stroke:none" d="M 1.09375 0.1875 C 0.914062 0.1875 0.769531 0.140625 0.65625 0.046875 C 0.539062 -0.046875 0.472656 -0.191406 0.453125 -0.390625 C 0.429688 -0.585938 0.476562 -0.84375 0.59375 -1.15625 C 0.71875 -1.46875 0.894531 -1.816406 1.125 -2.203125 C 1.351562 -2.597656 1.632812 -3.003906 1.96875 -3.421875 C 2.3125 -3.847656 2.6875 -4.257812 3.09375 -4.65625 C 3.5 -5.050781 3.9375 -5.40625 4.40625 -5.71875 C 4.582031 -5.84375 4.742188 -5.9375 4.890625 -6 C 5.035156 -6.070312 5.171875 -6.125 5.296875 -6.15625 C 5.429688 -6.195312 5.550781 -6.21875 5.65625 -6.21875 C 5.882812 -6.21875 6.078125 -6.140625 6.234375 -5.984375 C 6.390625 -5.828125 6.46875 -5.609375 6.46875 -5.328125 C 6.46875 -5.128906 6.414062 -4.96875 6.3125 -4.84375 C 6.21875 -4.71875 6.097656 -4.609375 5.953125 -4.515625 C 5.421875 -4.203125 4.925781 -3.832031 4.46875 -3.40625 C 4.019531 -2.988281 3.601562 -2.53125 3.21875 -2.03125 C 2.832031 -1.53125 2.46875 -1.019531 2.125 -0.5 C 1.957031 -0.25 1.789062 -0.0703125 1.625 0.03125 C 1.457031 0.132812 1.28125 0.1875 1.09375 0.1875 Z M 5.75 0.171875 C 5.550781 0.171875 5.363281 0.125 5.1875 0.03125 C 5.019531 -0.0625 4.84375 -0.242188 4.65625 -0.515625 C 4.4375 -0.828125 4.179688 -1.15625 3.890625 -1.5 C 3.597656 -1.851562 3.289062 -2.203125 2.96875 -2.546875 C 2.644531 -2.898438 2.316406 -3.234375 1.984375 -3.546875 C 1.660156 -3.859375 1.351562 -4.125 1.0625 -4.34375 C 0.875 -4.5 0.71875 -4.648438 0.59375 -4.796875 C 0.476562 -4.941406 0.421875 -5.125 0.421875 -5.34375 C 0.421875 -5.59375 0.484375 -5.800781 0.609375 -5.96875 C 0.734375 -6.132812 0.914062 -6.21875 1.15625 -6.21875 C 1.320312 -6.21875 1.472656 -6.179688 1.609375 -6.109375 C 1.753906 -6.035156 1.945312 -5.90625 2.1875 -5.71875 C 2.34375 -5.59375 2.550781 -5.40625 2.8125 -5.15625 C 3.070312 -4.90625 3.351562 -4.625 3.65625 -4.3125 C 3.957031 -4.007812 4.253906 -3.691406 4.546875 -3.359375 C 4.835938 -3.023438 5.109375 -2.710938 5.359375 -2.421875 C 5.617188 -2.128906 5.816406 -1.875 5.953125 -1.65625 C 6.203125 -1.320312 6.359375 -1.0625 6.421875 -0.875 C 6.492188 -0.695312 6.53125 -0.550781 6.53125 -0.4375 C 6.53125 -0.238281 6.457031 -0.0859375 6.3125 0.015625 C 6.175781 0.117188 5.988281 0.171875 5.75 0.171875 Z M 5.75 0.171875 "></path></g></g><g style="fill:#023047;fill-opacity:1;"><g transform="translate(67.144228, 58.275436)"><path style="stroke:none" d="M 1.09375 0.1875 C 0.914062 0.1875 0.769531 0.140625 0.65625 0.046875 C 0.539062 -0.046875 0.472656 -0.191406 0.453125 -0.390625 C 0.429688 -0.585938 0.476562 -0.84375 0.59375 -1.15625 C 0.71875 -1.46875 0.894531 -1.816406 1.125 -2.203125 C 1.351562 -2.597656 1.632812 -3.003906 1.96875 -3.421875 C 2.3125 -3.847656 2.6875 -4.257812 3.09375 -4.65625 C 3.5 -5.050781 3.9375 -5.40625 4.40625 -5.71875 C 4.582031 -5.84375 4.742188 -5.9375 4.890625 -6 C 5.035156 -6.070312 5.171875 -6.125 5.296875 -6.15625 C 5.429688 -6.195312 5.550781 -6.21875 5.65625 -6.21875 C 5.882812 -6.21875 6.078125 -6.140625 6.234375 -5.984375 C 6.390625 -5.828125 6.46875 -5.609375 6.46875 -5.328125 C 6.46875 -5.128906 6.414062 -4.96875 6.3125 -4.84375 C 6.21875 -4.71875 6.097656 -4.609375 5.953125 -4.515625 C 5.421875 -4.203125 4.925781 -3.832031 4.46875 -3.40625 C 4.019531 -2.988281 3.601562 -2.53125 3.21875 -2.03125 C 2.832031 -1.53125 2.46875 -1.019531 2.125 -0.5 C 1.957031 -0.25 1.789062 -0.0703125 1.625 0.03125 C 1.457031 0.132812 1.28125 0.1875 1.09375 0.1875 Z M 5.75 0.171875 C 5.550781 0.171875 5.363281 0.125 5.1875 0.03125 C 5.019531 -0.0625 4.84375 -0.242188 4.65625 -0.515625 C 4.4375 -0.828125 4.179688 -1.15625 3.890625 -1.5 C 3.597656 -1.851562 3.289062 -2.203125 2.96875 -2.546875 C 2.644531 -2.898438 2.316406 -3.234375 1.984375 -3.546875 C 1.660156 -3.859375 1.351562 -4.125 1.0625 -4.34375 C 0.875 -4.5 0.71875 -4.648438 0.59375 -4.796875 C 0.476562 -4.941406 0.421875 -5.125 0.421875 -5.34375 C 0.421875 -5.59375 0.484375 -5.800781 0.609375 -5.96875 C 0.734375 -6.132812 0.914062 -6.21875 1.15625 -6.21875 C 1.320312 -6.21875 1.472656 -6.179688 1.609375 -6.109375 C 1.753906 -6.035156 1.945312 -5.90625 2.1875 -5.71875 C 2.34375 -5.59375 2.550781 -5.40625 2.8125 -5.15625 C 3.070312 -4.90625 3.351562 -4.625 3.65625 -4.3125 C 3.957031 -4.007812 4.253906 -3.691406 4.546875 -3.359375 C 4.835938 -3.023438 5.109375 -2.710938 5.359375 -2.421875 C 5.617188 -2.128906 5.816406 -1.875 5.953125 -1.65625 C 6.203125 -1.320312 6.359375 -1.0625 6.421875 -0.875 C 6.492188 -0.695312 6.53125 -0.550781 6.53125 -0.4375 C 6.53125 -0.238281 6.457031 -0.0859375 6.3125 0.015625 C 6.175781 0.117188 5.988281 0.171875 5.75 0.171875 Z M 5.75 0.171875 "></path></g></g><g style="fill:#023047;fill-opacity:1;"><g transform="translate(67.144228, 74.726906)"><path style="stroke:none" d="M 1.09375 0.1875 C 0.914062 0.1875 0.769531 0.140625 0.65625 0.046875 C 0.539062 -0.046875 0.472656 -0.191406 0.453125 -0.390625 C 0.429688 -0.585938 0.476562 -0.84375 0.59375 -1.15625 C 0.71875 -1.46875 0.894531 -1.816406 1.125 -2.203125 C 1.351562 -2.597656 1.632812 -3.003906 1.96875 -3.421875 C 2.3125 -3.847656 2.6875 -4.257812 3.09375 -4.65625 C 3.5 -5.050781 3.9375 -5.40625 4.40625 -5.71875 C 4.582031 -5.84375 4.742188 -5.9375 4.890625 -6 C 5.035156 -6.070312 5.171875 -6.125 5.296875 -6.15625 C 5.429688 -6.195312 5.550781 -6.21875 5.65625 -6.21875 C 5.882812 -6.21875 6.078125 -6.140625 6.234375 -5.984375 C 6.390625 -5.828125 6.46875 -5.609375 6.46875 -5.328125 C 6.46875 -5.128906 6.414062 -4.96875 6.3125 -4.84375 C 6.21875 -4.71875 6.097656 -4.609375 5.953125 -4.515625 C 5.421875 -4.203125 4.925781 -3.832031 4.46875 -3.40625 C 4.019531 -2.988281 3.601562 -2.53125 3.21875 -2.03125 C 2.832031 -1.53125 2.46875 -1.019531 2.125 -0.5 C 1.957031 -0.25 1.789062 -0.0703125 1.625 0.03125 C 1.457031 0.132812 1.28125 0.1875 1.09375 0.1875 Z M 5.75 0.171875 C 5.550781 0.171875 5.363281 0.125 5.1875 0.03125 C 5.019531 -0.0625 4.84375 -0.242188 4.65625 -0.515625 C 4.4375 -0.828125 4.179688 -1.15625 3.890625 -1.5 C 3.597656 -1.851562 3.289062 -2.203125 2.96875 -2.546875 C 2.644531 -2.898438 2.316406 -3.234375 1.984375 -3.546875 C 1.660156 -3.859375 1.351562 -4.125 1.0625 -4.34375 C 0.875 -4.5 0.71875 -4.648438 0.59375 -4.796875 C 0.476562 -4.941406 0.421875 -5.125 0.421875 -5.34375 C 0.421875 -5.59375 0.484375 -5.800781 0.609375 -5.96875 C 0.734375 -6.132812 0.914062 -6.21875 1.15625 -6.21875 C 1.320312 -6.21875 1.472656 -6.179688 1.609375 -6.109375 C 1.753906 -6.035156 1.945312 -5.90625 2.1875 -5.71875 C 2.34375 -5.59375 2.550781 -5.40625 2.8125 -5.15625 C 3.070312 -4.90625 3.351562 -4.625 3.65625 -4.3125 C 3.957031 -4.007812 4.253906 -3.691406 4.546875 -3.359375 C 4.835938 -3.023438 5.109375 -2.710938 5.359375 -2.421875 C 5.617188 -2.128906 5.816406 -1.875 5.953125 -1.65625 C 6.203125 -1.320312 6.359375 -1.0625 6.421875 -0.875 C 6.492188 -0.695312 6.53125 -0.550781 6.53125 -0.4375 C 6.53125 -0.238281 6.457031 -0.0859375 6.3125 0.015625 C 6.175781 0.117188 5.988281 0.171875 5.75 0.171875 Z M 5.75 0.171875 "></path></g></g><g style="fill:#023047;fill-opacity:1;"><g transform="translate(51.054971, 74.726904)"><path style="stroke:none" d="M 1.09375 0.1875 C 0.914062 0.1875 0.769531 0.140625 0.65625 0.046875 C 0.539062 -0.046875 0.472656 -0.191406 0.453125 -0.390625 C 0.429688 -0.585938 0.476562 -0.84375 0.59375 -1.15625 C 0.71875 -1.46875 0.894531 -1.816406 1.125 -2.203125 C 1.351562 -2.597656 1.632812 -3.003906 1.96875 -3.421875 C 2.3125 -3.847656 2.6875 -4.257812 3.09375 -4.65625 C 3.5 -5.050781 3.9375 -5.40625 4.40625 -5.71875 C 4.582031 -5.84375 4.742188 -5.9375 4.890625 -6 C 5.035156 -6.070312 5.171875 -6.125 5.296875 -6.15625 C 5.429688 -6.195312 5.550781 -6.21875 5.65625 -6.21875 C 5.882812 -6.21875 6.078125 -6.140625 6.234375 -5.984375 C 6.390625 -5.828125 6.46875 -5.609375 6.46875 -5.328125 C 6.46875 -5.128906 6.414062 -4.96875 6.3125 -4.84375 C 6.21875 -4.71875 6.097656 -4.609375 5.953125 -4.515625 C 5.421875 -4.203125 4.925781 -3.832031 4.46875 -3.40625 C 4.019531 -2.988281 3.601562 -2.53125 3.21875 -2.03125 C 2.832031 -1.53125 2.46875 -1.019531 2.125 -0.5 C 1.957031 -0.25 1.789062 -0.0703125 1.625 0.03125 C 1.457031 0.132812 1.28125 0.1875 1.09375 0.1875 Z M 5.75 0.171875 C 5.550781 0.171875 5.363281 0.125 5.1875 0.03125 C 5.019531 -0.0625 4.84375 -0.242188 4.65625 -0.515625 C 4.4375 -0.828125 4.179688 -1.15625 3.890625 -1.5 C 3.597656 -1.851562 3.289062 -2.203125 2.96875 -2.546875 C 2.644531 -2.898438 2.316406 -3.234375 1.984375 -3.546875 C 1.660156 -3.859375 1.351562 -4.125 1.0625 -4.34375 C 0.875 -4.5 0.71875 -4.648438 0.59375 -4.796875 C 0.476562 -4.941406 0.421875 -5.125 0.421875 -5.34375 C 0.421875 -5.59375 0.484375 -5.800781 0.609375 -5.96875 C 0.734375 -6.132812 0.914062 -6.21875 1.15625 -6.21875 C 1.320312 -6.21875 1.472656 -6.179688 1.609375 -6.109375 C 1.753906 -6.035156 1.945312 -5.90625 2.1875 -5.71875 C 2.34375 -5.59375 2.550781 -5.40625 2.8125 -5.15625 C 3.070312 -4.90625 3.351562 -4.625 3.65625 -4.3125 C 3.957031 -4.007812 4.253906 -3.691406 4.546875 -3.359375 C 4.835938 -3.023438 5.109375 -2.710938 5.359375 -2.421875 C 5.617188 -2.128906 5.816406 -1.875 5.953125 -1.65625 C 6.203125 -1.320312 6.359375 -1.0625 6.421875 -0.875 C 6.492188 -0.695312 6.53125 -0.550781 6.53125 -0.4375 C 6.53125 -0.238281 6.457031 -0.0859375 6.3125 0.015625 C 6.175781 0.117188 5.988281 0.171875 5.75 0.171875 Z M 5.75 0.171875 "></path></g></g><g style="fill:#4caf50;fill-opacity:1;"><g transform="translate(48.881695, 60.892714)"><path style="stroke:none" d="M 5.25 0.171875 C 4.882812 0.171875 4.566406 0.078125 4.296875 -0.109375 C 4.035156 -0.304688 3.769531 -0.625 3.5 -1.0625 C 3.332031 -1.320312 3.148438 -1.660156 2.953125 -2.078125 C 2.753906 -2.492188 2.554688 -2.929688 2.359375 -3.390625 C 2.171875 -3.859375 2.003906 -4.273438 1.859375 -4.640625 C 1.648438 -5.203125 1.453125 -5.664062 1.265625 -6.03125 C 1.085938 -6.394531 0.9375 -6.707031 0.8125 -6.96875 C 0.695312 -7.238281 0.609375 -7.476562 0.546875 -7.6875 C 0.484375 -7.894531 0.453125 -8.125 0.453125 -8.375 C 0.453125 -8.632812 0.535156 -8.851562 0.703125 -9.03125 C 0.878906 -9.207031 1.164062 -9.296875 1.5625 -9.296875 C 1.945312 -9.296875 2.269531 -9.207031 2.53125 -9.03125 C 2.800781 -8.851562 3.039062 -8.609375 3.25 -8.296875 C 3.457031 -7.992188 3.640625 -7.617188 3.796875 -7.171875 C 3.960938 -6.734375 4.132812 -6.269531 4.3125 -5.78125 C 4.5 -5.300781 4.6875 -4.820312 4.875 -4.34375 C 5.070312 -3.863281 5.265625 -3.398438 5.453125 -2.953125 L 4.75 -3.109375 C 5.039062 -3.671875 5.3125 -4.195312 5.5625 -4.6875 C 5.8125 -5.175781 6.0625 -5.644531 6.3125 -6.09375 C 6.570312 -6.550781 6.847656 -6.992188 7.140625 -7.421875 C 7.441406 -7.859375 7.773438 -8.296875 8.140625 -8.734375 C 8.304688 -8.941406 8.488281 -9.09375 8.6875 -9.1875 C 8.882812 -9.28125 9.101562 -9.328125 9.34375 -9.328125 C 9.570312 -9.328125 9.769531 -9.257812 9.9375 -9.125 C 10.101562 -9 10.226562 -8.835938 10.3125 -8.640625 C 10.40625 -8.441406 10.453125 -8.226562 10.453125 -8 C 10.453125 -7.757812 10.421875 -7.523438 10.359375 -7.296875 C 10.304688 -7.066406 10.21875 -6.863281 10.09375 -6.6875 C 9.71875 -6.15625 9.375 -5.660156 9.0625 -5.203125 C 8.75 -4.742188 8.453125 -4.289062 8.171875 -3.84375 C 7.890625 -3.40625 7.601562 -2.929688 7.3125 -2.421875 C 7.03125 -1.910156 6.738281 -1.316406 6.4375 -0.640625 C 6.28125 -0.347656 6.113281 -0.140625 5.9375 -0.015625 C 5.769531 0.109375 5.539062 0.171875 5.25 0.171875 Z M 5.25 0.171875 "></path></g></g><g style="fill:#023047;fill-opacity:1;"><g transform="translate(36.630728, 24.032829)"><path style="stroke:none" d="M 3.453125 -7.078125 C 3.609375 -7.066406 3.753906 -7.019531 3.890625 -6.9375 C 4.023438 -6.851562 4.125 -6.734375 4.1875 -6.578125 L 6.625 -1.109375 C 6.65625 -1.054688 6.675781 -1 6.6875 -0.9375 C 6.695312 -0.875 6.703125 -0.8125 6.703125 -0.75 C 6.703125 -0.519531 6.617188 -0.320312 6.453125 -0.15625 C 6.285156 0.0078125 6.085938 0.09375 5.859375 0.09375 C 5.679688 0.09375 5.519531 0.0507812 5.375 -0.03125 C 5.238281 -0.113281 5.140625 -0.238281 5.078125 -0.40625 L 4.671875 -1.546875 L 2.1875 -1.546875 L 1.78125 -0.40625 C 1.71875 -0.238281 1.613281 -0.113281 1.46875 -0.03125 C 1.332031 0.0507812 1.175781 0.09375 1 0.09375 C 0.769531 0.09375 0.570312 0.0078125 0.40625 -0.15625 C 0.238281 -0.320312 0.15625 -0.519531 0.15625 -0.75 C 0.15625 -0.875 0.179688 -0.992188 0.234375 -1.109375 L 2.65625 -6.578125 C 2.726562 -6.734375 2.828125 -6.851562 2.953125 -6.9375 C 3.085938 -7.03125 3.238281 -7.078125 3.40625 -7.078125 C 3.414062 -7.078125 3.421875 -7.078125 3.421875 -7.078125 C 3.429688 -7.078125 3.441406 -7.078125 3.453125 -7.078125 Z M 4.203125 -2.875 L 3.421875 -4.984375 L 2.65625 -2.875 Z M 4.203125 -2.875 "></path></g></g><g style="fill:#023047;fill-opacity:1;"><g transform="translate(43.467859, 24.032829)"><path style="stroke:none" d="M 4.875 -5.53125 C 5.101562 -5.394531 5.21875 -5.195312 5.21875 -4.9375 C 5.21875 -4.832031 5.1875 -4.722656 5.125 -4.609375 L 4.9375 -4.28125 C 5.332031 -3.820312 5.53125 -3.226562 5.53125 -2.5 C 5.53125 -1.738281 5.3125 -1.117188 4.875 -0.640625 C 5.144531 -0.390625 5.28125 -0.0390625 5.28125 0.40625 C 5.28125 0.90625 5.09375 1.3125 4.71875 1.625 C 4.351562 1.9375 3.75 2.09375 2.90625 2.09375 C 2.382812 2.09375 1.914062 2.015625 1.5 1.859375 C 1.09375 1.703125 0.816406 1.484375 0.671875 1.203125 C 0.660156 1.179688 0.648438 1.144531 0.640625 1.09375 C 0.628906 1.050781 0.625 1.015625 0.625 0.984375 C 0.625 0.804688 0.679688 0.65625 0.796875 0.53125 C 0.921875 0.40625 1.070312 0.34375 1.25 0.34375 C 1.363281 0.34375 1.46875 0.375 1.5625 0.4375 C 1.78125 0.582031 1.992188 0.691406 2.203125 0.765625 C 2.410156 0.835938 2.628906 0.875 2.859375 0.875 C 3.160156 0.875 3.378906 0.820312 3.515625 0.71875 C 3.660156 0.625 3.734375 0.492188 3.734375 0.328125 C 3.734375 0.203125 3.695312 0.101562 3.625 0.03125 C 3.519531 0.0507812 3.410156 0.0664062 3.296875 0.078125 C 3.179688 0.0859375 3.0625 0.09375 2.9375 0.09375 C 2.394531 0.09375 1.929688 -0.015625 1.546875 -0.234375 C 1.160156 -0.453125 0.863281 -0.753906 0.65625 -1.140625 C 0.457031 -1.523438 0.359375 -1.976562 0.359375 -2.5 C 0.359375 -3.007812 0.457031 -3.457031 0.65625 -3.84375 C 0.863281 -4.226562 1.160156 -4.53125 1.546875 -4.75 C 1.929688 -4.96875 2.394531 -5.078125 2.9375 -5.078125 C 3.09375 -5.078125 3.238281 -5.066406 3.375 -5.046875 C 3.507812 -5.035156 3.640625 -5.015625 3.765625 -4.984375 L 3.953125 -5.296875 C 4.078125 -5.515625 4.269531 -5.625 4.53125 -5.625 C 4.632812 -5.625 4.75 -5.59375 4.875 -5.53125 Z M 2.9375 -3.765625 C 2.613281 -3.765625 2.359375 -3.648438 2.171875 -3.421875 C 1.992188 -3.203125 1.90625 -2.894531 1.90625 -2.5 C 1.90625 -2.09375 1.992188 -1.773438 2.171875 -1.546875 C 2.359375 -1.328125 2.613281 -1.21875 2.9375 -1.21875 C 3.269531 -1.21875 3.523438 -1.328125 3.703125 -1.546875 C 3.890625 -1.773438 3.984375 -2.09375 3.984375 -2.5 C 3.984375 -2.894531 3.890625 -3.203125 3.703125 -3.421875 C 3.523438 -3.648438 3.269531 -3.765625 2.9375 -3.765625 Z M 2.9375 -3.765625 "></path></g></g><g style="fill:#023047;fill-opacity:1;"><g transform="translate(49.44785, 24.032829)"><path style="stroke:none" d="M 2.9375 -3.734375 C 2.613281 -3.734375 2.359375 -3.625 2.171875 -3.40625 C 1.984375 -3.1875 1.890625 -2.882812 1.890625 -2.5 C 1.890625 -2.101562 1.984375 -1.796875 2.171875 -1.578125 C 2.359375 -1.359375 2.613281 -1.25 2.9375 -1.25 C 3.269531 -1.25 3.523438 -1.359375 3.703125 -1.578125 C 3.890625 -1.796875 3.984375 -2.101562 3.984375 -2.5 C 3.984375 -2.882812 3.890625 -3.1875 3.703125 -3.40625 C 3.523438 -3.625 3.269531 -3.734375 2.9375 -3.734375 Z M 2.9375 -5.078125 C 3.488281 -5.078125 3.957031 -4.96875 4.34375 -4.75 C 4.726562 -4.53125 5.019531 -4.226562 5.21875 -3.84375 C 5.414062 -3.457031 5.515625 -3.007812 5.515625 -2.5 C 5.515625 -1.976562 5.414062 -1.523438 5.21875 -1.140625 C 5.019531 -0.753906 4.726562 -0.453125 4.34375 -0.234375 C 3.957031 -0.015625 3.488281 0.09375 2.9375 0.09375 C 2.394531 0.09375 1.929688 -0.015625 1.546875 -0.234375 C 1.160156 -0.453125 0.863281 -0.753906 0.65625 -1.140625 C 0.457031 -1.523438 0.359375 -1.976562 0.359375 -2.5 C 0.359375 -3.007812 0.457031 -3.457031 0.65625 -3.84375 C 0.863281 -4.226562 1.160156 -4.53125 1.546875 -4.75 C 1.929688 -4.96875 2.394531 -5.078125 2.9375 -5.078125 Z M 2.9375 -5.078125 "></path></g></g></g></svg></svg></g></g></svg>