<svg xmlns="http://www.w3.org/2000/svg" xmlns:xlink="http://www.w3.org/1999/xlink" width="424" zoomAndPan="magnify" viewBox="0 0 318 146.249994" height="195" preserveAspectRatio="xMidYMid meet" version="1.2"><defs><clipPath id="e5e059a4f5"><path d="M 0.8125 0 L 317.1875 0 L 317.1875 145.503906 L 0.8125 145.503906 Z M 0.8125 0 "/></clipPath><clipPath id="70667460a8"><path d="M 0.8125 5.941406 L 139.914062 5.941406 L 139.914062 145.042969 L 0.8125 145.042969 Z M 0.8125 5.941406 "/></clipPath><clipPath id="908bbc3754"><path d="M 70.363281 5.941406 C 31.949219 5.941406 0.8125 37.082031 0.8125 75.492188 C 0.8125 113.90625 31.949219 145.042969 70.363281 145.042969 C 108.773438 145.042969 139.914062 113.90625 139.914062 75.492188 C 139.914062 37.082031 108.773438 5.941406 70.363281 5.941406 Z M 70.363281 5.941406 "/></clipPath><clipPath id="a0e4b56c11"><path d="M 25.34375 40.214844 L 114.890625 40.214844 L 114.890625 117.101562 L 25.34375 117.101562 Z M 25.34375 40.214844 "/></clipPath><clipPath id="29b97151e3"><path d="M 90 33.53125 L 97 33.53125 L 97 50 L 90 50 Z M 90 33.53125 "/></clipPath></defs><g id="6fdb7909e4"><g clip-rule="nonzero" clip-path="url(#e5e059a4f5)"><path style=" stroke:none;fill-rule:nonzero;fill:#ffffff;fill-opacity:1;" d="M 0.8125 0 L 317.1875 0 L 317.1875 145.503906 L 0.8125 145.503906 Z M 0.8125 0 "/></g><g style="fill:#023047;fill-opacity:1;"><g transform="translate(146.031543, 71.284376)"><path style="stroke:none" d="M 14.234375 -25.765625 C 16.921875 -25.765625 19.210938 -25.207031 21.109375 -24.09375 C 23.003906 -22.976562 24.457031 -21.441406 25.46875 -19.484375 C 26.488281 -17.535156 27 -15.28125 27 -12.71875 C 27 -10.519531 26.625 -8.546875 25.875 -6.796875 C 25.125 -5.046875 24.046875 -3.585938 22.640625 -2.421875 L 24.640625 0.1875 C 24.972656 0.59375 25.140625 1.070312 25.140625 1.625 C 25.140625 2.28125 24.914062 2.835938 24.46875 3.296875 C 24.03125 3.753906 23.484375 3.984375 22.828125 3.984375 C 22.023438 3.984375 21.394531 3.679688 20.9375 3.078125 L 18.4375 -0.21875 C 17.1875 0.144531 15.785156 0.328125 14.234375 0.328125 C 11.554688 0.328125 9.269531 -0.222656 7.375 -1.328125 C 5.476562 -2.441406 4.019531 -3.976562 3 -5.9375 C 1.988281 -7.894531 1.484375 -10.15625 1.484375 -12.71875 C 1.484375 -15.28125 1.988281 -17.535156 3 -19.484375 C 4.019531 -21.441406 5.476562 -22.976562 7.375 -24.09375 C 9.269531 -25.207031 11.554688 -25.765625 14.234375 -25.765625 Z M 14.234375 -21.046875 C 11.867188 -21.046875 10.039062 -20.296875 8.75 -18.796875 C 7.457031 -17.304688 6.8125 -15.28125 6.8125 -12.71875 C 6.8125 -10.15625 7.457031 -8.117188 8.75 -6.609375 C 10.039062 -5.097656 11.867188 -4.34375 14.234375 -4.34375 C 16.609375 -4.34375 18.453125 -5.097656 19.765625 -6.609375 C 21.078125 -8.117188 21.734375 -10.15625 21.734375 -12.71875 C 21.734375 -15.28125 21.078125 -17.304688 19.765625 -18.796875 C 18.453125 -20.296875 16.609375 -21.046875 14.234375 -21.046875 Z M 14.234375 -21.046875 "/></g></g><g style="fill:#023047;fill-opacity:1;"><g transform="translate(174.435313, 71.284376)"><path style="stroke:none" d="M 4.5625 -18.484375 C 5.363281 -18.484375 5.972656 -18.242188 6.390625 -17.765625 C 6.816406 -17.296875 7.03125 -16.6875 7.03125 -15.9375 L 7.03125 -7.421875 C 7.03125 -6.316406 7.328125 -5.441406 7.921875 -4.796875 C 8.515625 -4.160156 9.328125 -3.84375 10.359375 -3.84375 C 11.421875 -3.84375 12.25 -4.160156 12.84375 -4.796875 C 13.4375 -5.441406 13.734375 -6.316406 13.734375 -7.421875 L 13.734375 -15.9375 C 13.734375 -16.71875 13.929688 -17.335938 14.328125 -17.796875 C 14.722656 -18.253906 15.320312 -18.484375 16.125 -18.484375 C 16.914062 -18.484375 17.515625 -18.253906 17.921875 -17.796875 C 18.335938 -17.335938 18.546875 -16.71875 18.546875 -15.9375 L 18.546875 -1.84375 C 18.546875 -1.164062 18.363281 -0.628906 18 -0.234375 C 17.644531 0.160156 17.117188 0.359375 16.421875 0.359375 C 15.742188 0.359375 15.21875 0.160156 14.84375 -0.234375 C 14.46875 -0.628906 14.28125 -1.164062 14.28125 -1.84375 L 14.28125 -3.1875 C 13.769531 -2.070312 13.035156 -1.203125 12.078125 -0.578125 C 11.128906 0.046875 9.953125 0.359375 8.546875 0.359375 C 6.515625 0.359375 4.945312 -0.21875 3.84375 -1.375 C 2.75 -2.53125 2.203125 -4.175781 2.203125 -6.3125 L 2.203125 -15.9375 C 2.203125 -16.6875 2.394531 -17.296875 2.78125 -17.765625 C 3.175781 -18.242188 3.769531 -18.484375 4.5625 -18.484375 Z M 4.5625 -18.484375 "/></g></g><g style="fill:#023047;fill-opacity:1;"><g transform="translate(195.013558, 71.284376)"><path style="stroke:none" d="M 9.8125 -18.484375 C 12.476562 -18.484375 14.476562 -17.859375 15.8125 -16.609375 C 17.15625 -15.367188 17.828125 -13.578125 17.828125 -11.234375 L 17.828125 -1.8125 C 17.828125 -1.15625 17.65625 -0.628906 17.3125 -0.234375 C 16.976562 0.160156 16.460938 0.359375 15.765625 0.359375 C 15.085938 0.359375 14.566406 0.160156 14.203125 -0.234375 C 13.835938 -0.628906 13.65625 -1.15625 13.65625 -1.8125 L 13.65625 -3.84375 C 13.125 -2.539062 12.289062 -1.515625 11.15625 -0.765625 C 10.019531 -0.015625 8.617188 0.359375 6.953125 0.359375 C 5.390625 0.359375 4.09375 -0.09375 3.0625 -1 C 2.03125 -1.90625 1.515625 -3.238281 1.515625 -5 C 1.515625 -6.613281 1.984375 -7.898438 2.921875 -8.859375 C 3.867188 -9.816406 5.207031 -10.507812 6.9375 -10.9375 C 8.664062 -11.375 10.722656 -11.617188 13.109375 -11.671875 C 13.085938 -12.628906 12.726562 -13.347656 12.03125 -13.828125 C 11.332031 -14.316406 10.414062 -14.5625 9.28125 -14.5625 C 8.476562 -14.5625 7.71875 -14.441406 7 -14.203125 C 6.289062 -13.960938 5.660156 -13.671875 5.109375 -13.328125 C 5.015625 -13.253906 4.890625 -13.210938 4.734375 -13.203125 C 4.578125 -13.191406 4.425781 -13.1875 4.28125 -13.1875 C 3.695312 -13.1875 3.222656 -13.382812 2.859375 -13.78125 C 2.492188 -14.1875 2.3125 -14.640625 2.3125 -15.140625 C 2.3125 -15.429688 2.398438 -15.703125 2.578125 -15.953125 C 2.765625 -16.210938 2.941406 -16.425781 3.109375 -16.59375 C 3.765625 -17.144531 4.660156 -17.597656 5.796875 -17.953125 C 6.929688 -18.304688 8.269531 -18.484375 9.8125 -18.484375 Z M 13.109375 -7.96875 L 13.109375 -8.40625 C 10.578125 -8.382812 8.816406 -8.132812 7.828125 -7.65625 C 6.835938 -7.1875 6.34375 -6.492188 6.34375 -5.578125 C 6.34375 -4.898438 6.582031 -4.390625 7.0625 -4.046875 C 7.550781 -3.710938 8.117188 -3.546875 8.765625 -3.546875 C 9.972656 -3.546875 11 -3.953125 11.84375 -4.765625 C 12.6875 -5.578125 13.109375 -6.644531 13.109375 -7.96875 Z M 13.109375 -7.96875 "/></g></g><g style="fill:#023047;fill-opacity:1;"><g transform="translate(214.939673, 71.284376)"><path style="stroke:none" d="M 4.3125 -18.484375 C 5.007812 -18.484375 5.539062 -18.28125 5.90625 -17.875 C 6.269531 -17.476562 6.453125 -16.941406 6.453125 -16.265625 L 6.453125 -14.921875 C 6.953125 -16.035156 7.679688 -16.90625 8.640625 -17.53125 C 9.597656 -18.164062 10.773438 -18.484375 12.171875 -18.484375 C 14.203125 -18.484375 15.769531 -17.90625 16.875 -16.75 C 17.988281 -15.601562 18.546875 -13.957031 18.546875 -11.8125 L 18.546875 -2.171875 C 18.546875 -1.421875 18.335938 -0.8125 17.921875 -0.34375 C 17.515625 0.125 16.914062 0.359375 16.125 0.359375 C 15.320312 0.359375 14.722656 0.125 14.328125 -0.34375 C 13.929688 -0.8125 13.734375 -1.421875 13.734375 -2.171875 L 13.734375 -10.6875 C 13.734375 -11.820312 13.4375 -12.703125 12.84375 -13.328125 C 12.25 -13.960938 11.421875 -14.28125 10.359375 -14.28125 C 9.328125 -14.28125 8.515625 -13.960938 7.921875 -13.328125 C 7.328125 -12.703125 7.03125 -11.820312 7.03125 -10.6875 L 7.03125 -2.171875 C 7.03125 -1.421875 6.816406 -0.8125 6.390625 -0.34375 C 5.972656 0.125 5.363281 0.359375 4.5625 0.359375 C 3.769531 0.359375 3.175781 0.125 2.78125 -0.34375 C 2.394531 -0.8125 2.203125 -1.421875 2.203125 -2.171875 L 2.203125 -16.265625 C 2.203125 -16.941406 2.382812 -17.476562 2.75 -17.875 C 3.113281 -18.28125 3.632812 -18.484375 4.3125 -18.484375 Z M 4.3125 -18.484375 "/></g></g><g style="fill:#023047;fill-opacity:1;"><g transform="translate(235.517918, 71.284376)"><path style="stroke:none" d="M 1.515625 -9.0625 C 1.515625 -12.03125 2.132812 -14.34375 3.375 -16 C 4.625 -17.65625 6.398438 -18.484375 8.703125 -18.484375 C 10.941406 -18.484375 12.691406 -17.6875 13.953125 -16.09375 L 13.953125 -23.1875 C 13.953125 -23.957031 14.15625 -24.570312 14.5625 -25.03125 C 14.976562 -25.488281 15.582031 -25.71875 16.375 -25.71875 C 17.175781 -25.71875 17.773438 -25.488281 18.171875 -25.03125 C 18.566406 -24.570312 18.765625 -23.957031 18.765625 -23.1875 L 18.765625 -1.84375 C 18.765625 -1.164062 18.585938 -0.628906 18.234375 -0.234375 C 17.890625 0.160156 17.367188 0.359375 16.671875 0.359375 C 15.992188 0.359375 15.472656 0.160156 15.109375 -0.234375 C 14.742188 -0.628906 14.5625 -1.164062 14.5625 -1.84375 L 14.5625 -2.9375 C 13.332031 -0.738281 11.378906 0.359375 8.703125 0.359375 C 6.398438 0.359375 4.625 -0.46875 3.375 -2.125 C 2.132812 -3.78125 1.515625 -6.09375 1.515625 -9.0625 Z M 6.34375 -9.0625 C 6.34375 -7.363281 6.664062 -6.066406 7.3125 -5.171875 C 7.96875 -4.285156 8.910156 -3.84375 10.140625 -3.84375 C 11.378906 -3.84375 12.320312 -4.285156 12.96875 -5.171875 C 13.625 -6.066406 13.953125 -7.363281 13.953125 -9.0625 C 13.953125 -10.769531 13.625 -12.066406 12.96875 -12.953125 C 12.320312 -13.835938 11.378906 -14.28125 10.140625 -14.28125 C 8.910156 -14.28125 7.96875 -13.835938 7.3125 -12.953125 C 6.664062 -12.066406 6.34375 -10.769531 6.34375 -9.0625 Z M 6.34375 -9.0625 "/></g></g><g style="fill:#023047;fill-opacity:1;"><g transform="translate(256.458448, 71.284376)"><path style="stroke:none" d="M 10.578125 -14.28125 C 9.222656 -14.28125 8.171875 -13.816406 7.421875 -12.890625 C 6.679688 -11.972656 6.3125 -10.695312 6.3125 -9.0625 C 6.3125 -7.414062 6.679688 -6.132812 7.421875 -5.21875 C 8.171875 -4.300781 9.222656 -3.84375 10.578125 -3.84375 C 11.929688 -3.84375 12.988281 -4.300781 13.75 -5.21875 C 14.507812 -6.132812 14.890625 -7.414062 14.890625 -9.0625 C 14.890625 -10.695312 14.507812 -11.972656 13.75 -12.890625 C 12.988281 -13.816406 11.929688 -14.28125 10.578125 -14.28125 Z M 10.578125 -18.484375 C 12.515625 -18.484375 14.15625 -18.085938 15.5 -17.296875 C 16.851562 -16.515625 17.894531 -15.414062 18.625 -14 C 19.351562 -12.59375 19.71875 -10.945312 19.71875 -9.0625 C 19.71875 -7.195312 19.351562 -5.550781 18.625 -4.125 C 17.894531 -2.707031 16.851562 -1.601562 15.5 -0.8125 C 14.15625 -0.03125 12.515625 0.359375 10.578125 0.359375 C 8.671875 0.359375 7.035156 -0.03125 5.671875 -0.8125 C 4.304688 -1.601562 3.265625 -2.707031 2.546875 -4.125 C 1.835938 -5.550781 1.484375 -7.195312 1.484375 -9.0625 C 1.484375 -10.945312 1.835938 -12.59375 2.546875 -14 C 3.265625 -15.414062 4.304688 -16.515625 5.671875 -17.296875 C 7.035156 -18.085938 8.671875 -18.484375 10.578125 -18.484375 Z M 10.578125 -18.484375 "/></g></g><g style="fill:#4caf50;fill-opacity:1;"><g transform="translate(146.031543, 114.92376)"><path style="stroke:none" d="M 11.484375 -9.53125 C 10.804688 -9.53125 10.3125 -9.539062 10 -9.5625 C 9.03125 -5.164062 8.546875 -2.21875 8.546875 -0.71875 C 7.191406 -0.09375 5.414062 0.21875 3.21875 0.21875 C 2.613281 0.21875 2.035156 0.179688 1.484375 0.109375 C 1.484375 -1.410156 2.144531 -4.941406 3.46875 -10.484375 C 4.800781 -16.035156 5.46875 -19.472656 5.46875 -20.796875 C 5.46875 -21.210938 5.328125 -21.6875 5.046875 -22.21875 C 4.773438 -22.75 4.492188 -23.171875 4.203125 -23.484375 L 3.796875 -23.984375 L 3.953125 -24.859375 C 4.867188 -25.023438 6.421875 -25.207031 8.609375 -25.40625 C 10.796875 -25.613281 12.804688 -25.71875 14.640625 -25.71875 C 17.347656 -25.71875 19.351562 -25.160156 20.65625 -24.046875 C 21.957031 -22.941406 22.609375 -21.445312 22.609375 -19.5625 C 22.609375 -16.644531 21.671875 -14.242188 19.796875 -12.359375 C 17.929688 -10.472656 15.160156 -9.53125 11.484375 -9.53125 Z M 11.40625 -12.640625 C 12.757812 -12.640625 13.804688 -13.410156 14.546875 -14.953125 C 15.285156 -16.503906 15.65625 -18.367188 15.65625 -20.546875 C 15.65625 -22.304688 15.070312 -23.1875 13.90625 -23.1875 L 12.75 -23.046875 C 12.75 -22.097656 12.070312 -18.628906 10.71875 -12.640625 Z M 11.40625 -12.640625 "/></g></g><g style="fill:#4caf50;fill-opacity:1;"><g transform="translate(167.154105, 114.92376)"><path style="stroke:none" d="M 6.8125 0.4375 C 4.925781 0.4375 3.4375 -0.160156 2.34375 -1.359375 C 1.257812 -2.554688 0.71875 -4.238281 0.71875 -6.40625 C 0.71875 -9.070312 1.503906 -11.328125 3.078125 -13.171875 C 4.648438 -15.015625 6.71875 -15.9375 9.28125 -15.9375 L 10.90625 -15.796875 C 11.488281 -15.960938 12.03125 -16.046875 12.53125 -16.046875 C 13.738281 -16.046875 14.601562 -15.632812 15.125 -14.8125 C 15.644531 -14 15.941406 -12.832031 16.015625 -11.3125 C 17.023438 -11.351562 17.992188 -11.507812 18.921875 -11.78125 L 19.421875 -11.921875 C 19.585938 -11.753906 19.707031 -11.25 19.78125 -10.40625 L 19.8125 -10 C 18.726562 -9.445312 17.398438 -9.015625 15.828125 -8.703125 C 15.296875 -6.140625 14.242188 -3.972656 12.671875 -2.203125 C 11.109375 -0.441406 9.15625 0.4375 6.8125 0.4375 Z M 7.53125 -6.5625 C 7.53125 -4.3125 8.097656 -3.1875 9.234375 -3.1875 C 10.035156 -3.1875 10.851562 -3.691406 11.6875 -4.703125 C 12.519531 -5.722656 13.09375 -6.957031 13.40625 -8.40625 C 10.9375 -8.40625 9.703125 -9.585938 9.703125 -11.953125 C 9.703125 -12.367188 9.738281 -12.789062 9.8125 -13.21875 C 9.570312 -13.21875 9.394531 -13.179688 9.28125 -13.109375 C 8.863281 -12.679688 8.46875 -11.804688 8.09375 -10.484375 C 7.71875 -9.171875 7.53125 -7.863281 7.53125 -6.5625 Z M 7.53125 -6.5625 "/></g></g><g style="fill:#4caf50;fill-opacity:1;"><g transform="translate(183.31304, 114.92376)"><path style="stroke:none" d="M 13.65625 0.4375 C 12.15625 0.4375 11.191406 -0.140625 10.765625 -1.296875 C 8.921875 -0.140625 7.28125 0.4375 5.84375 0.4375 C 4.414062 0.4375 3.257812 -0.0507812 2.375 -1.03125 C 1.488281 -2.007812 1.046875 -3.597656 1.046875 -5.796875 C 1.046875 -8.671875 1.773438 -11.097656 3.234375 -13.078125 C 4.703125 -15.054688 6.59375 -16.046875 8.90625 -16.046875 C 10.039062 -16.046875 11.175781 -15.78125 12.3125 -15.25 C 13.207031 -19.332031 13.65625 -22.269531 13.65625 -24.0625 C 13.65625 -24.59375 13.617188 -25.125 13.546875 -25.65625 C 15.796875 -26.28125 17.957031 -26.59375 20.03125 -26.59375 C 20.226562 -26.28125 20.328125 -25.535156 20.328125 -24.359375 C 20.328125 -23.191406 19.773438 -20.046875 18.671875 -14.921875 C 17.578125 -9.804688 17.03125 -6.378906 17.03125 -4.640625 C 17.03125 -3.722656 17.1875 -3.265625 17.5 -3.265625 L 19.0625 -3.765625 L 19.71875 -1.921875 C 17.582031 -0.347656 15.5625 0.4375 13.65625 0.4375 Z M 8.90625 -3.21875 C 9.34375 -3.21875 9.828125 -3.363281 10.359375 -3.65625 L 10.359375 -3.703125 C 10.460938 -5.648438 10.9375 -8.726562 11.78125 -12.9375 C 11.289062 -13.082031 10.9375 -13.15625 10.71875 -13.15625 C 10.21875 -13.15625 9.773438 -12.898438 9.390625 -12.390625 C 9.003906 -11.878906 8.703125 -11.226562 8.484375 -10.4375 C 8.066406 -8.789062 7.859375 -7.175781 7.859375 -5.59375 C 7.859375 -4.007812 8.207031 -3.21875 8.90625 -3.21875 Z M 8.90625 -3.21875 "/></g></g><g style="fill:#4caf50;fill-opacity:1;"><g transform="translate(202.950132, 114.92376)"><path style="stroke:none" d="M 0.71875 -6.5625 C 0.71875 -9.550781 1.628906 -11.878906 3.453125 -13.546875 C 5.285156 -15.210938 7.539062 -16.046875 10.21875 -16.046875 C 12.082031 -16.046875 13.570312 -15.640625 14.6875 -14.828125 C 15.8125 -14.023438 16.375 -12.945312 16.375 -11.59375 C 16.375 -10.601562 16.070312 -9.722656 15.46875 -8.953125 C 14.863281 -8.179688 14.128906 -7.585938 13.265625 -7.171875 C 11.429688 -6.347656 9.835938 -5.851562 8.484375 -5.6875 L 7.578125 -5.578125 C 7.835938 -3.984375 8.632812 -3.1875 9.96875 -3.1875 C 10.539062 -3.1875 11.175781 -3.3125 11.875 -3.5625 C 12.582031 -3.820312 13.140625 -4.082031 13.546875 -4.34375 L 14.171875 -4.703125 L 15.328125 -3.15625 C 15.328125 -3.15625 15.191406 -3.019531 14.921875 -2.75 C 14.785156 -2.601562 14.441406 -2.316406 13.890625 -1.890625 C 13.347656 -1.472656 12.78125 -1.109375 12.1875 -0.796875 C 11.601562 -0.484375 10.847656 -0.203125 9.921875 0.046875 C 9.003906 0.304688 8.085938 0.4375 7.171875 0.4375 C 5.117188 0.4375 3.53125 -0.160156 2.40625 -1.359375 C 1.28125 -2.554688 0.71875 -4.289062 0.71875 -6.5625 Z M 7.421875 -7.96875 C 8.128906 -8.0625 8.832031 -8.632812 9.53125 -9.6875 C 10.226562 -10.738281 10.578125 -11.617188 10.578125 -12.328125 C 10.578125 -13.046875 10.375 -13.40625 9.96875 -13.40625 C 9.363281 -13.40625 8.804688 -12.929688 8.296875 -11.984375 C 7.785156 -11.046875 7.492188 -9.707031 7.421875 -7.96875 Z M 7.421875 -7.96875 "/></g></g><g style="fill:#4caf50;fill-opacity:1;"><g transform="translate(218.74676, 114.92376)"><path style="stroke:none" d="M 9.5625 -10.25 C 9.5625 -10.007812 9.816406 -9.804688 10.328125 -9.640625 C 10.398438 -9.617188 10.523438 -9.570312 10.703125 -9.5 C 10.890625 -9.425781 11.046875 -9.367188 11.171875 -9.328125 C 11.304688 -9.296875 11.410156 -9.265625 11.484375 -9.234375 C 11.316406 -8.484375 11.039062 -7.84375 10.65625 -7.3125 C 8.550781 -7.3125 6.863281 -7.679688 5.59375 -8.421875 C 4.332031 -9.160156 3.703125 -10.226562 3.703125 -11.625 C 3.703125 -12.519531 4.160156 -13.582031 5.078125 -14.8125 C 5.410156 -15.25 5.890625 -15.851562 6.515625 -16.625 C 8.960938 -19.625 10.1875 -21.546875 10.1875 -22.390625 C 10.1875 -22.828125 9.796875 -23.046875 9.015625 -23.046875 C 8.023438 -21.304688 7.085938 -20.015625 6.203125 -19.171875 C 5.347656 -19.285156 4.394531 -19.769531 3.34375 -20.625 C 2.300781 -21.488281 1.78125 -22.164062 1.78125 -22.65625 C 1.78125 -23.15625 2.332031 -23.789062 3.4375 -24.5625 C 4.550781 -25.332031 5.867188 -25.71875 7.390625 -25.71875 C 9.679688 -25.71875 11.5 -25.132812 12.84375 -23.96875 C 14.1875 -22.800781 14.859375 -21.3125 14.859375 -19.5 C 14.859375 -18.769531 14.65625 -17.972656 14.25 -17.109375 C 13.851562 -16.253906 13.492188 -15.597656 13.171875 -15.140625 C 12.847656 -14.679688 12.359375 -14.066406 11.703125 -13.296875 C 10.273438 -11.722656 9.5625 -10.707031 9.5625 -10.25 Z M 5.9375 0.4375 C 4.875 0.4375 4.046875 0.171875 3.453125 -0.359375 C 2.867188 -0.890625 2.578125 -1.585938 2.578125 -2.453125 C 2.578125 -3.328125 2.96875 -4.078125 3.75 -4.703125 C 4.53125 -5.335938 5.457031 -5.65625 6.53125 -5.65625 C 7.613281 -5.65625 8.40625 -5.390625 8.90625 -4.859375 C 9.414062 -4.328125 9.671875 -3.648438 9.671875 -2.828125 C 9.671875 -2.003906 9.3125 -1.253906 8.59375 -0.578125 C 7.882812 0.0976562 7 0.4375 5.9375 0.4375 Z M 5.9375 0.4375 "/></g></g><g clip-rule="nonzero" clip-path="url(#70667460a8)"><g clip-rule="nonzero" clip-path="url(#908bbc3754)"><path style=" stroke:none;fill-rule:nonzero;fill:#4caf50;fill-opacity:1;" d="M 0.8125 5.941406 L 139.914062 5.941406 L 139.914062 145.042969 L 0.8125 145.042969 Z M 0.8125 5.941406 "/></g></g><path style=" stroke:none;fill-rule:nonzero;fill:#023047;fill-opacity:1;" d="M 51.5625 43.28125 L 88.136719 43.28125 C 88.472656 43.28125 88.746094 43.007812 88.746094 42.667969 L 88.746094 40.835938 C 88.746094 40.496094 88.472656 40.222656 88.136719 40.222656 L 51.5625 40.222656 C 51.226562 40.222656 50.953125 40.496094 50.953125 40.835938 L 50.953125 42.667969 C 50.953125 43.007812 51.226562 43.28125 51.5625 43.28125 "/><g clip-rule="nonzero" clip-path="url(#a0e4b56c11)"><path style=" stroke:none;fill-rule:nonzero;fill:#023047;fill-opacity:1;" d="M 105.371094 114.046875 L 34.867188 114.046875 C 31.296875 114.046875 28.402344 111.152344 28.402344 107.582031 L 28.402344 64.550781 L 111.832031 64.550781 L 111.832031 107.582031 C 111.832031 111.152344 108.941406 114.046875 105.371094 114.046875 Z M 105.371094 40.222656 L 98.53125 40.222656 C 98.195312 40.222656 97.921875 40.496094 97.921875 40.835938 L 97.921875 42.667969 C 97.921875 43.007812 98.195312 43.28125 98.53125 43.28125 L 105.371094 43.28125 C 108.933594 43.28125 111.832031 46.179688 111.832031 49.75 L 111.832031 61.492188 L 28.402344 61.492188 L 28.402344 49.75 C 28.402344 46.179688 31.300781 43.28125 34.867188 43.28125 L 41.164062 43.28125 C 41.503906 43.28125 41.777344 43.007812 41.777344 42.667969 L 41.777344 40.835938 C 41.777344 40.496094 41.503906 40.222656 41.164062 40.222656 L 34.867188 40.222656 C 29.621094 40.222656 25.34375 44.496094 25.34375 49.75 L 25.34375 107.582031 C 25.34375 112.820312 29.628906 117.105469 34.867188 117.105469 L 105.371094 117.105469 C 110.605469 117.105469 114.890625 112.820312 114.890625 107.582031 L 114.890625 49.75 C 114.890625 44.496094 110.617188 40.222656 105.371094 40.222656 "/></g><path style=" stroke:none;fill-rule:nonzero;fill:#023047;fill-opacity:1;" d="M 46.363281 50.722656 C 47.882812 50.722656 49.117188 49.496094 49.117188 47.972656 L 49.117188 37.042969 C 49.117188 35.519531 47.882812 34.289062 46.363281 34.289062 C 44.839844 34.289062 43.613281 35.519531 43.613281 37.042969 L 43.613281 47.972656 C 43.613281 49.496094 44.839844 50.722656 46.363281 50.722656 "/><g clip-rule="nonzero" clip-path="url(#29b97151e3)"><path style=" stroke:none;fill-rule:nonzero;fill:#023047;fill-opacity:1;" d="M 93.332031 49.972656 C 94.851562 49.972656 96.085938 48.734375 96.085938 47.21875 L 96.085938 36.285156 C 96.085938 34.765625 94.851562 33.53125 93.332031 33.53125 C 91.8125 33.53125 90.582031 34.765625 90.582031 36.285156 L 90.582031 47.21875 C 90.582031 48.734375 91.8125 49.972656 93.332031 49.972656 "/></g><g style="fill:#023047;fill-opacity:1;"><g transform="translate(43.378347, 75.265139)"><path style="stroke:none" d="M 1.09375 0.1875 C 0.914062 0.1875 0.769531 0.140625 0.65625 0.046875 C 0.539062 -0.046875 0.472656 -0.191406 0.453125 -0.390625 C 0.429688 -0.585938 0.476562 -0.835938 0.59375 -1.140625 C 0.71875 -1.460938 0.894531 -1.816406 1.125 -2.203125 C 1.351562 -2.597656 1.632812 -3.003906 1.96875 -3.421875 C 2.300781 -3.835938 2.671875 -4.242188 3.078125 -4.640625 C 3.492188 -5.035156 3.929688 -5.390625 4.390625 -5.703125 C 4.566406 -5.828125 4.726562 -5.921875 4.875 -5.984375 C 5.019531 -6.054688 5.15625 -6.109375 5.28125 -6.140625 C 5.414062 -6.179688 5.535156 -6.203125 5.640625 -6.203125 C 5.867188 -6.203125 6.0625 -6.125 6.21875 -5.96875 C 6.375 -5.8125 6.453125 -5.59375 6.453125 -5.3125 C 6.453125 -5.125 6.398438 -4.960938 6.296875 -4.828125 C 6.203125 -4.703125 6.082031 -4.59375 5.9375 -4.5 C 5.40625 -4.1875 4.910156 -3.816406 4.453125 -3.390625 C 4.003906 -2.972656 3.585938 -2.515625 3.203125 -2.015625 C 2.816406 -1.523438 2.453125 -1.019531 2.109375 -0.5 C 1.953125 -0.25 1.789062 -0.0703125 1.625 0.03125 C 1.457031 0.132812 1.28125 0.1875 1.09375 0.1875 Z M 5.734375 0.171875 C 5.535156 0.171875 5.347656 0.125 5.171875 0.03125 C 5.003906 -0.0625 4.828125 -0.242188 4.640625 -0.515625 C 4.429688 -0.828125 4.179688 -1.15625 3.890625 -1.5 C 3.597656 -1.851562 3.285156 -2.203125 2.953125 -2.546875 C 2.628906 -2.890625 2.304688 -3.21875 1.984375 -3.53125 C 1.660156 -3.84375 1.351562 -4.109375 1.0625 -4.328125 C 0.875 -4.492188 0.71875 -4.644531 0.59375 -4.78125 C 0.476562 -4.925781 0.421875 -5.113281 0.421875 -5.34375 C 0.421875 -5.582031 0.484375 -5.785156 0.609375 -5.953125 C 0.734375 -6.117188 0.914062 -6.203125 1.15625 -6.203125 C 1.3125 -6.203125 1.460938 -6.164062 1.609375 -6.09375 C 1.753906 -6.019531 1.945312 -5.890625 2.1875 -5.703125 C 2.34375 -5.578125 2.550781 -5.390625 2.8125 -5.140625 C 3.070312 -4.890625 3.347656 -4.609375 3.640625 -4.296875 C 3.941406 -3.992188 4.238281 -3.675781 4.53125 -3.34375 C 4.832031 -3.019531 5.109375 -2.710938 5.359375 -2.421875 C 5.609375 -2.128906 5.800781 -1.875 5.9375 -1.65625 C 6.1875 -1.3125 6.34375 -1.050781 6.40625 -0.875 C 6.476562 -0.695312 6.515625 -0.550781 6.515625 -0.4375 C 6.515625 -0.238281 6.441406 -0.0859375 6.296875 0.015625 C 6.160156 0.117188 5.972656 0.171875 5.734375 0.171875 Z M 5.734375 0.171875 "/></g></g><g style="fill:#023047;fill-opacity:1;"><g transform="translate(43.378347, 91.680954)"><path style="stroke:none" d="M 1.09375 0.1875 C 0.914062 0.1875 0.769531 0.140625 0.65625 0.046875 C 0.539062 -0.046875 0.472656 -0.191406 0.453125 -0.390625 C 0.429688 -0.585938 0.476562 -0.835938 0.59375 -1.140625 C 0.71875 -1.460938 0.894531 -1.816406 1.125 -2.203125 C 1.351562 -2.597656 1.632812 -3.003906 1.96875 -3.421875 C 2.300781 -3.835938 2.671875 -4.242188 3.078125 -4.640625 C 3.492188 -5.035156 3.929688 -5.390625 4.390625 -5.703125 C 4.566406 -5.828125 4.726562 -5.921875 4.875 -5.984375 C 5.019531 -6.054688 5.15625 -6.109375 5.28125 -6.140625 C 5.414062 -6.179688 5.535156 -6.203125 5.640625 -6.203125 C 5.867188 -6.203125 6.0625 -6.125 6.21875 -5.96875 C 6.375 -5.8125 6.453125 -5.59375 6.453125 -5.3125 C 6.453125 -5.125 6.398438 -4.960938 6.296875 -4.828125 C 6.203125 -4.703125 6.082031 -4.59375 5.9375 -4.5 C 5.40625 -4.1875 4.910156 -3.816406 4.453125 -3.390625 C 4.003906 -2.972656 3.585938 -2.515625 3.203125 -2.015625 C 2.816406 -1.523438 2.453125 -1.019531 2.109375 -0.5 C 1.953125 -0.25 1.789062 -0.0703125 1.625 0.03125 C 1.457031 0.132812 1.28125 0.1875 1.09375 0.1875 Z M 5.734375 0.171875 C 5.535156 0.171875 5.347656 0.125 5.171875 0.03125 C 5.003906 -0.0625 4.828125 -0.242188 4.640625 -0.515625 C 4.429688 -0.828125 4.179688 -1.15625 3.890625 -1.5 C 3.597656 -1.851562 3.285156 -2.203125 2.953125 -2.546875 C 2.628906 -2.890625 2.304688 -3.21875 1.984375 -3.53125 C 1.660156 -3.84375 1.351562 -4.109375 1.0625 -4.328125 C 0.875 -4.492188 0.71875 -4.644531 0.59375 -4.78125 C 0.476562 -4.925781 0.421875 -5.113281 0.421875 -5.34375 C 0.421875 -5.582031 0.484375 -5.785156 0.609375 -5.953125 C 0.734375 -6.117188 0.914062 -6.203125 1.15625 -6.203125 C 1.3125 -6.203125 1.460938 -6.164062 1.609375 -6.09375 C 1.753906 -6.019531 1.945312 -5.890625 2.1875 -5.703125 C 2.34375 -5.578125 2.550781 -5.390625 2.8125 -5.140625 C 3.070312 -4.890625 3.347656 -4.609375 3.640625 -4.296875 C 3.941406 -3.992188 4.238281 -3.675781 4.53125 -3.34375 C 4.832031 -3.019531 5.109375 -2.710938 5.359375 -2.421875 C 5.609375 -2.128906 5.800781 -1.875 5.9375 -1.65625 C 6.1875 -1.3125 6.34375 -1.050781 6.40625 -0.875 C 6.476562 -0.695312 6.515625 -0.550781 6.515625 -0.4375 C 6.515625 -0.238281 6.441406 -0.0859375 6.296875 0.015625 C 6.160156 0.117188 5.972656 0.171875 5.734375 0.171875 Z M 5.734375 0.171875 "/></g></g><g style="fill:#023047;fill-opacity:1;"><g transform="translate(43.378347, 108.096769)"><path style="stroke:none" d="M 1.09375 0.1875 C 0.914062 0.1875 0.769531 0.140625 0.65625 0.046875 C 0.539062 -0.046875 0.472656 -0.191406 0.453125 -0.390625 C 0.429688 -0.585938 0.476562 -0.835938 0.59375 -1.140625 C 0.71875 -1.460938 0.894531 -1.816406 1.125 -2.203125 C 1.351562 -2.597656 1.632812 -3.003906 1.96875 -3.421875 C 2.300781 -3.835938 2.671875 -4.242188 3.078125 -4.640625 C 3.492188 -5.035156 3.929688 -5.390625 4.390625 -5.703125 C 4.566406 -5.828125 4.726562 -5.921875 4.875 -5.984375 C 5.019531 -6.054688 5.15625 -6.109375 5.28125 -6.140625 C 5.414062 -6.179688 5.535156 -6.203125 5.640625 -6.203125 C 5.867188 -6.203125 6.0625 -6.125 6.21875 -5.96875 C 6.375 -5.8125 6.453125 -5.59375 6.453125 -5.3125 C 6.453125 -5.125 6.398438 -4.960938 6.296875 -4.828125 C 6.203125 -4.703125 6.082031 -4.59375 5.9375 -4.5 C 5.40625 -4.1875 4.910156 -3.816406 4.453125 -3.390625 C 4.003906 -2.972656 3.585938 -2.515625 3.203125 -2.015625 C 2.816406 -1.523438 2.453125 -1.019531 2.109375 -0.5 C 1.953125 -0.25 1.789062 -0.0703125 1.625 0.03125 C 1.457031 0.132812 1.28125 0.1875 1.09375 0.1875 Z M 5.734375 0.171875 C 5.535156 0.171875 5.347656 0.125 5.171875 0.03125 C 5.003906 -0.0625 4.828125 -0.242188 4.640625 -0.515625 C 4.429688 -0.828125 4.179688 -1.15625 3.890625 -1.5 C 3.597656 -1.851562 3.285156 -2.203125 2.953125 -2.546875 C 2.628906 -2.890625 2.304688 -3.21875 1.984375 -3.53125 C 1.660156 -3.84375 1.351562 -4.109375 1.0625 -4.328125 C 0.875 -4.492188 0.71875 -4.644531 0.59375 -4.78125 C 0.476562 -4.925781 0.421875 -5.113281 0.421875 -5.34375 C 0.421875 -5.582031 0.484375 -5.785156 0.609375 -5.953125 C 0.734375 -6.117188 0.914062 -6.203125 1.15625 -6.203125 C 1.3125 -6.203125 1.460938 -6.164062 1.609375 -6.09375 C 1.753906 -6.019531 1.945312 -5.890625 2.1875 -5.703125 C 2.34375 -5.578125 2.550781 -5.390625 2.8125 -5.140625 C 3.070312 -4.890625 3.347656 -4.609375 3.640625 -4.296875 C 3.941406 -3.992188 4.238281 -3.675781 4.53125 -3.34375 C 4.832031 -3.019531 5.109375 -2.710938 5.359375 -2.421875 C 5.609375 -2.128906 5.800781 -1.875 5.9375 -1.65625 C 6.1875 -1.3125 6.34375 -1.050781 6.40625 -0.875 C 6.476562 -0.695312 6.515625 -0.550781 6.515625 -0.4375 C 6.515625 -0.238281 6.441406 -0.0859375 6.296875 0.015625 C 6.160156 0.117188 5.972656 0.171875 5.734375 0.171875 Z M 5.734375 0.171875 "/></g></g><g style="fill:#023047;fill-opacity:1;"><g transform="translate(59.745449, 75.265139)"><path style="stroke:none" d="M 1.09375 0.1875 C 0.914062 0.1875 0.769531 0.140625 0.65625 0.046875 C 0.539062 -0.046875 0.472656 -0.191406 0.453125 -0.390625 C 0.429688 -0.585938 0.476562 -0.835938 0.59375 -1.140625 C 0.71875 -1.460938 0.894531 -1.816406 1.125 -2.203125 C 1.351562 -2.597656 1.632812 -3.003906 1.96875 -3.421875 C 2.300781 -3.835938 2.671875 -4.242188 3.078125 -4.640625 C 3.492188 -5.035156 3.929688 -5.390625 4.390625 -5.703125 C 4.566406 -5.828125 4.726562 -5.921875 4.875 -5.984375 C 5.019531 -6.054688 5.15625 -6.109375 5.28125 -6.140625 C 5.414062 -6.179688 5.535156 -6.203125 5.640625 -6.203125 C 5.867188 -6.203125 6.0625 -6.125 6.21875 -5.96875 C 6.375 -5.8125 6.453125 -5.59375 6.453125 -5.3125 C 6.453125 -5.125 6.398438 -4.960938 6.296875 -4.828125 C 6.203125 -4.703125 6.082031 -4.59375 5.9375 -4.5 C 5.40625 -4.1875 4.910156 -3.816406 4.453125 -3.390625 C 4.003906 -2.972656 3.585938 -2.515625 3.203125 -2.015625 C 2.816406 -1.523438 2.453125 -1.019531 2.109375 -0.5 C 1.953125 -0.25 1.789062 -0.0703125 1.625 0.03125 C 1.457031 0.132812 1.28125 0.1875 1.09375 0.1875 Z M 5.734375 0.171875 C 5.535156 0.171875 5.347656 0.125 5.171875 0.03125 C 5.003906 -0.0625 4.828125 -0.242188 4.640625 -0.515625 C 4.429688 -0.828125 4.179688 -1.15625 3.890625 -1.5 C 3.597656 -1.851562 3.285156 -2.203125 2.953125 -2.546875 C 2.628906 -2.890625 2.304688 -3.21875 1.984375 -3.53125 C 1.660156 -3.84375 1.351562 -4.109375 1.0625 -4.328125 C 0.875 -4.492188 0.71875 -4.644531 0.59375 -4.78125 C 0.476562 -4.925781 0.421875 -5.113281 0.421875 -5.34375 C 0.421875 -5.582031 0.484375 -5.785156 0.609375 -5.953125 C 0.734375 -6.117188 0.914062 -6.203125 1.15625 -6.203125 C 1.3125 -6.203125 1.460938 -6.164062 1.609375 -6.09375 C 1.753906 -6.019531 1.945312 -5.890625 2.1875 -5.703125 C 2.34375 -5.578125 2.550781 -5.390625 2.8125 -5.140625 C 3.070312 -4.890625 3.347656 -4.609375 3.640625 -4.296875 C 3.941406 -3.992188 4.238281 -3.675781 4.53125 -3.34375 C 4.832031 -3.019531 5.109375 -2.710938 5.359375 -2.421875 C 5.609375 -2.128906 5.800781 -1.875 5.9375 -1.65625 C 6.1875 -1.3125 6.34375 -1.050781 6.40625 -0.875 C 6.476562 -0.695312 6.515625 -0.550781 6.515625 -0.4375 C 6.515625 -0.238281 6.441406 -0.0859375 6.296875 0.015625 C 6.160156 0.117188 5.972656 0.171875 5.734375 0.171875 Z M 5.734375 0.171875 "/></g></g><g style="fill:#023047;fill-opacity:1;"><g transform="translate(59.745449, 91.680954)"><path style="stroke:none" d="M 1.09375 0.1875 C 0.914062 0.1875 0.769531 0.140625 0.65625 0.046875 C 0.539062 -0.046875 0.472656 -0.191406 0.453125 -0.390625 C 0.429688 -0.585938 0.476562 -0.835938 0.59375 -1.140625 C 0.71875 -1.460938 0.894531 -1.816406 1.125 -2.203125 C 1.351562 -2.597656 1.632812 -3.003906 1.96875 -3.421875 C 2.300781 -3.835938 2.671875 -4.242188 3.078125 -4.640625 C 3.492188 -5.035156 3.929688 -5.390625 4.390625 -5.703125 C 4.566406 -5.828125 4.726562 -5.921875 4.875 -5.984375 C 5.019531 -6.054688 5.15625 -6.109375 5.28125 -6.140625 C 5.414062 -6.179688 5.535156 -6.203125 5.640625 -6.203125 C 5.867188 -6.203125 6.0625 -6.125 6.21875 -5.96875 C 6.375 -5.8125 6.453125 -5.59375 6.453125 -5.3125 C 6.453125 -5.125 6.398438 -4.960938 6.296875 -4.828125 C 6.203125 -4.703125 6.082031 -4.59375 5.9375 -4.5 C 5.40625 -4.1875 4.910156 -3.816406 4.453125 -3.390625 C 4.003906 -2.972656 3.585938 -2.515625 3.203125 -2.015625 C 2.816406 -1.523438 2.453125 -1.019531 2.109375 -0.5 C 1.953125 -0.25 1.789062 -0.0703125 1.625 0.03125 C 1.457031 0.132812 1.28125 0.1875 1.09375 0.1875 Z M 5.734375 0.171875 C 5.535156 0.171875 5.347656 0.125 5.171875 0.03125 C 5.003906 -0.0625 4.828125 -0.242188 4.640625 -0.515625 C 4.429688 -0.828125 4.179688 -1.15625 3.890625 -1.5 C 3.597656 -1.851562 3.285156 -2.203125 2.953125 -2.546875 C 2.628906 -2.890625 2.304688 -3.21875 1.984375 -3.53125 C 1.660156 -3.84375 1.351562 -4.109375 1.0625 -4.328125 C 0.875 -4.492188 0.71875 -4.644531 0.59375 -4.78125 C 0.476562 -4.925781 0.421875 -5.113281 0.421875 -5.34375 C 0.421875 -5.582031 0.484375 -5.785156 0.609375 -5.953125 C 0.734375 -6.117188 0.914062 -6.203125 1.15625 -6.203125 C 1.3125 -6.203125 1.460938 -6.164062 1.609375 -6.09375 C 1.753906 -6.019531 1.945312 -5.890625 2.1875 -5.703125 C 2.34375 -5.578125 2.550781 -5.390625 2.8125 -5.140625 C 3.070312 -4.890625 3.347656 -4.609375 3.640625 -4.296875 C 3.941406 -3.992188 4.238281 -3.675781 4.53125 -3.34375 C 4.832031 -3.019531 5.109375 -2.710938 5.359375 -2.421875 C 5.609375 -2.128906 5.800781 -1.875 5.9375 -1.65625 C 6.1875 -1.3125 6.34375 -1.050781 6.40625 -0.875 C 6.476562 -0.695312 6.515625 -0.550781 6.515625 -0.4375 C 6.515625 -0.238281 6.441406 -0.0859375 6.296875 0.015625 C 6.160156 0.117188 5.972656 0.171875 5.734375 0.171875 Z M 5.734375 0.171875 "/></g></g><g style="fill:#023047;fill-opacity:1;"><g transform="translate(59.745449, 108.096769)"><path style="stroke:none" d="M 1.09375 0.1875 C 0.914062 0.1875 0.769531 0.140625 0.65625 0.046875 C 0.539062 -0.046875 0.472656 -0.191406 0.453125 -0.390625 C 0.429688 -0.585938 0.476562 -0.835938 0.59375 -1.140625 C 0.71875 -1.460938 0.894531 -1.816406 1.125 -2.203125 C 1.351562 -2.597656 1.632812 -3.003906 1.96875 -3.421875 C 2.300781 -3.835938 2.671875 -4.242188 3.078125 -4.640625 C 3.492188 -5.035156 3.929688 -5.390625 4.390625 -5.703125 C 4.566406 -5.828125 4.726562 -5.921875 4.875 -5.984375 C 5.019531 -6.054688 5.15625 -6.109375 5.28125 -6.140625 C 5.414062 -6.179688 5.535156 -6.203125 5.640625 -6.203125 C 5.867188 -6.203125 6.0625 -6.125 6.21875 -5.96875 C 6.375 -5.8125 6.453125 -5.59375 6.453125 -5.3125 C 6.453125 -5.125 6.398438 -4.960938 6.296875 -4.828125 C 6.203125 -4.703125 6.082031 -4.59375 5.9375 -4.5 C 5.40625 -4.1875 4.910156 -3.816406 4.453125 -3.390625 C 4.003906 -2.972656 3.585938 -2.515625 3.203125 -2.015625 C 2.816406 -1.523438 2.453125 -1.019531 2.109375 -0.5 C 1.953125 -0.25 1.789062 -0.0703125 1.625 0.03125 C 1.457031 0.132812 1.28125 0.1875 1.09375 0.1875 Z M 5.734375 0.171875 C 5.535156 0.171875 5.347656 0.125 5.171875 0.03125 C 5.003906 -0.0625 4.828125 -0.242188 4.640625 -0.515625 C 4.429688 -0.828125 4.179688 -1.15625 3.890625 -1.5 C 3.597656 -1.851562 3.285156 -2.203125 2.953125 -2.546875 C 2.628906 -2.890625 2.304688 -3.21875 1.984375 -3.53125 C 1.660156 -3.84375 1.351562 -4.109375 1.0625 -4.328125 C 0.875 -4.492188 0.71875 -4.644531 0.59375 -4.78125 C 0.476562 -4.925781 0.421875 -5.113281 0.421875 -5.34375 C 0.421875 -5.582031 0.484375 -5.785156 0.609375 -5.953125 C 0.734375 -6.117188 0.914062 -6.203125 1.15625 -6.203125 C 1.3125 -6.203125 1.460938 -6.164062 1.609375 -6.09375 C 1.753906 -6.019531 1.945312 -5.890625 2.1875 -5.703125 C 2.34375 -5.578125 2.550781 -5.390625 2.8125 -5.140625 C 3.070312 -4.890625 3.347656 -4.609375 3.640625 -4.296875 C 3.941406 -3.992188 4.238281 -3.675781 4.53125 -3.34375 C 4.832031 -3.019531 5.109375 -2.710938 5.359375 -2.421875 C 5.609375 -2.128906 5.800781 -1.875 5.9375 -1.65625 C 6.1875 -1.3125 6.34375 -1.050781 6.40625 -0.875 C 6.476562 -0.695312 6.515625 -0.550781 6.515625 -0.4375 C 6.515625 -0.238281 6.441406 -0.0859375 6.296875 0.015625 C 6.160156 0.117188 5.972656 0.171875 5.734375 0.171875 Z M 5.734375 0.171875 "/></g></g><g style="fill:#023047;fill-opacity:1;"><g transform="translate(74.85546, 75.265139)"><path style="stroke:none" d="M 1.09375 0.1875 C 0.914062 0.1875 0.769531 0.140625 0.65625 0.046875 C 0.539062 -0.046875 0.472656 -0.191406 0.453125 -0.390625 C 0.429688 -0.585938 0.476562 -0.835938 0.59375 -1.140625 C 0.71875 -1.460938 0.894531 -1.816406 1.125 -2.203125 C 1.351562 -2.597656 1.632812 -3.003906 1.96875 -3.421875 C 2.300781 -3.835938 2.671875 -4.242188 3.078125 -4.640625 C 3.492188 -5.035156 3.929688 -5.390625 4.390625 -5.703125 C 4.566406 -5.828125 4.726562 -5.921875 4.875 -5.984375 C 5.019531 -6.054688 5.15625 -6.109375 5.28125 -6.140625 C 5.414062 -6.179688 5.535156 -6.203125 5.640625 -6.203125 C 5.867188 -6.203125 6.0625 -6.125 6.21875 -5.96875 C 6.375 -5.8125 6.453125 -5.59375 6.453125 -5.3125 C 6.453125 -5.125 6.398438 -4.960938 6.296875 -4.828125 C 6.203125 -4.703125 6.082031 -4.59375 5.9375 -4.5 C 5.40625 -4.1875 4.910156 -3.816406 4.453125 -3.390625 C 4.003906 -2.972656 3.585938 -2.515625 3.203125 -2.015625 C 2.816406 -1.523438 2.453125 -1.019531 2.109375 -0.5 C 1.953125 -0.25 1.789062 -0.0703125 1.625 0.03125 C 1.457031 0.132812 1.28125 0.1875 1.09375 0.1875 Z M 5.734375 0.171875 C 5.535156 0.171875 5.347656 0.125 5.171875 0.03125 C 5.003906 -0.0625 4.828125 -0.242188 4.640625 -0.515625 C 4.429688 -0.828125 4.179688 -1.15625 3.890625 -1.5 C 3.597656 -1.851562 3.285156 -2.203125 2.953125 -2.546875 C 2.628906 -2.890625 2.304688 -3.21875 1.984375 -3.53125 C 1.660156 -3.84375 1.351562 -4.109375 1.0625 -4.328125 C 0.875 -4.492188 0.71875 -4.644531 0.59375 -4.78125 C 0.476562 -4.925781 0.421875 -5.113281 0.421875 -5.34375 C 0.421875 -5.582031 0.484375 -5.785156 0.609375 -5.953125 C 0.734375 -6.117188 0.914062 -6.203125 1.15625 -6.203125 C 1.3125 -6.203125 1.460938 -6.164062 1.609375 -6.09375 C 1.753906 -6.019531 1.945312 -5.890625 2.1875 -5.703125 C 2.34375 -5.578125 2.550781 -5.390625 2.8125 -5.140625 C 3.070312 -4.890625 3.347656 -4.609375 3.640625 -4.296875 C 3.941406 -3.992188 4.238281 -3.675781 4.53125 -3.34375 C 4.832031 -3.019531 5.109375 -2.710938 5.359375 -2.421875 C 5.609375 -2.128906 5.800781 -1.875 5.9375 -1.65625 C 6.1875 -1.3125 6.34375 -1.050781 6.40625 -0.875 C 6.476562 -0.695312 6.515625 -0.550781 6.515625 -0.4375 C 6.515625 -0.238281 6.441406 -0.0859375 6.296875 0.015625 C 6.160156 0.117188 5.972656 0.171875 5.734375 0.171875 Z M 5.734375 0.171875 "/></g></g><g style="fill:#023047;fill-opacity:1;"><g transform="translate(92.332241, 75.265139)"><path style="stroke:none" d="M 1.09375 0.1875 C 0.914062 0.1875 0.769531 0.140625 0.65625 0.046875 C 0.539062 -0.046875 0.472656 -0.191406 0.453125 -0.390625 C 0.429688 -0.585938 0.476562 -0.835938 0.59375 -1.140625 C 0.71875 -1.460938 0.894531 -1.816406 1.125 -2.203125 C 1.351562 -2.597656 1.632812 -3.003906 1.96875 -3.421875 C 2.300781 -3.835938 2.671875 -4.242188 3.078125 -4.640625 C 3.492188 -5.035156 3.929688 -5.390625 4.390625 -5.703125 C 4.566406 -5.828125 4.726562 -5.921875 4.875 -5.984375 C 5.019531 -6.054688 5.15625 -6.109375 5.28125 -6.140625 C 5.414062 -6.179688 5.535156 -6.203125 5.640625 -6.203125 C 5.867188 -6.203125 6.0625 -6.125 6.21875 -5.96875 C 6.375 -5.8125 6.453125 -5.59375 6.453125 -5.3125 C 6.453125 -5.125 6.398438 -4.960938 6.296875 -4.828125 C 6.203125 -4.703125 6.082031 -4.59375 5.9375 -4.5 C 5.40625 -4.1875 4.910156 -3.816406 4.453125 -3.390625 C 4.003906 -2.972656 3.585938 -2.515625 3.203125 -2.015625 C 2.816406 -1.523438 2.453125 -1.019531 2.109375 -0.5 C 1.953125 -0.25 1.789062 -0.0703125 1.625 0.03125 C 1.457031 0.132812 1.28125 0.1875 1.09375 0.1875 Z M 5.734375 0.171875 C 5.535156 0.171875 5.347656 0.125 5.171875 0.03125 C 5.003906 -0.0625 4.828125 -0.242188 4.640625 -0.515625 C 4.429688 -0.828125 4.179688 -1.15625 3.890625 -1.5 C 3.597656 -1.851562 3.285156 -2.203125 2.953125 -2.546875 C 2.628906 -2.890625 2.304688 -3.21875 1.984375 -3.53125 C 1.660156 -3.84375 1.351562 -4.109375 1.0625 -4.328125 C 0.875 -4.492188 0.71875 -4.644531 0.59375 -4.78125 C 0.476562 -4.925781 0.421875 -5.113281 0.421875 -5.34375 C 0.421875 -5.582031 0.484375 -5.785156 0.609375 -5.953125 C 0.734375 -6.117188 0.914062 -6.203125 1.15625 -6.203125 C 1.3125 -6.203125 1.460938 -6.164062 1.609375 -6.09375 C 1.753906 -6.019531 1.945312 -5.890625 2.1875 -5.703125 C 2.34375 -5.578125 2.550781 -5.390625 2.8125 -5.140625 C 3.070312 -4.890625 3.347656 -4.609375 3.640625 -4.296875 C 3.941406 -3.992188 4.238281 -3.675781 4.53125 -3.34375 C 4.832031 -3.019531 5.109375 -2.710938 5.359375 -2.421875 C 5.609375 -2.128906 5.800781 -1.875 5.9375 -1.65625 C 6.1875 -1.3125 6.34375 -1.050781 6.40625 -0.875 C 6.476562 -0.695312 6.515625 -0.550781 6.515625 -0.4375 C 6.515625 -0.238281 6.441406 -0.0859375 6.296875 0.015625 C 6.160156 0.117188 5.972656 0.171875 5.734375 0.171875 Z M 5.734375 0.171875 "/></g></g><g style="fill:#023047;fill-opacity:1;"><g transform="translate(92.332241, 91.680954)"><path style="stroke:none" d="M 1.09375 0.1875 C 0.914062 0.1875 0.769531 0.140625 0.65625 0.046875 C 0.539062 -0.046875 0.472656 -0.191406 0.453125 -0.390625 C 0.429688 -0.585938 0.476562 -0.835938 0.59375 -1.140625 C 0.71875 -1.460938 0.894531 -1.816406 1.125 -2.203125 C 1.351562 -2.597656 1.632812 -3.003906 1.96875 -3.421875 C 2.300781 -3.835938 2.671875 -4.242188 3.078125 -4.640625 C 3.492188 -5.035156 3.929688 -5.390625 4.390625 -5.703125 C 4.566406 -5.828125 4.726562 -5.921875 4.875 -5.984375 C 5.019531 -6.054688 5.15625 -6.109375 5.28125 -6.140625 C 5.414062 -6.179688 5.535156 -6.203125 5.640625 -6.203125 C 5.867188 -6.203125 6.0625 -6.125 6.21875 -5.96875 C 6.375 -5.8125 6.453125 -5.59375 6.453125 -5.3125 C 6.453125 -5.125 6.398438 -4.960938 6.296875 -4.828125 C 6.203125 -4.703125 6.082031 -4.59375 5.9375 -4.5 C 5.40625 -4.1875 4.910156 -3.816406 4.453125 -3.390625 C 4.003906 -2.972656 3.585938 -2.515625 3.203125 -2.015625 C 2.816406 -1.523438 2.453125 -1.019531 2.109375 -0.5 C 1.953125 -0.25 1.789062 -0.0703125 1.625 0.03125 C 1.457031 0.132812 1.28125 0.1875 1.09375 0.1875 Z M 5.734375 0.171875 C 5.535156 0.171875 5.347656 0.125 5.171875 0.03125 C 5.003906 -0.0625 4.828125 -0.242188 4.640625 -0.515625 C 4.429688 -0.828125 4.179688 -1.15625 3.890625 -1.5 C 3.597656 -1.851562 3.285156 -2.203125 2.953125 -2.546875 C 2.628906 -2.890625 2.304688 -3.21875 1.984375 -3.53125 C 1.660156 -3.84375 1.351562 -4.109375 1.0625 -4.328125 C 0.875 -4.492188 0.71875 -4.644531 0.59375 -4.78125 C 0.476562 -4.925781 0.421875 -5.113281 0.421875 -5.34375 C 0.421875 -5.582031 0.484375 -5.785156 0.609375 -5.953125 C 0.734375 -6.117188 0.914062 -6.203125 1.15625 -6.203125 C 1.3125 -6.203125 1.460938 -6.164062 1.609375 -6.09375 C 1.753906 -6.019531 1.945312 -5.890625 2.1875 -5.703125 C 2.34375 -5.578125 2.550781 -5.390625 2.8125 -5.140625 C 3.070312 -4.890625 3.347656 -4.609375 3.640625 -4.296875 C 3.941406 -3.992188 4.238281 -3.675781 4.53125 -3.34375 C 4.832031 -3.019531 5.109375 -2.710938 5.359375 -2.421875 C 5.609375 -2.128906 5.800781 -1.875 5.9375 -1.65625 C 6.1875 -1.3125 6.34375 -1.050781 6.40625 -0.875 C 6.476562 -0.695312 6.515625 -0.550781 6.515625 -0.4375 C 6.515625 -0.238281 6.441406 -0.0859375 6.296875 0.015625 C 6.160156 0.117188 5.972656 0.171875 5.734375 0.171875 Z M 5.734375 0.171875 "/></g></g><g style="fill:#023047;fill-opacity:1;"><g transform="translate(92.332241, 108.096769)"><path style="stroke:none" d="M 1.09375 0.1875 C 0.914062 0.1875 0.769531 0.140625 0.65625 0.046875 C 0.539062 -0.046875 0.472656 -0.191406 0.453125 -0.390625 C 0.429688 -0.585938 0.476562 -0.835938 0.59375 -1.140625 C 0.71875 -1.460938 0.894531 -1.816406 1.125 -2.203125 C 1.351562 -2.597656 1.632812 -3.003906 1.96875 -3.421875 C 2.300781 -3.835938 2.671875 -4.242188 3.078125 -4.640625 C 3.492188 -5.035156 3.929688 -5.390625 4.390625 -5.703125 C 4.566406 -5.828125 4.726562 -5.921875 4.875 -5.984375 C 5.019531 -6.054688 5.15625 -6.109375 5.28125 -6.140625 C 5.414062 -6.179688 5.535156 -6.203125 5.640625 -6.203125 C 5.867188 -6.203125 6.0625 -6.125 6.21875 -5.96875 C 6.375 -5.8125 6.453125 -5.59375 6.453125 -5.3125 C 6.453125 -5.125 6.398438 -4.960938 6.296875 -4.828125 C 6.203125 -4.703125 6.082031 -4.59375 5.9375 -4.5 C 5.40625 -4.1875 4.910156 -3.816406 4.453125 -3.390625 C 4.003906 -2.972656 3.585938 -2.515625 3.203125 -2.015625 C 2.816406 -1.523438 2.453125 -1.019531 2.109375 -0.5 C 1.953125 -0.25 1.789062 -0.0703125 1.625 0.03125 C 1.457031 0.132812 1.28125 0.1875 1.09375 0.1875 Z M 5.734375 0.171875 C 5.535156 0.171875 5.347656 0.125 5.171875 0.03125 C 5.003906 -0.0625 4.828125 -0.242188 4.640625 -0.515625 C 4.429688 -0.828125 4.179688 -1.15625 3.890625 -1.5 C 3.597656 -1.851562 3.285156 -2.203125 2.953125 -2.546875 C 2.628906 -2.890625 2.304688 -3.21875 1.984375 -3.53125 C 1.660156 -3.84375 1.351562 -4.109375 1.0625 -4.328125 C 0.875 -4.492188 0.71875 -4.644531 0.59375 -4.78125 C 0.476562 -4.925781 0.421875 -5.113281 0.421875 -5.34375 C 0.421875 -5.582031 0.484375 -5.785156 0.609375 -5.953125 C 0.734375 -6.117188 0.914062 -6.203125 1.15625 -6.203125 C 1.3125 -6.203125 1.460938 -6.164062 1.609375 -6.09375 C 1.753906 -6.019531 1.945312 -5.890625 2.1875 -5.703125 C 2.34375 -5.578125 2.550781 -5.390625 2.8125 -5.140625 C 3.070312 -4.890625 3.347656 -4.609375 3.640625 -4.296875 C 3.941406 -3.992188 4.238281 -3.675781 4.53125 -3.34375 C 4.832031 -3.019531 5.109375 -2.710938 5.359375 -2.421875 C 5.609375 -2.128906 5.800781 -1.875 5.9375 -1.65625 C 6.1875 -1.3125 6.34375 -1.050781 6.40625 -0.875 C 6.476562 -0.695312 6.515625 -0.550781 6.515625 -0.4375 C 6.515625 -0.238281 6.441406 -0.0859375 6.296875 0.015625 C 6.160156 0.117188 5.972656 0.171875 5.734375 0.171875 Z M 5.734375 0.171875 "/></g></g><g style="fill:#023047;fill-opacity:1;"><g transform="translate(76.277853, 108.096769)"><path style="stroke:none" d="M 1.09375 0.1875 C 0.914062 0.1875 0.769531 0.140625 0.65625 0.046875 C 0.539062 -0.046875 0.472656 -0.191406 0.453125 -0.390625 C 0.429688 -0.585938 0.476562 -0.835938 0.59375 -1.140625 C 0.71875 -1.460938 0.894531 -1.816406 1.125 -2.203125 C 1.351562 -2.597656 1.632812 -3.003906 1.96875 -3.421875 C 2.300781 -3.835938 2.671875 -4.242188 3.078125 -4.640625 C 3.492188 -5.035156 3.929688 -5.390625 4.390625 -5.703125 C 4.566406 -5.828125 4.726562 -5.921875 4.875 -5.984375 C 5.019531 -6.054688 5.15625 -6.109375 5.28125 -6.140625 C 5.414062 -6.179688 5.535156 -6.203125 5.640625 -6.203125 C 5.867188 -6.203125 6.0625 -6.125 6.21875 -5.96875 C 6.375 -5.8125 6.453125 -5.59375 6.453125 -5.3125 C 6.453125 -5.125 6.398438 -4.960938 6.296875 -4.828125 C 6.203125 -4.703125 6.082031 -4.59375 5.9375 -4.5 C 5.40625 -4.1875 4.910156 -3.816406 4.453125 -3.390625 C 4.003906 -2.972656 3.585938 -2.515625 3.203125 -2.015625 C 2.816406 -1.523438 2.453125 -1.019531 2.109375 -0.5 C 1.953125 -0.25 1.789062 -0.0703125 1.625 0.03125 C 1.457031 0.132812 1.28125 0.1875 1.09375 0.1875 Z M 5.734375 0.171875 C 5.535156 0.171875 5.347656 0.125 5.171875 0.03125 C 5.003906 -0.0625 4.828125 -0.242188 4.640625 -0.515625 C 4.429688 -0.828125 4.179688 -1.15625 3.890625 -1.5 C 3.597656 -1.851562 3.285156 -2.203125 2.953125 -2.546875 C 2.628906 -2.890625 2.304688 -3.21875 1.984375 -3.53125 C 1.660156 -3.84375 1.351562 -4.109375 1.0625 -4.328125 C 0.875 -4.492188 0.71875 -4.644531 0.59375 -4.78125 C 0.476562 -4.925781 0.421875 -5.113281 0.421875 -5.34375 C 0.421875 -5.582031 0.484375 -5.785156 0.609375 -5.953125 C 0.734375 -6.117188 0.914062 -6.203125 1.15625 -6.203125 C 1.3125 -6.203125 1.460938 -6.164062 1.609375 -6.09375 C 1.753906 -6.019531 1.945312 -5.890625 2.1875 -5.703125 C 2.34375 -5.578125 2.550781 -5.390625 2.8125 -5.140625 C 3.070312 -4.890625 3.347656 -4.609375 3.640625 -4.296875 C 3.941406 -3.992188 4.238281 -3.675781 4.53125 -3.34375 C 4.832031 -3.019531 5.109375 -2.710938 5.359375 -2.421875 C 5.609375 -2.128906 5.800781 -1.875 5.9375 -1.65625 C 6.1875 -1.3125 6.34375 -1.050781 6.40625 -0.875 C 6.476562 -0.695312 6.515625 -0.550781 6.515625 -0.4375 C 6.515625 -0.238281 6.441406 -0.0859375 6.296875 0.015625 C 6.160156 0.117188 5.972656 0.171875 5.734375 0.171875 Z M 5.734375 0.171875 "/></g></g><g style="fill:#ffffff;fill-opacity:1;"><g transform="translate(74.85546, 93.54638)"><path style="stroke:none" d="M 4.671875 0.15625 C 4.335938 0.15625 4.050781 0.0703125 3.8125 -0.09375 C 3.582031 -0.269531 3.347656 -0.550781 3.109375 -0.9375 C 2.953125 -1.175781 2.785156 -1.476562 2.609375 -1.84375 C 2.441406 -2.21875 2.269531 -2.609375 2.09375 -3.015625 C 1.925781 -3.421875 1.78125 -3.789062 1.65625 -4.125 C 1.46875 -4.625 1.289062 -5.035156 1.125 -5.359375 C 0.96875 -5.679688 0.835938 -5.957031 0.734375 -6.1875 C 0.628906 -6.425781 0.546875 -6.632812 0.484375 -6.8125 C 0.421875 -7 0.390625 -7.207031 0.390625 -7.4375 C 0.390625 -7.664062 0.46875 -7.859375 0.625 -8.015625 C 0.78125 -8.171875 1.035156 -8.25 1.390625 -8.25 C 1.722656 -8.25 2.007812 -8.171875 2.25 -8.015625 C 2.488281 -7.859375 2.703125 -7.640625 2.890625 -7.359375 C 3.078125 -7.085938 3.238281 -6.757812 3.375 -6.375 C 3.519531 -5.976562 3.671875 -5.5625 3.828125 -5.125 C 3.992188 -4.695312 4.160156 -4.269531 4.328125 -3.84375 C 4.492188 -3.425781 4.664062 -3.019531 4.84375 -2.625 L 4.21875 -2.75 C 4.46875 -3.25 4.703125 -3.71875 4.921875 -4.15625 C 5.148438 -4.59375 5.378906 -5.007812 5.609375 -5.40625 C 5.835938 -5.8125 6.082031 -6.207031 6.34375 -6.59375 C 6.601562 -6.976562 6.898438 -7.363281 7.234375 -7.75 C 7.378906 -7.9375 7.539062 -8.070312 7.71875 -8.15625 C 7.894531 -8.238281 8.085938 -8.28125 8.296875 -8.28125 C 8.492188 -8.28125 8.664062 -8.21875 8.8125 -8.09375 C 8.96875 -7.976562 9.082031 -7.832031 9.15625 -7.65625 C 9.238281 -7.488281 9.28125 -7.300781 9.28125 -7.09375 C 9.28125 -6.882812 9.253906 -6.675781 9.203125 -6.46875 C 9.148438 -6.269531 9.070312 -6.09375 8.96875 -5.9375 C 8.625 -5.457031 8.3125 -5.015625 8.03125 -4.609375 C 7.757812 -4.210938 7.5 -3.816406 7.25 -3.421875 C 7 -3.023438 6.742188 -2.597656 6.484375 -2.140625 C 6.234375 -1.691406 5.976562 -1.171875 5.71875 -0.578125 C 5.582031 -0.304688 5.4375 -0.113281 5.28125 0 C 5.125 0.101562 4.921875 0.15625 4.671875 0.15625 Z M 4.671875 0.15625 "/></g></g><g style="fill:#023047;fill-opacity:1;"><g transform="translate(61.884868, 57.512563)"><path style="stroke:none" d="M 3.4375 -7.0625 C 3.601562 -7.0625 3.75 -7.015625 3.875 -6.921875 C 4.007812 -6.835938 4.113281 -6.71875 4.1875 -6.5625 L 6.609375 -1.109375 C 6.640625 -1.054688 6.660156 -1 6.671875 -0.9375 C 6.679688 -0.875 6.6875 -0.8125 6.6875 -0.75 C 6.6875 -0.519531 6.601562 -0.320312 6.4375 -0.15625 C 6.28125 0.0078125 6.085938 0.09375 5.859375 0.09375 C 5.671875 0.09375 5.507812 0.0507812 5.375 -0.03125 C 5.238281 -0.113281 5.140625 -0.234375 5.078125 -0.390625 L 4.65625 -1.546875 L 2.1875 -1.546875 L 1.765625 -0.390625 C 1.710938 -0.234375 1.613281 -0.113281 1.46875 -0.03125 C 1.332031 0.0507812 1.175781 0.09375 1 0.09375 C 0.769531 0.09375 0.570312 0.0078125 0.40625 -0.15625 C 0.238281 -0.320312 0.15625 -0.519531 0.15625 -0.75 C 0.15625 -0.875 0.179688 -0.992188 0.234375 -1.109375 L 2.65625 -6.5625 C 2.71875 -6.71875 2.816406 -6.835938 2.953125 -6.921875 C 3.085938 -7.015625 3.238281 -7.0625 3.40625 -7.0625 C 3.40625 -7.0625 3.410156 -7.0625 3.421875 -7.0625 C 3.429688 -7.0625 3.4375 -7.0625 3.4375 -7.0625 Z M 4.1875 -2.859375 L 3.421875 -4.96875 L 2.65625 -2.859375 Z M 4.1875 -2.859375 "/></g></g><g style="fill:#023047;fill-opacity:1;"><g transform="translate(68.707181, 57.512563)"><path style="stroke:none" d="M 4.859375 -5.53125 C 5.085938 -5.394531 5.203125 -5.195312 5.203125 -4.9375 C 5.203125 -4.820312 5.171875 -4.707031 5.109375 -4.59375 L 4.921875 -4.265625 C 5.328125 -3.804688 5.53125 -3.210938 5.53125 -2.484375 C 5.53125 -1.734375 5.304688 -1.117188 4.859375 -0.640625 C 5.128906 -0.390625 5.265625 -0.046875 5.265625 0.390625 C 5.265625 0.898438 5.078125 1.3125 4.703125 1.625 C 4.335938 1.9375 3.734375 2.09375 2.890625 2.09375 C 2.378906 2.09375 1.914062 2.015625 1.5 1.859375 C 1.09375 1.703125 0.816406 1.484375 0.671875 1.203125 C 0.660156 1.179688 0.644531 1.144531 0.625 1.09375 C 0.613281 1.050781 0.609375 1.007812 0.609375 0.96875 C 0.609375 0.800781 0.664062 0.65625 0.78125 0.53125 C 0.90625 0.40625 1.0625 0.34375 1.25 0.34375 C 1.351562 0.34375 1.457031 0.375 1.5625 0.4375 C 1.78125 0.582031 1.992188 0.691406 2.203125 0.765625 C 2.410156 0.835938 2.628906 0.875 2.859375 0.875 C 3.160156 0.875 3.378906 0.820312 3.515625 0.71875 C 3.648438 0.625 3.71875 0.492188 3.71875 0.328125 C 3.71875 0.203125 3.6875 0.101562 3.625 0.03125 C 3.519531 0.0507812 3.410156 0.0664062 3.296875 0.078125 C 3.179688 0.0859375 3.0625 0.09375 2.9375 0.09375 C 2.394531 0.09375 1.929688 -0.015625 1.546875 -0.234375 C 1.160156 -0.453125 0.863281 -0.753906 0.65625 -1.140625 C 0.457031 -1.523438 0.359375 -1.972656 0.359375 -2.484375 C 0.359375 -2.992188 0.457031 -3.441406 0.65625 -3.828125 C 0.863281 -4.222656 1.160156 -4.53125 1.546875 -4.75 C 1.929688 -4.96875 2.394531 -5.078125 2.9375 -5.078125 C 3.09375 -5.078125 3.238281 -5.066406 3.375 -5.046875 C 3.507812 -5.035156 3.640625 -5.007812 3.765625 -4.96875 L 3.9375 -5.28125 C 4.070312 -5.507812 4.265625 -5.625 4.515625 -5.625 C 4.628906 -5.625 4.742188 -5.59375 4.859375 -5.53125 Z M 2.9375 -3.765625 C 2.613281 -3.765625 2.359375 -3.648438 2.171875 -3.421875 C 1.992188 -3.191406 1.90625 -2.878906 1.90625 -2.484375 C 1.90625 -2.085938 1.992188 -1.773438 2.171875 -1.546875 C 2.359375 -1.328125 2.613281 -1.21875 2.9375 -1.21875 C 3.269531 -1.21875 3.523438 -1.328125 3.703125 -1.546875 C 3.878906 -1.773438 3.96875 -2.085938 3.96875 -2.484375 C 3.96875 -2.878906 3.878906 -3.191406 3.703125 -3.421875 C 3.523438 -3.648438 3.269531 -3.765625 2.9375 -3.765625 Z M 2.9375 -3.765625 "/></g></g><g style="fill:#023047;fill-opacity:1;"><g transform="translate(74.674211, 57.512563)"><path style="stroke:none" d="M 2.9375 -3.71875 C 2.613281 -3.71875 2.359375 -3.609375 2.171875 -3.390625 C 1.984375 -3.179688 1.890625 -2.878906 1.890625 -2.484375 C 1.890625 -2.097656 1.984375 -1.796875 2.171875 -1.578125 C 2.359375 -1.359375 2.613281 -1.25 2.9375 -1.25 C 3.269531 -1.25 3.523438 -1.359375 3.703125 -1.578125 C 3.890625 -1.796875 3.984375 -2.097656 3.984375 -2.484375 C 3.984375 -2.878906 3.890625 -3.179688 3.703125 -3.390625 C 3.523438 -3.609375 3.269531 -3.71875 2.9375 -3.71875 Z M 2.9375 -5.078125 C 3.476562 -5.078125 3.941406 -4.96875 4.328125 -4.75 C 4.710938 -4.53125 5.003906 -4.222656 5.203125 -3.828125 C 5.410156 -3.441406 5.515625 -2.992188 5.515625 -2.484375 C 5.515625 -1.972656 5.410156 -1.523438 5.203125 -1.140625 C 5.003906 -0.753906 4.710938 -0.453125 4.328125 -0.234375 C 3.941406 -0.015625 3.476562 0.09375 2.9375 0.09375 C 2.394531 0.09375 1.929688 -0.015625 1.546875 -0.234375 C 1.160156 -0.453125 0.863281 -0.753906 0.65625 -1.140625 C 0.457031 -1.523438 0.359375 -1.972656 0.359375 -2.484375 C 0.359375 -2.992188 0.457031 -3.441406 0.65625 -3.828125 C 0.863281 -4.222656 1.160156 -4.53125 1.546875 -4.75 C 1.929688 -4.96875 2.394531 -5.078125 2.9375 -5.078125 Z M 2.9375 -5.078125 "/></g></g></g></svg>